<svg xmlns="http://www.w3.org/2000/svg" width="60" height="60" viewBox="0 0 86 81.855">
  <g id="Ahmedabad" transform="translate(0 0.5)">
    <path id="Stroke_2" data-name="Stroke 2" d="M0,6.035H3.353V0H0Z" transform="translate(28.583 12.93)" fill="#e2d9ad" stroke="#231f20" stroke-miterlimit="10" stroke-width="1"/>
    <path id="Stroke_4" data-name="Stroke 4" d="M3.353,4.024H0L0,0h3.35Z" transform="translate(28.583 4.883)" fill="#e2d9ad" stroke="#231f20" stroke-miterlimit="10" stroke-width="1"/>
    <path id="Stroke_6" data-name="Stroke 6" d="M5.365,6.706H0V0H5.36Z" transform="translate(27.242 22.318)" fill="#e2d9ad" stroke="#231f20" stroke-miterlimit="10" stroke-width="1"/>
    <path id="Stroke_8" data-name="Stroke 8" d="M0,28.52H5.54V0H0Z" transform="translate(27.15 33.433)" fill="#e2d9ad" stroke="#231f20" stroke-miterlimit="10" stroke-width="1"/>
    <path id="Stroke_11" data-name="Stroke 11" d="M2.233,0C4.785,1.121,4.452,2.459,4.452,2.459a1.014,1.014,0,0,1-.9,1.1H.917a1.015,1.015,0,0,1-.9-1.1S-.321,1.121,2.233,0Z" transform="translate(27.687 1.42)" fill="#faf3d3" stroke="#231f20" stroke-linecap="round" stroke-linejoin="round" stroke-miterlimit="10" stroke-width="1"/>
    <path id="Stroke_13" data-name="Stroke 13" d="M0,1.42V0" transform="translate(29.92 0)" fill="none" stroke="#231f20" stroke-linecap="round" stroke-linejoin="round" stroke-miterlimit="10" stroke-width="1"/>
    <path id="Stroke_16" data-name="Stroke 16" d="M5.294,2.483A1.052,1.052,0,0,1,4.26,3.555H1.029A1.049,1.049,0,0,1,0,2.483V1.073A1.05,1.05,0,0,1,1.029,0H4.26A1.053,1.053,0,0,1,5.294,1.073Z" transform="translate(27.274 9.162)" fill="#faf3d3" stroke="#231f20" stroke-linecap="round" stroke-linejoin="round" stroke-miterlimit="10" stroke-width="1"/>
    <path id="Stroke_18" data-name="Stroke 18" d="M7.31,2.65A1.041,1.041,0,0,1,6.248,3.668H1.06A1.039,1.039,0,0,1,0,2.65V1.019A1.039,1.039,0,0,1,1.06,0H6.248A1.041,1.041,0,0,1,7.31,1.019Z" transform="translate(26.266 18.676)" fill="#faf3d3" stroke="#231f20" stroke-linecap="round" stroke-linejoin="round" stroke-miterlimit="10" stroke-width="1"/>
    <path id="Stroke_20" data-name="Stroke 20" d="M8.17,3.381A1.062,1.062,0,0,1,7.108,4.44H1.062A1.062,1.062,0,0,1,0,3.381V1.059A1.06,1.06,0,0,1,1.062,0H7.108A1.061,1.061,0,0,1,8.17,1.059Z" transform="translate(25.836 28.993)" fill="#faf3d3" stroke="#231f20" stroke-linecap="round" stroke-linejoin="round" stroke-miterlimit="10" stroke-width="1"/>
    <path id="Stroke_22" data-name="Stroke 22" d="M0,7.991v-1.5C0,4.643,1.9,3.212,3.752,2.493,7.63.983,8.6,0,8.6,0s.964.983,4.844,2.493c1.849.719,3.752,2.15,3.752,3.994V8.523a6.266,6.266,0,0,0-1.161-.636c-2.618,1.09-2.481,2.51-2.481,2.51h0s.141-1.42-2.475-2.51C8.457,8.978,8.591,10.4,8.591,10.4h0s.138-1.42-2.477-2.51c-2.613,1.09-2.48,2.51-2.48,2.51h0s.14-1.42-2.474-2.51A6.285,6.285,0,0,0,0,8.532Z" transform="translate(34.006 23.787)" fill="#faf3d3" stroke="#231f20" stroke-linecap="round" stroke-linejoin="round" stroke-miterlimit="10" stroke-width="1"/>
    <path id="Stroke_24" data-name="Stroke 24" d="M0,3.073V0" transform="translate(42.602 20.807)" fill="none" stroke="#231f20" stroke-linecap="round" stroke-linejoin="round" stroke-miterlimit="10" stroke-width="1"/>
    <path id="Stroke_27" data-name="Stroke 27" d="M0,23.6H19.819V0H0Z" transform="translate(32.693 38.356)" fill="#faf3d3" stroke="#231f20" stroke-linecap="round" stroke-linejoin="round" stroke-miterlimit="10" stroke-width="1"/>
    <path id="Stroke_29" data-name="Stroke 29" d="M0,5.958H3.2V0H0Z" transform="translate(53.681 12.718)" fill="#e2d9ad" stroke="#231f20" stroke-miterlimit="10" stroke-width="1"/>
    <path id="Stroke_31" data-name="Stroke 31" d="M3.2,4.326H0V0H3.2Z" transform="translate(53.681 4.975)" fill="#e2d9ad" stroke="#231f20" stroke-miterlimit="10" stroke-width="1"/>
    <path id="Stroke_33" data-name="Stroke 33" d="M0,6.648H5.54V0H0Z" transform="translate(52.511 22.344)" fill="#e2d9ad" stroke="#231f20" stroke-miterlimit="10" stroke-width="1"/>
    <path id="Stroke_35" data-name="Stroke 35" d="M0,28.52H5.54V0H0Z" transform="translate(52.511 33.433)" fill="#e2d9ad" stroke="#231f20" stroke-miterlimit="10" stroke-width="1"/>
    <path id="Stroke_37" data-name="Stroke 37" d="M2.233,0C4.785,1.121,4.452,2.459,4.452,2.459a1.015,1.015,0,0,1-.9,1.1H.917a1.013,1.013,0,0,1-.9-1.1S-.321,1.121,2.233,0Z" transform="translate(53.051 1.42)" fill="#faf3d3" stroke="#231f20" stroke-linecap="round" stroke-linejoin="round" stroke-miterlimit="10" stroke-width="1"/>
    <path id="Stroke_39" data-name="Stroke 39" d="M0,1.42V0" transform="translate(55.284 0)" fill="none" stroke="#231f20" stroke-linecap="round" stroke-linejoin="round" stroke-miterlimit="10" stroke-width="1"/>
    <path id="Stroke_42" data-name="Stroke 42" d="M5.3,2.386a1.029,1.029,0,0,1-1.033,1.03H1.033A1.03,1.03,0,0,1,0,2.386V1.031A1.031,1.031,0,0,1,1.033,0H4.263A1.03,1.03,0,0,1,5.3,1.031Z" transform="translate(52.634 9.301)" fill="#faf3d3" stroke="#231f20" stroke-linecap="round" stroke-linejoin="round" stroke-miterlimit="10" stroke-width="1"/>
    <path id="Stroke_44" data-name="Stroke 44" d="M7.305,2.65A1.038,1.038,0,0,1,6.248,3.668H1.058A1.037,1.037,0,0,1,0,2.65V1.019A1.037,1.037,0,0,1,1.058,0h5.19A1.038,1.038,0,0,1,7.305,1.019Z" transform="translate(51.63 18.676)" fill="#faf3d3" stroke="#231f20" stroke-linecap="round" stroke-linejoin="round" stroke-miterlimit="10" stroke-width="1"/>
    <path id="Stroke_46" data-name="Stroke 46" d="M8.168,3.381A1.059,1.059,0,0,1,7.11,4.44H1.06A1.06,1.06,0,0,1,0,3.381V1.059A1.059,1.059,0,0,1,1.06,0H7.11A1.057,1.057,0,0,1,8.168,1.059Z" transform="translate(51.197 28.993)" fill="#faf3d3" stroke="#231f20" stroke-linecap="round" stroke-linejoin="round" stroke-miterlimit="10" stroke-width="1"/>
    <path id="Stroke_48" data-name="Stroke 48" d="M18.5.7V.633A6.313,6.313,0,0,0,17.346,0c-2.618,1.09-2.481,2.51-2.481,2.51h0S15,1.09,12.386,0c-2.234.932-2.46,2.1-2.478,2.417C9.888,2.1,9.665.932,7.433,0,5.207.929,4.975,2.085,4.956,2.414,4.938,2.085,4.709.929,2.484,0A6.178,6.178,0,0,0,1.314.644V.7A1.063,1.063,0,0,1,.251,1.759H0V6.682H19.819V1.759h-.254A1.061,1.061,0,0,1,18.5.7Z" transform="translate(32.692 31.675)" fill="#e2d9ad" stroke="#231f20" stroke-miterlimit="10" stroke-width="1"/>
    <path id="Stroke_50" data-name="Stroke 50" d="M11.166,5.383V17.457H0V5.383H.991C1.248,4.053,2.19,1.738,5.585,0h0c3.4,1.738,4.338,4.053,4.595,5.383Z" transform="translate(37.019 44.496)" fill="#e2d9ad" stroke="#231f20" stroke-miterlimit="10" stroke-width="1"/>
    <path id="Stroke_52" data-name="Stroke 52" d="M24.786,2.506S24.927,1.088,22.312,0C19.7,1.088,19.831,2.506,19.831,2.506h0S19.967,1.088,17.354,0C14.736,1.088,14.87,2.506,14.87,2.506h0S15.014,1.088,12.4,0C9.785,1.088,9.92,2.506,9.92,2.506h0S10.056,1.088,7.442,0C4.824,1.088,4.959,2.506,4.959,2.506h.006S5.1,1.088,2.487,0C-.126,1.088.007,2.506.007,2.506L0,2.72V6.157H24.786V2.506Z" transform="translate(58.049 36.006)" fill="#e2d9ad" stroke="#231f20" stroke-miterlimit="10" stroke-width="1"/>
    <path id="Stroke_54" data-name="Stroke 54" d="M0,1.763V0" transform="translate(70.428 27.885)" fill="none" stroke="#231f20" stroke-linecap="round" stroke-linejoin="round" stroke-miterlimit="10" stroke-width="1"/>
    <path id="Stroke_57" data-name="Stroke 57" d="M0,8.863S-.129,7.445,2.488,6.357C5.1,7.445,4.96,8.863,4.96,8.863h0s-.134-1.418,2.48-2.506c2.614,1.088,2.476,2.506,2.476,2.506h0S9.782,7.445,12.4,6.357c2.613,1.088,2.471,2.506,2.471,2.506l.007-.912V6.434c0-1.829-1.645-3.249-3.245-3.962C8.276.975,7.445,0,7.445,0s-.84.975-4.2,2.472C1.652,3.185,0,4.6,0,6.434v1.49Z" transform="translate(63.003 29.649)" fill="#faf3d3" stroke="#231f20" stroke-linecap="round" stroke-linejoin="round" stroke-miterlimit="10" stroke-width="1"/>
    <path id="Stroke_59" data-name="Stroke 59" d="M0,19.79H24.786V0H0Z" transform="translate(58.049 42.163)" fill="#faf3d3" stroke="#231f20" stroke-miterlimit="10" stroke-width="1"/>
    <path id="Stroke_61" data-name="Stroke 61" d="M9.2,4.432V14.673H0L0,4.432H.822C1.031,3.339,1.8,1.432,4.6,0h0C7.4,1.432,8.176,3.339,8.386,4.432Z" transform="translate(65.842 47.28)" fill="#e2d9ad" stroke="#231f20" stroke-miterlimit="10" stroke-width="1"/>
    <path id="Stroke_63" data-name="Stroke 63" d="M0,2.506S-.138,1.088,2.477,0C5.092,1.088,4.958,2.506,4.958,2.506h0S4.82,1.088,7.435,0c2.618,1.088,2.483,2.506,2.483,2.506H9.911S9.773,1.088,12.388,0C15,1.088,14.869,2.506,14.869,2.506h0S14.731,1.088,17.349,0c2.613,1.088,2.48,2.506,2.48,2.506h0S19.686,1.088,22.3,0c2.611,1.088,2.48,2.506,2.48,2.506l.007.214V6.157H0V2.792Z" transform="translate(2.361 36.006)" fill="#e2d9ad" stroke="#231f20" stroke-miterlimit="10" stroke-width="1"/>
    <path id="Stroke_65" data-name="Stroke 65" d="M0,1.763V0" transform="translate(14.771 27.885)" fill="none" stroke="#231f20" stroke-linecap="round" stroke-linejoin="round" stroke-miterlimit="10" stroke-width="1"/>
    <path id="Stroke_68" data-name="Stroke 68" d="M14.874,8.863s.134-1.418-2.48-2.506C9.778,7.445,9.918,8.863,9.918,8.863h0s.134-1.418-2.482-2.506C4.82,7.445,4.958,8.863,4.958,8.863h.007S5.1,7.445,2.481,6.357C-.135,7.445.007,8.863.007,8.863L0,7.951V6.434C0,4.6,1.647,3.185,3.247,2.472,6.605.975,7.439,0,7.439,0s.837.975,4.19,2.472c1.6.713,3.252,2.132,3.252,3.962v1.49Z" transform="translate(7.315 29.649)" fill="#faf3d3" stroke="#231f20" stroke-linecap="round" stroke-linejoin="round" stroke-miterlimit="10" stroke-width="1"/>
    <path id="Stroke_70" data-name="Stroke 70" d="M0,19.79H24.789V0H0Z" transform="translate(2.361 42.163)" fill="#faf3d3" stroke="#231f20" stroke-miterlimit="10" stroke-width="1"/>
    <path id="Stroke_72" data-name="Stroke 72" d="M0,4.432V14.673H9.2l0-10.241H8.382C8.17,3.339,7.4,1.432,4.6,0h0C1.8,1.432,1.027,3.339.816,4.432Z" transform="translate(10.153 47.28)" fill="#e2d9ad" stroke="#231f20" stroke-miterlimit="10" stroke-width="1"/>
    <text id="Ahmedabad-2" data-name="Ahmedabad" transform="translate(0 78.355)" fill="#fff" font-size="14" font-family="Gotham-Book, Gotham"><tspan x="0" y="0">Ahmedabad</tspan></text>
  </g>
</svg>
