<svg id="Chairs_01-02" data-name="Chairs 01-02" xmlns="http://www.w3.org/2000/svg" xmlns:xlink="http://www.w3.org/1999/xlink" width="39.79" height="32.065" viewBox="0 0 39.79 32.065">
  <defs>
    <linearGradient id="linear-gradient" x1="-1.88" y1="-0.281" x2="-1.553" y2="-0.564" gradientUnits="objectBoundingBox">
      <stop offset="0" stop-opacity="0"/>
      <stop offset="1"/>
    </linearGradient>
  </defs>
  <g id="Group_461" data-name="Group 461">
    <g id="Group_460" data-name="Group 460" transform="translate(0 0.266)">
      <path id="Path_510" data-name="Path 510" d="M89.9,100.518c2.2,5.6,2.228,6.321,1.944,8.519a5.939,5.939,0,0,1-1.944,3.573l5.173,1.474,5.173,1.474a18.048,18.048,0,0,0,2.25.475,17.507,17.507,0,0,0,2.3.15h0a17.507,17.507,0,0,0,2.3-.15,17.117,17.117,0,0,0,2.25-.475l5.173-1.474,5.173-1.474a6.039,6.039,0,0,1-1.871-3.573c-.259-2.2.785-5.221,1.871-8.494,1.06-3.273,1.138-6.4.155-8.669-.983-2.3-3.026-3.772-6.207-3.772a21.3,21.3,0,0,0-3.722.291c-1.033.19-1.475.3-3,.626a7.265,7.265,0,0,1-2.241.3,15.674,15.674,0,0,1-2.36-.3c-1.42-.366-1.028-.261-2.616-.626A13.949,13.949,0,0,0,95.9,88.1c-3.181,0-5.224,1.474-6.207,3.772C88.733,94.147,88.81,97.245,89.9,100.518Z" transform="translate(-85.179 -87.657)" fill="#d0d0d2"/>
      <path id="Path_462" data-name="Path 462" d="M110.467,170.528a12.158,12.158,0,0,0-1.352.447c-.413.179-.676.4-.376.581a14.219,14.219,0,0,0,3.079.984,16.815,16.815,0,0,0,5.483.38,25.986,25.986,0,0,0,4.863-1.028c1.239-.4,1.99-.782,1.972-.961-.019-.2-1.127-.469-2.61-.693a39.573,39.573,0,0,0-4.957-.447,22.279,22.279,0,0,0-3.812.246A17.248,17.248,0,0,0,110.467,170.528Z" transform="translate(-96.649 -149.806)" fill="#c3c4cf"/>
      <path id="Path_463" data-name="Path 463" d="M159.294,115.844c.813-4.336,2.047-4.253.81-6.126a15.146,15.146,0,0,0,0-8.894c-.112-.292-.27-.3-.4-.569-4.561,8.819-8.74,17.247-13.3,26.092.268.027.559.027.827.027h0a11.527,11.527,0,0,0,3.935-.664l4.471-1.567,4.471-1.567C160.1,122.549,158.482,120.18,159.294,115.844Z" transform="translate(-124.951 -98.213)" opacity="0.15" fill="url(#linear-gradient)"/>
      <path id="Path_464" data-name="Path 464" d="M76.892,177.672c5.18,1.9,8.125,4.363,16.053,4.382,7.878.039,10.9-2.5,16.053-4.4a2.859,2.859,0,0,1,1.975-.022,2.332,2.332,0,0,1,1.41,1.23h0a2.092,2.092,0,0,1-.026,1.833,2.812,2.812,0,0,1-1.59,1.364c-5.744,2.1-10.965,4.175-17.822,4.175s-12.1-2.051-17.848-4.13a2.9,2.9,0,0,1-1.59-1.364,2.094,2.094,0,0,1-.051-1.833h0a2.48,2.48,0,0,1,1.41-1.23A2.874,2.874,0,0,1,76.892,177.672Z" transform="translate(-73.208 -154.429)" fill="#fff"/>
      <g id="Group_459" data-name="Group 459">
        <g id="Group_458" data-name="Group 458">
          <path id="Path_465" data-name="Path 465" d="M209.846,92.7h0a2.137,2.137,0,0,1,2.146,2.146v11.67a2.137,2.137,0,0,1-2.146,2.146h0a2.137,2.137,0,0,1-2.146-2.146V94.846a2.144,2.144,0,0,1,.626-1.52A2.226,2.226,0,0,1,209.846,92.7Z" transform="translate(-172.546 -92.7)" fill="#fff"/>
          <path id="Path_466" data-name="Path 466" d="M75.146,92.8h0a2.137,2.137,0,0,1,2.146,2.146v11.67a2.137,2.137,0,0,1-2.146,2.146h0A2.137,2.137,0,0,1,73,106.616V94.946A2.137,2.137,0,0,1,75.146,92.8Z" transform="translate(-73 -92.778)" fill="#fff"/>
        </g>
      </g>
    </g>
    <circle id="Ellipse_41" data-name="Ellipse 41" cx="2.079" cy="2.079" r="2.079" transform="matrix(0.201, -0.979, 0.979, 0.201, 34.88, 4.073)" fill="#63646f"/>
  </g>
</svg>
