<svg xmlns="http://www.w3.org/2000/svg" width="60" height="60" viewBox="0 0 86.272 80.791">
  <g id="Banaglore" transform="translate(0.554 0.5)">
    <path id="Stroke_3" data-name="Stroke 3" d="M8.043,0c9.2,3.807,8,8.345,8,8.345a3.513,3.513,0,0,1-3.258,3.726H3.307A3.517,3.517,0,0,1,.053,8.345S-1.159,3.807,8.043,0Z" transform="translate(34.2 4.257)" fill="#f7f6da" stroke="#231f20" stroke-miterlimit="10" stroke-width="1"/>
    <g id="Group_8" data-name="Group 8" transform="translate(42.242 0)">
      <path id="Fill_5" data-name="Fill 5" d="M0,3.929V0" fill="#fff"/>
      <path id="Stroke_7" data-name="Stroke 7" d="M0,3.929V0" fill="none" stroke="#231f20" stroke-linecap="round" stroke-linejoin="round" stroke-miterlimit="10" stroke-width="1"/>
    </g>
    <path id="Stroke_11" data-name="Stroke 11" d="M0,6.035H19.447V0H0Z" transform="translate(32.859 16.327)" fill="#ededc2" stroke="#231f20" stroke-miterlimit="10" stroke-width="1"/>
    <path id="Stroke_13" data-name="Stroke 13" d="M0,24.141H6.035V0H0Z" transform="translate(24.812 31.751)" fill="#ededc2" stroke="#231f20" stroke-miterlimit="10" stroke-width="1"/>
    <path id="Stroke_15" data-name="Stroke 15" d="M4.692,0c5.369,2.113,4.666,4.633,4.666,4.633a1.993,1.993,0,0,1-1.9,2.072H1.927a1.991,1.991,0,0,1-1.9-2.072S-.676,2.113,4.692,0Z" transform="translate(23.47 25.045)" fill="none" stroke="#231f20" stroke-miterlimit="10" stroke-width="1"/>
    <path id="Stroke_17" data-name="Stroke 17" d="M0,2.452V0" transform="translate(28.259 22.528)" fill="none" stroke="#231f20" stroke-linecap="round" stroke-linejoin="round" stroke-miterlimit="10" stroke-width="1"/>
    <path id="Stroke_20" data-name="Stroke 20" d="M0,24.141H6.035V0H0Z" transform="translate(53.647 31.751)" fill="#ededc2" stroke="#231f20" stroke-miterlimit="10" stroke-width="1"/>
    <path id="Stroke_22" data-name="Stroke 22" d="M4.694,0c5.368,2.113,4.664,4.633,4.664,4.633a1.991,1.991,0,0,1-1.9,2.072H1.929a1.521,1.521,0,0,1-.239-.017A2.017,2.017,0,0,1,.03,4.633S-.362,3.224,1.686,1.626A12.077,12.077,0,0,1,4.694,0Z" transform="translate(52.306 25.045)" fill="#f7f6da" stroke="#231f20" stroke-miterlimit="10" stroke-width="1"/>
    <path id="Stroke_24" data-name="Stroke 24" d="M0,2.452V0" transform="translate(56.937 22.528)" fill="none" stroke="#231f20" stroke-linecap="round" stroke-linejoin="round" stroke-miterlimit="10" stroke-width="1"/>
    <path id="Stroke_27" data-name="Stroke 27" d="M22.354,0H0" transform="translate(30.808 35.337)" fill="none" stroke="#231f20" stroke-miterlimit="10" stroke-width="1"/>
    <path id="Stroke_30" data-name="Stroke 30" d="M22.354,0H0" transform="translate(30.808 35.337)" fill="none" stroke="#231f20" stroke-miterlimit="10" stroke-width="1"/>
    <path id="Stroke_33" data-name="Stroke 33" d="M0,4.694H34.2V0H0Z" transform="translate(25.482 55.892)" fill="#ededc2" stroke="#231f20" stroke-miterlimit="10" stroke-width="1"/>
    <path id="Stroke_35" data-name="Stroke 35" d="M0,3.342C0,.489,2.348,0,5.242,0H17.554c2.9,0,5.246.489,5.246,3.342v.682H0Z" transform="translate(30.847 22.363)" fill="#f7f6da" stroke="#231f20" stroke-miterlimit="10" stroke-width="1"/>
    <path id="Stroke_37" data-name="Stroke 37" d="M4.692,0a12.13,12.13,0,0,1,3,1.615c2.066,1.6,1.671,3.018,1.671,3.018A2.018,2.018,0,0,1,7.7,6.688a1.587,1.587,0,0,1-.244.017H1.927a1.991,1.991,0,0,1-1.9-2.072S-.676,2.113,4.692,0Z" transform="translate(23.47 25.045)" fill="#f7f6da" stroke="#231f20" stroke-miterlimit="10" stroke-width="1"/>
    <path id="Stroke_39" data-name="Stroke 39" d="M0,5.357A1.95,1.95,0,0,0,1.625,3.385S2.021,2.023,0,.488V0H22.8V.5c-2,1.532-1.618,2.885-1.618,2.885A1.944,1.944,0,0,0,22.8,5.357V8.718H0V5.357Z" transform="translate(30.847 26.386)" fill="#ededc2" stroke="#231f20" stroke-miterlimit="10" stroke-width="1"/>
    <path id="Stroke_41" data-name="Stroke 41" d="M0,20.788H22.8V0H0Z" transform="translate(30.847 35.104)" fill="none" stroke="#231f20" stroke-miterlimit="10" stroke-width="1"/>
    <g id="Rectangle" transform="translate(30.725 35.007)" fill="#f7f6da" stroke="#000" stroke-miterlimit="10" stroke-width="1">
      <rect width="8.034" height="20.659" stroke="none"/>
      <rect x="0.5" y="0.5" width="7.034" height="19.659" fill="none"/>
    </g>
    <g id="Rectangle_Copy" data-name="Rectangle Copy" transform="translate(38.185 35.007)" fill="#f7f6da" stroke="#000" stroke-miterlimit="10" stroke-width="1">
      <rect width="8.034" height="20.659" stroke="none"/>
      <rect x="0.5" y="0.5" width="7.034" height="19.659" fill="none"/>
    </g>
    <g id="Rectangle_Copy_2" data-name="Rectangle Copy 2" transform="translate(45.645 35.007)" fill="#f7f6da" stroke="#000" stroke-miterlimit="10" stroke-width="1">
      <rect width="8.034" height="20.659" stroke="none"/>
      <rect x="0.5" y="0.5" width="7.034" height="19.659" fill="none"/>
    </g>
    <path id="Stroke_43" data-name="Stroke 43" d="M0,4.024H22.8V0H0Z" transform="translate(30.847 51.868)" fill="#ededc2" stroke="#231f20" stroke-miterlimit="10" stroke-width="1"/>
    <path id="Stroke_51" data-name="Stroke 51" d="M0,0V3.158" transform="translate(37.595 29.542)" fill="none" stroke="#231f20" stroke-miterlimit="10" stroke-width="1"/>
    <path id="Stroke_54" data-name="Stroke 54" d="M0,0V3.158" transform="translate(42.179 29.542)" fill="none" stroke="#231f20" stroke-miterlimit="10" stroke-width="1"/>
    <path id="Stroke_57" data-name="Stroke 57" d="M0,0V3.158" transform="translate(47.436 29.542)" fill="none" stroke="#231f20" stroke-miterlimit="10" stroke-width="1"/>
    <path id="Stroke_60" data-name="Stroke 60" d="M17.781,0H0" transform="translate(59.682 40.468)" fill="none" stroke="#231f20" stroke-miterlimit="10" stroke-width="1"/>
    <path id="Stroke_63" data-name="Stroke 63" d="M0,5.365H17.435V0H0Z" transform="translate(59.682 35.104)" fill="none" stroke="#231f20" stroke-miterlimit="10" stroke-width="1"/>
    <path id="Stroke_65" data-name="Stroke 65" d="M0,15.423H17.435V0H0Z" transform="translate(59.682 40.468)" fill="#f7f6da" stroke="#231f20" stroke-miterlimit="10" stroke-width="1"/>
    <path id="Stroke_67" data-name="Stroke 67" d="M0,24.141H6.035V0H0Z" transform="translate(77.117 31.751)" fill="#ededc2" stroke="#231f20" stroke-miterlimit="10" stroke-width="1"/>
    <path id="Stroke_69" data-name="Stroke 69" d="M4.694,0C-.674,2.113.03,4.633.03,4.633a1.989,1.989,0,0,0,1.9,2.072H7.459a1.992,1.992,0,0,0,1.9-2.072S10.062,2.113,4.694,0Z" transform="translate(75.776 25.045)" fill="#f7f6da" stroke="#231f20" stroke-miterlimit="10" stroke-width="1"/>
    <path id="Stroke_71" data-name="Stroke 71" d="M0,2.452V0" transform="translate(80.256 22.528)" fill="none" stroke="#231f20" stroke-linecap="round" stroke-linejoin="round" stroke-miterlimit="10" stroke-width="1"/>
    <path id="Stroke_74" data-name="Stroke 74" d="M.718,0H2.632a1.807,1.807,0,0,1,.721,1.415V3.353H0V1.415A1.81,1.81,0,0,1,.718,0Z" transform="translate(70.411 44.492)" fill="#ededc2" stroke="#231f20" stroke-miterlimit="10" stroke-width="1"/>
    <path id="Stroke_76" data-name="Stroke 76" d="M0,4.024H3.353V0H0Z" transform="translate(70.411 51.868)" fill="#ededc2" stroke="#231f20" stroke-miterlimit="10" stroke-width="1"/>
    <path id="Stroke_78" data-name="Stroke 78" d="M.718,0H2.633a1.8,1.8,0,0,1,.719,1.415V3.353H0V1.415A1.8,1.8,0,0,1,.718,0Z" transform="translate(63.035 44.492)" fill="#ededc2" stroke="#231f20" stroke-miterlimit="10" stroke-width="1"/>
    <path id="Stroke_80" data-name="Stroke 80" d="M0,4.024H3.353V0H0Z" transform="translate(63.035 51.868)" fill="#ededc2" stroke="#231f20" stroke-miterlimit="10" stroke-width="1"/>
    <path id="Stroke_82" data-name="Stroke 82" d="M0,5.365H6.035V0H0Z" transform="translate(59.682 35.104)" fill="#fbffe9" stroke="#231f20" stroke-miterlimit="10" stroke-width="1"/>
    <path id="Stroke_84" data-name="Stroke 84" d="M0,5.365H5.365V0H0Z" transform="translate(65.717 35.104)" fill="#fbffe9" stroke="#231f20" stroke-miterlimit="10" stroke-width="1"/>
    <path id="Stroke_86" data-name="Stroke 86" d="M0,5.365H6.035V0H0Z" transform="translate(71.082 35.104)" fill="#fbffe9" stroke="#231f20" stroke-miterlimit="10" stroke-width="1"/>
    <path id="Stroke_88" data-name="Stroke 88" d="M0,0H17.781" transform="translate(7.376 40.468)" fill="none" stroke="#231f20" stroke-miterlimit="10" stroke-width="1"/>
    <path id="Stroke_91" data-name="Stroke 91" d="M0,15.423H17.435V0H0Z" transform="translate(7.376 40.468)" fill="#f7f6da" stroke="#231f20" stroke-miterlimit="10" stroke-width="1"/>
    <path id="Stroke_93" data-name="Stroke 93" d="M0,5.365H17.435V0H0Z" transform="translate(7.376 35.104)" fill="none" stroke="#231f20" stroke-miterlimit="10" stroke-width="1"/>
    <path id="Stroke_95" data-name="Stroke 95" d="M0,24.141H6.035V0H0Z" transform="translate(1.341 31.751)" fill="#ededc2" stroke="#231f20" stroke-miterlimit="10" stroke-width="1"/>
    <path id="Stroke_97" data-name="Stroke 97" d="M4.7,0c5.366,2.113,4.662,4.633,4.662,4.633a1.989,1.989,0,0,1-1.9,2.072H1.929A1.993,1.993,0,0,1,.03,4.633S-.672,2.113,4.7,0Z" transform="translate(0 25.045)" fill="#f7f6da" stroke="#231f20" stroke-miterlimit="10" stroke-width="1"/>
    <path id="Stroke_99" data-name="Stroke 99" d="M0,2.452V0" transform="translate(4.241 22.528)" fill="none" stroke="#231f20" stroke-linecap="round" stroke-linejoin="round" stroke-miterlimit="10" stroke-width="1"/>
    <path id="Stroke_102" data-name="Stroke 102" d="M2.637,0H.72A1.8,1.8,0,0,0,0,1.415V3.353H3.352V1.415A1.8,1.8,0,0,0,2.637,0Z" transform="translate(10.729 44.492)" fill="#ededc2" stroke="#231f20" stroke-miterlimit="10" stroke-width="1"/>
    <path id="Stroke_104" data-name="Stroke 104" d="M0,4.024H3.353V0H0Z" transform="translate(10.729 51.868)" fill="#ededc2" stroke="#231f20" stroke-miterlimit="10" stroke-width="1"/>
    <path id="Stroke_106" data-name="Stroke 106" d="M2.635,0H.72A1.8,1.8,0,0,0,0,1.415V3.353H3.352V1.415A1.8,1.8,0,0,0,2.635,0Z" transform="translate(18.106 44.492)" fill="#ededc2" stroke="#231f20" stroke-miterlimit="10" stroke-width="1"/>
    <path id="Stroke_108" data-name="Stroke 108" d="M0,4.024H3.353V0H0Z" transform="translate(18.106 51.868)" fill="#ededc2" stroke="#231f20" stroke-miterlimit="10" stroke-width="1"/>
    <path id="Stroke_110" data-name="Stroke 110" d="M0,5.365H6.035V0H0Z" transform="translate(7.376 35.104)" fill="#fbffe9" stroke="#231f20" stroke-miterlimit="10" stroke-width="1"/>
    <path id="Stroke_112" data-name="Stroke 112" d="M0,5.365H5.365V0H0Z" transform="translate(13.412 35.104)" fill="#fbffe9" stroke="#231f20" stroke-miterlimit="10" stroke-width="1"/>
    <path id="Stroke_114" data-name="Stroke 114" d="M0,5.365H6.035V0H0Z" transform="translate(18.776 35.104)" fill="#fbffe9" stroke="#231f20" stroke-miterlimit="10" stroke-width="1"/>
    <text id="Bangalore" transform="translate(6.378 77.291)" fill="#fff" font-size="14" font-family="Gotham-Book, Gotham"><tspan x="0" y="0">Bangalore</tspan></text>
  </g>
</svg>
