<svg id="burger_1_" data-name="burger (1)" xmlns="http://www.w3.org/2000/svg" width="20.439" height="22.938" viewBox="0 0 20.439 22.938">
  <defs>
    <style>
      .cls-1 {
        fill: #0aa5ae;
      }
    </style>
  </defs>
  <path id="burger_1_2" data-name="burger (1)" class="cls-1" d="M20.1,21.007h-.835a2.622,2.622,0,0,0,.784-1.865.789.789,0,0,0-.585-.754V17.72a.876.876,0,0,0-.012-.143.987.987,0,0,0,.325-.744,4.084,4.084,0,0,0-.038-.566.81.81,0,0,0,.08-.354,1.154,1.154,0,0,0-.061-.352.775.775,0,0,0,.291-.6,3.928,3.928,0,0,0-.841-2.21.354.354,0,0,0-.486-.066.332.332,0,0,0-.068.473,3.246,3.246,0,0,1,.7,1.8.111.111,0,0,1-.113.109H8.835a.111.111,0,0,1-.113-.109,3.266,3.266,0,0,1,.777-1.9,4.232,4.232,0,0,1,2.057-1.3.357.357,0,0,0,.084-.025,7.956,7.956,0,0,1,1.847-.291h0l.034,0c.168-.008.34-.012.517-.012a7.051,7.051,0,0,1,3.494.765.353.353,0,0,0,.475-.12.332.332,0,0,0-.124-.462,7.739,7.739,0,0,0-3.846-.858h-.16l.326-2.735h.144a.732.732,0,0,0,.741-.72V6.257a.731.731,0,0,0-.741-.72h-.7l-.17-.829a.61.61,0,0,0-.6-.483H8.875V1.45a.079.079,0,0,1,.047-.075l2-.721a.335.335,0,0,0,.2-.434.35.35,0,0,0-.446-.2l-2,.721a.757.757,0,0,0-.5.708V4.225H4.13a.61.61,0,0,0-.6.483l-.17.829h-.7a.732.732,0,0,0-.741.72V7.3a.732.732,0,0,0,.741.72h.144L4.353,21.007H1.335a.825.825,0,0,0-.835.812v.307a.825.825,0,0,0,.835.812H20.1a.825.825,0,0,0,.835-.812v-.307a.825.825,0,0,0-.835-.812ZM8.984,15.743H19.092a.542.542,0,0,1,.036.17.153.153,0,0,1-.063.127.82.82,0,0,1-.613.1,1.072,1.072,0,0,1-.4-.134,1.439,1.439,0,0,0-.745-.187,1.3,1.3,0,0,0-.724.207.664.664,0,0,1-.734,0,1.37,1.37,0,0,0-1.448,0,.664.664,0,0,1-.734,0,1.371,1.371,0,0,0-1.448,0,.664.664,0,0,1-.734,0,1.3,1.3,0,0,0-.724-.207,1.439,1.439,0,0,0-.745.187,1.073,1.073,0,0,1-.4.134.82.82,0,0,1-.613-.1.221.221,0,0,1-.028-.028h0a.146.146,0,0,1-.034-.1.555.555,0,0,1,.037-.17Zm9.479,1.331a.8.8,0,0,0-.555.226l-.694.687a.318.318,0,0,1-.423.018l-.9-.749a.793.793,0,0,0-.507-.182H9.119a.806.806,0,0,1-.105-.288s0,0,0-.006a1.8,1.8,0,0,0,.711.033,1.761,1.761,0,0,0,.621-.205.747.747,0,0,1,.42-.109.6.6,0,0,1,.367.111,1.371,1.371,0,0,0,1.448,0,.664.664,0,0,1,.734,0,1.37,1.37,0,0,0,1.448,0,.664.664,0,0,1,.734,0,1.37,1.37,0,0,0,1.448,0,.6.6,0,0,1,.367-.111.747.747,0,0,1,.42.109,1.761,1.761,0,0,0,.621.205,2.023,2.023,0,0,0,.285.021,1.648,1.648,0,0,0,.448-.06c0,.02,0,.04,0,.06a.33.33,0,0,1-.091.241Zm.31.675v.607h-.959l.589-.583a.085.085,0,0,1,.06-.024Zm-2.628.607H9.312v-.607h6.073a.086.086,0,0,1,.055.02Zm-7.31.675h10.41a.111.111,0,0,1,.113.11,1.988,1.988,0,0,1-1.342,1.866H10.065a1.988,1.988,0,0,1-1.342-1.866.111.111,0,0,1,.113-.11Zm-.023,1.975H8.079L8.041,19.4A2.627,2.627,0,0,0,8.812,21.007Zm.32-8.565c-.059.063-.116.127-.172.193a3.944,3.944,0,0,0-.932,2.324.775.775,0,0,0,.288.6,1.159,1.159,0,0,0-.062.354.81.81,0,0,0,.08.354,1.638,1.638,0,0,0,.21,1.185.841.841,0,0,0,.089.109.851.851,0,0,0-.015.159v.667a.793.793,0,0,0-.584.668L7.778,8.023H9.234Zm2.034-1.265a5.333,5.333,0,0,0-1.325.657l.088-3.81h1.456Zm2.012-.388a8.941,8.941,0,0,0-1.3.189l.205-2.954h1.426ZM2.662,7.348A.046.046,0,0,1,2.615,7.3V6.257a.046.046,0,0,1,.046-.045H4.83a.338.338,0,1,0,0-.675H4.071L4.2,4.9h8.61l.13.636h-6.5a.338.338,0,1,0,0,.675h7.905a.046.046,0,0,1,.046.045V7.3a.046.046,0,0,1-.046.045ZM7.384,21.007H6.529l-.9-12.984H7.083ZM3.505,8.023H4.931l.9,12.984h-.78Zm16.739,14.1a.139.139,0,0,1-.141.137H1.335a.139.139,0,0,1-.141-.137v-.307a.139.139,0,0,1,.141-.137H20.1a.139.139,0,0,1,.141.137v.307Zm0,0" transform="translate(-0.5 0)"/>
</svg>
