<svg xmlns="http://www.w3.org/2000/svg" width="60" height="60" viewBox="0 0 43.917 76.803">
  <g id="Group_776" data-name="Group 776" transform="translate(-842.5 -401.62)">
    <g id="Delhi" transform="translate(843 402.12)">
      <path id="Stroke_3" data-name="Stroke 3" d="M27.041,13.412h0a6.813,6.813,0,0,0-6.926-6.69,6.809,6.809,0,0,0-6.919,6.69H0V0H40.235V13.412Z" transform="translate(1.341 19.447)" fill="#0aa5ae" stroke="#231f20" stroke-linecap="round" stroke-linejoin="round" stroke-miterlimit="10" stroke-width="1"/>
      <path id="Fill_5" data-name="Fill 5" d="M28.344,5.7h4.514v5.7H0V5.7H4.516V2.246c2.364-.049,6.728-.3,8.562-1.207.249-.124.476-.278.7-.42L13.8.608A5.071,5.071,0,0,1,16.432,0a5.083,5.083,0,0,1,2.627.608l.018.01c.229.143.455.3.7.42,1.832.909,6.2,1.159,8.562,1.207V5.7Z" transform="translate(5.365)" fill="#acfaff"/>
      <path id="Stroke_7" data-name="Stroke 7" d="M28.344,5.7h4.514v5.7H0V5.7H4.516V2.246c2.364-.049,6.728-.3,8.562-1.207.249-.124.476-.278.7-.42L13.8.608A5.071,5.071,0,0,1,16.432,0a5.083,5.083,0,0,1,2.627.608l.018.01c.229.143.455.3.7.42,1.832.909,6.2,1.159,8.562,1.207V5.7Z" transform="translate(5.365)" fill="none" stroke="#231f20" stroke-linecap="round" stroke-linejoin="round" stroke-miterlimit="10" stroke-width="1"/>
      <path id="Fill_9" data-name="Fill 9" d="M4.024,2.013A2.012,2.012,0,1,1,2.014,0,2.013,2.013,0,0,1,4.024,2.013" transform="translate(7.376 23.471)" fill="#025458"/>
      <path id="Stroke_11" data-name="Stroke 11" d="M4.024,2.013A2.012,2.012,0,1,1,2.014,0,2.013,2.013,0,0,1,4.024,2.013Z" transform="translate(7.376 23.471)" fill="none" stroke="#231f20" stroke-linecap="round" stroke-linejoin="round" stroke-miterlimit="10" stroke-width="1"/>
      <path id="Fill_13" data-name="Fill 13" d="M4.024,2.013A2.012,2.012,0,1,1,2.011,0,2.013,2.013,0,0,1,4.024,2.013" transform="translate(30.847 23.471)" fill="#025458"/>
      <path id="Stroke_15" data-name="Stroke 15" d="M4.024,2.013A2.012,2.012,0,1,1,2.011,0,2.013,2.013,0,0,1,4.024,2.013Z" transform="translate(30.847 23.471)" fill="none" stroke="#231f20" stroke-linecap="round" stroke-linejoin="round" stroke-miterlimit="10" stroke-width="1"/>
      <path id="Fill_17" data-name="Fill 17" d="M40.235,3.019a.97.97,0,0,1-.932,1H.931a.968.968,0,0,1-.931-1V1.006A.97.97,0,0,1,.931,0H39.3a.971.971,0,0,1,.932,1.006Z" transform="translate(1.341 11.399)" fill="#0aa5ae"/>
      <path id="Stroke_19" data-name="Stroke 19" d="M40.235,3.019a.97.97,0,0,1-.932,1H.931a.968.968,0,0,1-.931-1V1.006A.97.97,0,0,1,.931,0H39.3a.971.971,0,0,1,.932,1.006Z" transform="translate(1.341 11.399)" fill="none" stroke="#231f20" stroke-linecap="round" stroke-linejoin="round" stroke-miterlimit="10" stroke-width="1"/>
      <path id="Fill_21" data-name="Fill 21" d="M42.917,3.671A.975.975,0,0,1,42,4.694H.925A.977.977,0,0,1,0,3.671V1.023A.979.979,0,0,1,.925,0H42a.976.976,0,0,1,.922,1.023Z" transform="translate(0 14.753)" fill="#0aa5ae"/>
      <path id="Stroke_23" data-name="Stroke 23" d="M42.917,3.671A.975.975,0,0,1,42,4.694H.925A.977.977,0,0,1,0,3.671V1.023A.979.979,0,0,1,.925,0H42a.976.976,0,0,1,.922,1.023Z" transform="translate(0 14.753)" fill="none" stroke="#231f20" stroke-linecap="round" stroke-linejoin="round" stroke-miterlimit="10" stroke-width="1"/>
      <path id="Fill_25" data-name="Fill 25" d="M16.094,1.859a.874.874,0,0,1-.916.823H.918A.874.874,0,0,1,0,1.859V.82A.875.875,0,0,1,.918,0H15.178a.874.874,0,0,1,.916.82Z" transform="translate(0 32.858)" fill="#025458"/>
      <path id="Stroke_27" data-name="Stroke 27" d="M16.094,1.859a.874.874,0,0,1-.916.823H.918A.874.874,0,0,1,0,1.859V.82A.875.875,0,0,1,.918,0H15.178a.874.874,0,0,1,.916.82Z" transform="translate(0 32.858)" fill="none" stroke="#231f20" stroke-linecap="round" stroke-linejoin="round" stroke-miterlimit="10" stroke-width="1"/>
      <path id="Fill_29" data-name="Fill 29" d="M16.094,1.859a.871.871,0,0,1-.916.823H.913A.871.871,0,0,1,0,1.859V.82A.872.872,0,0,1,.913,0H15.178a.872.872,0,0,1,.916.82Z" transform="translate(26.823 32.858)" fill="#025458"/>
      <path id="Stroke_31" data-name="Stroke 31" d="M16.094,1.859a.871.871,0,0,1-.916.823H.913A.871.871,0,0,1,0,1.859V.82A.872.872,0,0,1,.913,0H15.178a.872.872,0,0,1,.916.82Z" transform="translate(26.823 32.858)" fill="none" stroke="#231f20" stroke-linecap="round" stroke-linejoin="round" stroke-miterlimit="10" stroke-width="1"/>
      <path id="Fill_33" data-name="Fill 33" d="M0,20.788H13.412V0H0Z" transform="translate(28.165 35.541)" fill="#0aa5ae"/>
      <path id="Stroke_35" data-name="Stroke 35" d="M0,20.788H13.412V0H0Z" transform="translate(28.165 35.541)" fill="none" stroke="#231f20" stroke-linecap="round" stroke-linejoin="round" stroke-miterlimit="10" stroke-width="1"/>
      <path id="Fill_36" data-name="Fill 36" d="M0,20.788H13.412V0H0Z" transform="translate(1.341 35.541)" fill="#0aa5ae"/>
      <path id="Stroke_37" data-name="Stroke 37" d="M0,20.788H13.412V0H0Z" transform="translate(1.341 35.541)" fill="none" stroke="#231f20" stroke-linecap="round" stroke-linejoin="round" stroke-miterlimit="10" stroke-width="1"/>
      <path id="Stroke_39" data-name="Stroke 39" d="M13.348,9.726h-.632a.9.9,0,0,1-.9-.91V7.669a1.051,1.051,0,0,1,.9-1.063h.7A6.624,6.624,0,0,0,6.687,0,6.594,6.594,0,0,0,0,6.606H.662a1.053,1.053,0,0,1,.9,1.063V8.816a.9.9,0,0,1-.9.91H0V30.176H13.348Z" transform="translate(14.753 26.153)" fill="#025458" stroke="#231f20" stroke-linecap="round" stroke-linejoin="round" stroke-miterlimit="10" stroke-width="1"/>
      <path id="Fill_40" data-name="Fill 40" d="M0,0H39.564" transform="translate(1.341 55.658)" fill="#fff"/>
    </g>
    <g id="Delhi-2" data-name="Delhi" transform="translate(847 462.423)">
      <text id="Delhi-3" data-name="Delhi" transform="translate(0 13)" fill="#0aa5ae" font-size="14" font-family="Gotham-Book, Gotham"><tspan x="0" y="0">Delhi</tspan></text>
    </g>
  </g>
</svg>
