<svg xmlns="http://www.w3.org/2000/svg" width="27" height="18.226" viewBox="0 0 27 18.226">
  <path id="Icon_zocial-email" data-name="Icon zocial-email" d="M.072,20.679v-15q0-.026.078-.495l8.826,7.551L.176,21.2a2.207,2.207,0,0,1-.1-.521ZM1.244,4.146a1.122,1.122,0,0,1,.443-.078H25.458a1.474,1.474,0,0,1,.469.078l-8.852,7.577L15.9,12.66l-2.317,1.9-2.317-1.9L10.1,11.723ZM1.27,22.216,10.148,13.7l3.437,2.786L17.022,13.7,25.9,22.216a1.25,1.25,0,0,1-.443.078H1.686a1.179,1.179,0,0,1-.417-.078Zm16.924-9.477,8.8-7.551a1.554,1.554,0,0,1,.078.495v15a2,2,0,0,1-.078.521Z" transform="translate(-0.072 -4.068)" fill="#0aa5ae"/>
</svg>
