<svg xmlns="http://www.w3.org/2000/svg" width="402.721" height="343.189" viewBox="0 0 402.721 343.189">
  <g id="Group_935" data-name="Group 935" transform="translate(-758.004 -577.412)">
    <g id="Background_Complete" data-name="Background Complete" transform="translate(758.004 577.412)" opacity="0.2">
      <path id="Path_12952" data-name="Path 12952" d="M212.667,198.989l.441-12.884-7.9-2.589a77.654,77.654,0,0,0-2.118-12.943l6.707-4.9-4.55-12.1-8.3.667a76.648,76.648,0,0,0-6.864-11.129l4.295-7.167-8.825-9.423-7.413,3.795a80.186,80.186,0,0,0-10.648-7.687l1.2-8.236-11.766-5.334-5.393,6.314a79.086,79.086,0,0,0-12.747-2.942l-1.961-8.07L123.9,103.92l-2.549,7.913a78.911,78.911,0,0,0-12.933,2.108l-4.981-6.667-12.1,4.52.667,8.3a78.57,78.57,0,0,0-11.129,6.932l-7.216-4.393L64.2,131.452l3.795,7.452a76.1,76.1,0,0,0-7.648,10.629L52.12,148.3l-5.373,11.766,6.354,5.383a77.007,77.007,0,0,0-2.942,12.746l-8.168,2.049-.441,12.884,7.942,2.589A75.891,75.891,0,0,0,51.6,208.647l-6.707,4.9,4.559,12.109,8.3-.667a75.5,75.5,0,0,0,6.864,11.129l-4.3,7.167,8.825,9.423,7.413-3.795a79.167,79.167,0,0,0,10.629,7.677l-1.235,8.226L97.7,270.164l5.422-6.314a80.132,80.132,0,0,0,12.747,2.991l1.961,8.07,12.923.441,2.549-7.913a79.915,79.915,0,0,0,12.943-2.108l4.9,6.667,12.1-4.52-.628-8.3a81.808,81.808,0,0,0,11.129-6.932l7.128,4.295,9.462-8.824-3.795-7.452a75.874,75.874,0,0,0,7.648-10.629l8.226,1.235,5.373-11.766-6.354-5.393a75.756,75.756,0,0,0,2.991-12.747Zm-87.059,41.74a51.143,51.143,0,1,1,52.839-49.349A51.143,51.143,0,0,1,125.608,240.729Z" transform="translate(-41.55 -78.061)" fill="#ebebeb"/>
      <path id="Path_12953" data-name="Path 12953" d="M440.044,156.373l3.245-3.03L442,150.784a27.07,27.07,0,0,0,2.638-3.667l2.843.422,1.834-4.059-2.177-1.853a26.312,26.312,0,0,0,1.029-4.4l2.794-.7.137-4.451-2.726-.882a27.773,27.773,0,0,0-.726-4.471l2.3-1.716-1.569-4.167-2.853.226a27.716,27.716,0,0,0-2.383-3.844l1.48-2.451-3.049-3.255-2.549,1.3a27.691,27.691,0,0,0-3.667-2.638l.412-2.843-4.049-1.853-1.863,2.187a27.284,27.284,0,0,0-4.4-.98l-.7-2.785-4.451-.167-.892,2.745a26.475,26.475,0,0,0-4.452.726l-1.706-2.3-4.177,1.559.235,2.863a26.066,26.066,0,0,0-3.844,2.383l-2.471-1.481-3.255,3.03,1.265,2.5a26.081,26.081,0,0,0-2.647,3.667l-2.834-.422-1.843,4.059,2.187,1.863a25.991,25.991,0,0,0-.981,4.393l-2.8.7-.137,4.451,2.736.882a26.7,26.7,0,0,0,.716,4.471l-2.314,1.706,1.569,4.167,2.863-.216a27.7,27.7,0,0,0,2.383,3.844l-1.481,2.451,3.049,3.255,2.549-1.3a26.815,26.815,0,0,0,3.667,2.638l-.422,2.834,4.059,1.853,1.863-2.177a28.375,28.375,0,0,0,4.4.981l.7,2.785,4.451.167.892-2.745a26.333,26.333,0,0,0,4.452-.726l1.706,2.3,4.177-1.559-.226-2.863a26.167,26.167,0,0,0,3.834-2.383Zm-23.159-18.757a5.8,5.8,0,1,1-.039,0Z" transform="translate(-48.383 -78.057)" fill="#ebebeb"/>
      <path id="Path_12954" data-name="Path 12954" d="M317.364,291.192l-10.138-7.011h0a55.154,55.154,0,0,0-4.079-10.56l2.6-10.2-14.708-15.747-10.354,1.892a55.2,55.2,0,0,0-10.266-4.795h0l-6.295-10.6-21.571-.735-7,10.138h0A55.425,55.425,0,0,0,225,247.648l-10.2-2.6-15.747,14.708,1.892,10.335h0a55.134,55.134,0,0,0-4.785,10.285l-10.6,6.295-.735,21.571,10.148,7a53.683,53.683,0,0,0,4.069,10.609h0l-2.628,10.109,14.708,15.747,10.285-1.883a56.074,56.074,0,0,0,10.335,4.8h0l6.285,10.58,21.571.745,6.991-10.138a55.962,55.962,0,0,0,10.648-4.079h0l10.138,2.589,15.757-14.708-1.892-10.334a54.32,54.32,0,0,0,4.785-10.3h0l10.6-6.295Zm-67.115,32.739a25.105,25.105,0,1,0-.01,0Z" transform="translate(-44.344 -80.586)" fill="#ebebeb"/>
      <path id="Path_12955" data-name="Path 12955" d="M342.337,227.838h-.069l-16.982-.578a2.039,2.039,0,0,1-1.706-.981l-4.579-7.7a46.9,46.9,0,0,1-7.138-3.314l-7.324,1.265a2.059,2.059,0,0,1-1.883-.628l-11.6-12.413a2.059,2.059,0,0,1-.49-1.961l1.853-7.266a44.563,44.563,0,0,1-2.8-7.324l-7.383-5.1a2.059,2.059,0,0,1-.892-1.775l.578-16.982a2.1,2.1,0,0,1,.981-1.706l7.716-4.579a44.44,44.44,0,0,1,3.3-7.109l-1.353-7.383a2.069,2.069,0,0,1,.628-1.892l12.413-11.59a2.069,2.069,0,0,1,1.961-.5l7.295,1.863a44.941,44.941,0,0,1,7.3-2.814l5.1-7.383a1.961,1.961,0,0,1,1.775-.892l16.972.588a2.069,2.069,0,0,1,1.716.981l4.579,7.707a45.5,45.5,0,0,1,7.079,3.314l7.413-1.363a2.049,2.049,0,0,1,1.883.628l11.6,12.413a2.079,2.079,0,0,1,.49,1.961l-1.863,7.285a45.676,45.676,0,0,1,2.824,7.3l7.374,5.1a2.059,2.059,0,0,1,.892,1.775l-.579,16.972a2.118,2.118,0,0,1-.98,1.716l-7.717,4.579a45.593,45.593,0,0,1-3.3,7.1l1.353,7.393a2.049,2.049,0,0,1-.628,1.883l-12.492,11.6a2.059,2.059,0,0,1-1.961.49l-7.256-1.853a46.559,46.559,0,0,1-7.344,2.814l-5.05,7.373A2.088,2.088,0,0,1,342.337,227.838Zm-15.776-4.677,14.707.5,4.9-7.05a1.961,1.961,0,0,1,1.167-.824,42.983,42.983,0,0,0,7.991-3.069h0a2.118,2.118,0,0,1,1.432-.147l6.864,1.755,10.785-10.05-1.235-7.089a2.049,2.049,0,0,1,.255-1.441,40.765,40.765,0,0,0,3.579-7.677,2.089,2.089,0,0,1,.922-1.157l7.383-4.373.5-14.708-7.06-4.9a2.068,2.068,0,0,1-.794-1.049v-.167a42.165,42.165,0,0,0-3.059-7.844,2.069,2.069,0,0,1-.157-1.451l1.765-6.942-10.05-10.786-7.05,1.294a2.088,2.088,0,0,1-1.431-.255,41.474,41.474,0,0,0-7.687-3.6,2.236,2.236,0,0,1-.441-.2,2.059,2.059,0,0,1-.686-.706l-4.422-7.4-14.708-.51-4.9,7.069a2.118,2.118,0,0,1-1.216.833,41.8,41.8,0,0,0-7.9,3.049,2.04,2.04,0,0,1-1.441.157l-6.942-1.765-10.786,10.05,1.294,7.03a2.138,2.138,0,0,1-.186,1.3l-.1.167a40.744,40.744,0,0,0-3.579,7.707,2.079,2.079,0,0,1-.9,1.1l-7.383,4.383-.5,14.708,7.069,4.9a2.059,2.059,0,0,1,.824,1.157,40.709,40.709,0,0,0,3.049,7.962,2.486,2.486,0,0,1,.167.451,2.193,2.193,0,0,1,0,.981l-1.765,6.863,10.05,10.786,7-1.284a2.059,2.059,0,0,1,1.422.255,42.413,42.413,0,0,0,7.736,3.6,1.961,1.961,0,0,1,1.147.912Zm24.3-92.961ZM335.65,204.56h-1.088a30.915,30.915,0,1,1,1.088,0Zm0-57.938a27.013,27.013,0,1,0,.932,0Z" transform="translate(-46.226 -78.356)" fill="#ebebeb"/>
      <path id="Path_12956" data-name="Path 12956" d="M383.263,105.088l-7.04-1.883-1.883-7.04L377.1,93.42l2.9,6.01,6.02,2.912Z" transform="translate(-48.039 -77.856)" fill="#e0e0e0"/>
      <path id="Path_12957" data-name="Path 12957" d="M383.788,100.323a3.279,3.279,0,0,0-4.638-4.638l3.5-5.255,4.687,2.373,1.029,4.9Z" transform="translate(-48.133 -77.798)" fill="#e0e0e0"/>
      <path id="Path_12958" data-name="Path 12958" d="M376.58,93.9l5.157-5.157,7.02,1.873,1.892,7.03-5.157,5.157-7.03-1.892Zm9.364,4.216a2.324,2.324,0,1,1,0-.02Z" transform="translate(-48.083 -77.765)" fill="#f0f0f0"/>
      <path id="Path_12959" data-name="Path 12959" d="M90.191,296.585l3.775-1.02,1.01-3.775L93.5,290.32l-1.559,3.226L88.71,295.1Z" transform="translate(-42.47 -81.695)" fill="#e0e0e0"/>
      <path id="Path_12960" data-name="Path 12960" d="M89.95,294.025a1.765,1.765,0,0,1,2.49-2.49l-1.873-2.814-2.579,1.255-.549,2.647Z" transform="translate(-42.445 -81.664)" fill="#e0e0e0"/>
      <path id="Path_12961" data-name="Path 12961" d="M93.75,290.565,90.985,287.8l-3.775.98-.98,3.775,2.716,2.794,3.775-.981Zm-5.02,2.265a1.765,1.765,0,1,1,2.411-.08A1.765,1.765,0,0,1,88.73,292.83Z" transform="translate(-42.421 -81.646)" fill="#f0f0f0"/>
      <path id="Path_12962" data-name="Path 12962" d="M76.348,85.59l3.138,3.138a2.1,2.1,0,0,0,2.941,0h0a2.108,2.108,0,0,0,0-2.942L79.3,82.658a2.108,2.108,0,0,0-2.941,0h0A2.1,2.1,0,0,0,76.348,85.59Z" transform="translate(-42.217 -77.634)" fill="#f0f0f0"/>
      <path id="Path_12963" data-name="Path 12963" d="M74.047,77.707a4.363,4.363,0,1,1-2.941,5.667,4.5,4.5,0,0,1,2.941-5.667Z" transform="translate(-42.122 -77.546)" fill="#e0e0e0"/>
      <rect id="Rectangle_3288" data-name="Rectangle 3288" width="1.343" height="9.903" transform="translate(28.967 6.567) rotate(-109.76)" fill="#f0f0f0"/>
    </g>
    <g id="Shadow" transform="translate(772.28 898.402)">
      <ellipse id="_Path_" data-name="&lt;Path&gt;" cx="190.109" cy="11.099" rx="190.109" ry="11.099" fill="#f5f5f5" opacity="0.2"/>
    </g>
    <path id="Path_12969" data-name="Path 12969" d="M222.45,303.7c1.363-21.963-1.137-61.9,40.152-56.6,44.25,5.658,31.592,57.408,31.592,57.408Z" transform="translate(712.927 496.569)" fill="#263238"/>
    <circle id="Ellipse_243" data-name="Ellipse 243" cx="18.022" cy="18.022" r="18.022" transform="translate(945.849 751.033)" fill="#fff"/>
    <path id="Path_12970" data-name="Path 12970" d="M253.561,254.646c-8.54-1.451-17.649,4.834-18.561,11.207l33.837,3.118C267.641,261.705,260.326,255.8,253.561,254.646Z" transform="translate(712.682 496.417)" fill="#263238"/>
    <path id="Path_12971" data-name="Path 12971" d="M265.368,272.364c-.245,4.716-2.814,8.413-5.736,8.256s-5.1-4.089-4.9-8.825,2.814-8.413,5.736-8.256S265.6,267.658,265.368,272.364Z" transform="translate(712.298 496.24)" fill="#263238"/>
    <path id="Path_12972" data-name="Path 12972" d="M251.132,291.624a19,19,0,1,1,19-19A19,19,0,0,1,251.132,291.624Zm0-36.033a17.041,17.041,0,1,0,17.041,17.031,17.041,17.041,0,0,0-17.041-17.031Z" transform="translate(712.738 496.433)" fill="#0aa5ae"/>
    <path id="Path_12973" data-name="Path 12973" d="M290.478,303.722h-.118a.48.48,0,0,1-.363-.588c0-.127,3.157-13.423-.088-26.866a.5.5,0,0,1,.98-.235c3.3,13.727.118,27.2.088,27.327A.49.49,0,0,1,290.478,303.722Z" transform="translate(711.611 496.004)" fill="#fff" opacity="0.3"/>
    <path id="Path_12974" data-name="Path 12974" d="M287.6,268.589a.51.51,0,0,1-.451-.284,34.245,34.245,0,0,0-4.648-7.511.492.492,0,1,1,.765-.618,35.756,35.756,0,0,1,4.775,7.717.48.48,0,0,1-.235.647A.528.528,0,0,1,287.6,268.589Z" transform="translate(711.758 496.309)" fill="#fff" opacity="0.3"/>
    <path id="Path_12975" data-name="Path 12975" d="M128.628,409.164h-.363a4.9,4.9,0,1,1,.275-9.8h.088c2.834,0,9.648-3.442,23.9-25.915a4.9,4.9,0,0,1,7.364-1.069,203.42,203.42,0,0,0,36.416,24.983,4.9,4.9,0,1,1-4.432,8.736,208.6,208.6,0,0,1-34.121-22.689C145.806,401.4,136.943,409.164,128.628,409.164Z" transform="translate(714.856 494.141)" fill="#263238"/>
    <path id="Path_12976" data-name="Path 12976" d="M159.481,370.414h-.422a2.942,2.942,0,0,1-2.49-3.324c.7-4.9-.167-23.169-6.354-37.386a2.942,2.942,0,0,1,1.039-3.608c13.433-9.148,42.044-10.246,43.26-10.285a2.943,2.943,0,1,1,.2,5.883c-.265,0-25.277.98-38.122,8.04,5.471,14.158,6.716,31.8,5.8,38.181A2.941,2.941,0,0,1,159.481,370.414Z" transform="translate(714.34 495.221)" fill="#263238"/>
    <path id="Path_12977" data-name="Path 12977" d="M164.255,367.555c-1.961-4.618-10.786-4.1-15.953-.137-2.765,2.108-6.511,8.472-6.864,10.786a3.471,3.471,0,0,0,3.922,4.157c3.383-.294,8.02-5.206,8.02-5.206-3.089,3.03.9,5.167,6.864.784C163.5,375.5,166.441,372.722,164.255,367.555Z" transform="translate(714.508 494.275)" fill="#0aa5ae"/>
    <path id="Path_12978" data-name="Path 12978" d="M336.7,305.549a.316.316,0,0,1-.137,0,.48.48,0,0,1-.333-.608c1.3-4.55,2.726-7.324,4.6-8.825a5.08,5.08,0,0,1,.157-3.2,6.325,6.325,0,0,1,2.314-2.942,2.491,2.491,0,0,1-.578-2.334,6.059,6.059,0,0,1,2.1-3.1,2.2,2.2,0,0,1-.559-1.481c0-2.941,5.4-7.373,11.531-8.217a.5.5,0,0,1,.137.981c-5.824.794-10.707,5.01-10.687,7.236a1.285,1.285,0,0,0,.353.892,12,12,0,0,1,9.1-1.834c3.01.578,4.236,1.216,4.1,2.128-.274,1.716-6.677,2.079-10.972,1.569a6.06,6.06,0,0,1-2.206-.637,5.275,5.275,0,0,0-1.961,2.677,1.539,1.539,0,0,0,.48,1.608c1.824-.98,4.383-1.333,7.766-.588,4.442.98,4.608,1.52,4.716,1.843a.657.657,0,0,1-.167.657c-.931.98-7.746.52-11.168-.324a4.813,4.813,0,0,1-1.186-.441,5.344,5.344,0,0,0-2.216,2.657,4.147,4.147,0,0,0-.225,2.255,5.64,5.64,0,0,1,.539-.284c2.03-.98,4.481-.8,7.511.49,1.961.853,2.942,1.618,3.04,2.392a1.1,1.1,0,0,1-.559.98c-1.5.98-6.736.843-9.462-.608a3.922,3.922,0,0,1-1.51-1.461c-1.6,1.471-2.893,4.089-4.069,8.2a.5.5,0,0,1-.441.314Zm5.314-9.148a2.942,2.942,0,0,0,1.2,1.2c2.216,1.177,6.569,1.441,8.2.784.333-.137.382-.245.382-.245s-.049-.549-2.451-1.579c-2.745-1.177-4.9-1.343-6.7-.51a5.672,5.672,0,0,0-.628.353Zm3.275-6.442.245.069a32.446,32.446,0,0,0,9.746.735,21.275,21.275,0,0,0-3.569-.98A11.158,11.158,0,0,0,345.289,289.959Zm1.235-5.51a5.8,5.8,0,0,0,1.4.314c4.9.578,9.207-.1,9.8-.716-.167-.147-.824-.569-3.255-1.029A11.03,11.03,0,0,0,346.525,284.449Z" transform="translate(710.709 496.02)" fill="#263238"/>
    <path id="Path_12979" data-name="Path 12979" d="M205.437,408.214c.647-.206.431-.833-.294-.833H191.867c-25.277-2.677-42.936.912-31.807,1.755s-.784.667-8.913,3.746,60.448,3.853,66.674,0C223.547,409.332,196.475,411.087,205.437,408.214Z" transform="translate(714.33 493.453)" fill="#263238"/>
    <path id="Path_12980" data-name="Path 12980" d="M301.078,409.937l-115.5-3.834L180.78,294.11l136.4,3.049Z" transform="translate(713.739 495.644)" fill="#0aa5ae"/>
    <path id="Path_12981" data-name="Path 12981" d="M222.256,407.794a.49.49,0,0,1-.49-.451L212.51,294.859a.5.5,0,0,1,.451-.53.51.51,0,0,1,.529.451l9.3,112.483a.49.49,0,0,1-.451.529Z" transform="translate(713.12 495.639)" fill="#263238"/>
    <path id="Path_12982" data-name="Path 12982" d="M303.47,410l31.043-4.726,9.776-104.139L319.57,297.22Z" transform="translate(711.347 495.583)" fill="#407bff"/>
    <path id="Path_12983" data-name="Path 12983" d="M303.47,410l31.043-4.726,9.776-104.139L319.57,297.22Z" transform="translate(711.347 495.583)" fill="#068e8e"/>
    <path id="Path_12984" data-name="Path 12984" d="M195.673,384.747,192.83,318.2a12.031,12.031,0,0,1,12.286-12.541l86.343,1.961A12.031,12.031,0,0,1,303.1,321.348l-9.57,67.008A12.031,12.031,0,0,1,281.242,398.7l-73.92-2.451A12.031,12.031,0,0,1,195.673,384.747Z" transform="translate(713.505 495.418)" fill="#263238"/>
    <path id="Path_12985" data-name="Path 12985" d="M205.24,326.49l13.354.422-.108,3.442-8.364-.265-.078,2.569,7.756.245-.108,3.294-7.756-.255-.1,3.187,8.6.275-.118,3.647-13.6-.431Z" transform="translate(713.272 495.012)" fill="#fff"/>
    <path id="Path_12986" data-name="Path 12986" d="M221.4,343.149l.51-16.129,8.315.265a11.982,11.982,0,0,1,3.52.51,3.736,3.736,0,0,1,1.961,1.53,4.55,4.55,0,0,1-1.608,6.461,6.038,6.038,0,0,1-1.775.588,5.018,5.018,0,0,1,1.284.628,5.4,5.4,0,0,1,.765.882,6.3,6.3,0,0,1,.667.98l2.265,4.755-5.628-.186-2.51-5.01a3.863,3.863,0,0,0-.863-1.275,2.177,2.177,0,0,0-1.206-.412h-.441l-.206,6.54Zm5.314-9.432,2.1.069a8.464,8.464,0,0,0,1.324-.186,1.323,1.323,0,0,0,.833-.48,1.54,1.54,0,0,0,.343-.922,1.51,1.51,0,0,0-.461-1.216,3.039,3.039,0,0,0-1.843-.48l-2.2-.069Z" transform="translate(712.947 495.002)" fill="#fff"/>
    <path id="Path_12987" data-name="Path 12987" d="M239.28,343.679l.51-16.129,8.3.265a11.921,11.921,0,0,1,3.52.51,3.7,3.7,0,0,1,1.961,1.53,4.721,4.721,0,0,1-1.6,6.461,6.151,6.151,0,0,1-1.775.588,4.9,4.9,0,0,1,1.275.628,4.743,4.743,0,0,1,.775.873,6.734,6.734,0,0,1,.667.98l2.265,4.746-5.628-.177-2.51-5.01a3.921,3.921,0,0,0-.863-1.275,2.038,2.038,0,0,0-1.216-.412h-.431l-.216,6.55Zm5.3-9.432,2.108.059a7.067,7.067,0,0,0,1.324-.176,1.285,1.285,0,0,0,.824-.48,1.432,1.432,0,0,0,.343-.922,1.49,1.49,0,0,0-.451-1.216,2.942,2.942,0,0,0-1.853-.48l-2.187-.069Z" transform="translate(712.599 494.991)" fill="#fff"/>
    <path id="Path_12988" data-name="Path 12988" d="M256.319,336.2a7.638,7.638,0,0,1,8.589-8.089,8.433,8.433,0,0,1,6.138,2.363,8.158,8.158,0,0,1,1.961,6.128,10.012,10.012,0,0,1-1.1,4.608,6.863,6.863,0,0,1-2.844,2.726,9.04,9.04,0,0,1-4.52.863,10.373,10.373,0,0,1-4.491-.98,6.863,6.863,0,0,1-2.8-2.843,9.03,9.03,0,0,1-.932-4.775Zm4.981.176a5.452,5.452,0,0,0,.794,3.54,3.451,3.451,0,0,0,4.961.186,6.011,6.011,0,0,0,.981-3.726,5.07,5.07,0,0,0-.814-3.363,3.157,3.157,0,0,0-2.392-1.088,3.039,3.039,0,0,0-2.461.981,5.451,5.451,0,0,0-1.069,3.471Z" transform="translate(712.267 494.981)" fill="#fff"/>
    <path id="Path_12989" data-name="Path 12989" d="M275.91,344.889l.51-16.139,8.3.265a12.266,12.266,0,0,1,3.52.51,3.794,3.794,0,0,1,1.961,1.53,4.4,4.4,0,0,1,.667,2.638,4.334,4.334,0,0,1-2.265,3.834,6.481,6.481,0,0,1-1.775.578,4.9,4.9,0,0,1,1.275.637,4.746,4.746,0,0,1,.775.873,6.315,6.315,0,0,1,.667.98l2.265,4.755-5.628-.176-2.51-5.02a3.832,3.832,0,0,0-.863-1.265,2.118,2.118,0,0,0-1.216-.422h-.432l-.216,6.55Zm5.3-9.442,2.108.069a7.068,7.068,0,0,0,1.324-.177,1.324,1.324,0,0,0,.824-.48,1.452,1.452,0,0,0,.343-.98,1.471,1.471,0,0,0-.451-1.206,2.942,2.942,0,0,0-1.853-.48l-2.187-.069Z" transform="translate(711.885 494.968)" fill="#fff"/>
    <path id="Path_12990" data-name="Path 12990" d="M282.44,372.848a1.294,1.294,0,0,1-.98-.422l-8.393-9.187-9.06,8.275a1.284,1.284,0,0,1-1.814-.078l-8.393-9.187-9.06,8.275a1.284,1.284,0,0,1-1.814-.078l-8.4-9.187-9.05,8.275a1.3,1.3,0,0,1-.98.333,1.324,1.324,0,0,1-.892-.422l-8.393-9.177-9.05,8.266a1.294,1.294,0,0,1-1.824-.078,1.275,1.275,0,0,1,.088-1.814l10-9.148a1.294,1.294,0,0,1,1.824.078l8.393,9.187,9.05-8.275a1.343,1.343,0,0,1,.931-.333,1.3,1.3,0,0,1,.892.422l8.393,9.187,9.06-8.275a1.275,1.275,0,0,1,1.814.078l8.393,9.187,9.06-8.276a1.285,1.285,0,0,1,1.814.078l9.374,10.178a1.294,1.294,0,0,1-.981,2.157Z" transform="translate(713.287 494.414)" fill="#fff"/>
    <path id="Path_12991" data-name="Path 12991" d="M125.519,414.017l-6.138-2.932-5.471-26.64,2.971-3.265Z" transform="translate(715.043 493.945)" fill="#0aa5ae"/>
    <path id="Path_12992" data-name="Path 12992" d="M125.578,414.017l8.148-4.765-6.981-21.944-9.805-6.128Z" transform="translate(714.984 493.945)" fill="#407bff"/>
    <path id="Path_12993" data-name="Path 12993" d="M125.578,414.017l8.148-4.765-6.981-21.944-9.805-6.128Z" transform="translate(714.984 493.945)" fill="#068e8e"/>
    <path id="Path_12994" data-name="Path 12994" d="M261.892,419.1h-.677a4.9,4.9,0,0,1,.265-9.805c7.55.245,23.532-4.393,32.67-13.256a4.9,4.9,0,0,1,1.961-1.177c15.482-4.648,21.238,4.736,21.473,5.138l-8.432,4.991a.975.975,0,0,0,.108.176c-.088-.127-2.285-2.941-9.266-1.216C288.532,414.406,270.942,419.1,261.892,419.1Z" transform="translate(712.264 493.704)" fill="#263238"/>
    <path id="Path_12995" data-name="Path 12995" d="M261.007,425.573l-17.855-1.118-1.4-32.925,23.993.892Z" transform="translate(712.551 493.744)" fill="#0aa5ae"/>
    <path id="Path_12996" data-name="Path 12996" d="M261.39,425.591l4.177-4.157,2.589-20.522-2.03-8.471Z" transform="translate(712.168 493.727)" fill="#407bff"/>
    <path id="Path_12997" data-name="Path 12997" d="M261.39,425.591l4.177-4.157,2.589-20.522-2.03-8.471Z" transform="translate(712.168 493.727)" fill="#068e8e"/>
    <path id="Path_12998" data-name="Path 12998" d="M366.187,411.788a2.941,2.941,0,0,1-1.775-.6c-10.2-7.746-23.973-21.5-29.258-34.769a2.59,2.59,0,0,1-.167-.6c-2.579-15.335-5.04-47.6-5.148-48.966a2.95,2.95,0,0,1,5.883-.441c0,.324,2.52,32.906,5.03,48.113,5.275,12.9,19.61,26.15,27.238,31.974a2.942,2.942,0,0,1-1.785,5.285Z" transform="translate(710.833 495.066)" fill="#263238"/>
    <path id="Path_12999" data-name="Path 12999" d="M380.6,414.883c-2.275,0-4.854-1.029-7.668-3.059a2.942,2.942,0,0,1,3.451-4.765c2.432,1.755,3.755,1.961,4.216,1.961a2.941,2.941,0,0,1,0,5.883Z" transform="translate(710.017 493.452)" fill="#263238"/>
    <path id="Path_13000" data-name="Path 13000" d="M373.8,411.7c3.147-9.344,16.051-7.5,20.5-6.109a46.834,46.834,0,0,1,10.854,4.706c2.4,1.569,2.442,4.206-.765,5.707-3.922,1.843-13.884.206-13.884.206,5.138,2.245,0,5.883-9.03,2.314C378.543,417.363,372.689,415.128,373.8,411.7Z" transform="translate(709.979 493.492)" fill="#0aa5ae"/>
    <path id="Path_13001" data-name="Path 13001" d="M341.5,330.685c-1.167,7.942-7.746,13.8-13.1,13.011s-5.569-7.844-4.4-15.825,3.285-13.727,8.638-12.943S342.667,322.773,341.5,330.685Z" transform="translate(710.958 495.238)" fill="#263238"/>
    <circle id="Ellipse_244" data-name="Ellipse 244" cx="0.804" cy="0.804" r="0.804" transform="translate(922.248 792.646)" fill="#263238"/>
    <path id="Path_13002" data-name="Path 13002" d="M218.178,303.764a.8.8,0,1,1-.8-.8.8.8,0,0,1,.8.8Z" transform="translate(713.041 495.471)" fill="#263238"/>
    <path id="Path_13003" data-name="Path 13003" d="M219.1,400.664a.8.8,0,1,1-.8-.8A.8.8,0,0,1,219.1,400.664Z" transform="translate(713.023 493.582)" fill="#263238"/>
    <path id="Path_13004" data-name="Path 13004" d="M226.608,406.574a.8.8,0,1,1-.8-.8.8.8,0,0,1,.8.8Z" transform="translate(712.877 493.467)" fill="#263238"/>
    <g id="Robot_Parts" data-name="Robot Parts" transform="translate(790.876 898.872)">
      <path id="Path_13005" data-name="Path 13005" d="M82.365,416.205a9.432,9.432,0,0,1-7.187-3.873.49.49,0,1,1,.8-.559c1.834,2.647,5.883,4.049,7.648,3.216a1.274,1.274,0,0,0,.461-.333,5.932,5.932,0,0,1-3.451-4.393c-.226-1.245-.4-2.941.618-3.157,1.412-.314,3.255,3.089,3.922,5.667a3.706,3.706,0,0,1,.127,1.314,4.177,4.177,0,0,0,1.745.137A1.9,1.9,0,0,0,88.4,413.5a5.746,5.746,0,0,1-2.265-4.108c-.373-2.687-.088-3.147.206-3.383a.647.647,0,0,1,.677-.069c1.049.441,2.314,4.246,2.559,6.4a2.609,2.609,0,0,1,0,.677,3.833,3.833,0,0,0,1.324.255,4.206,4.206,0,0,0,2.363-.618c-.137-.088-.265-.186-.392-.284-.981-.873-1.432-2.265-1.255-4.246.137-1.539.48-2.383,1.1-2.647a1.108,1.108,0,0,1,1.186.235,6.785,6.785,0,0,1,1.7,5.452,2.942,2.942,0,0,1-.5,1.128c1.8.314,4.334-.2,6.52-.735a.5.5,0,0,1,.235.981c-2.657.657-5.52,1.2-7.54.608a5.579,5.579,0,0,1-3.432,1.137,4.737,4.737,0,0,1-1.608-.3,2.746,2.746,0,0,1-2.079,1.245,5.227,5.227,0,0,1-2.2-.186,2.166,2.166,0,0,1-.981.873,4.078,4.078,0,0,1-1.657.294Zm-.843-8.119a4.236,4.236,0,0,0,.078,2.01,4.951,4.951,0,0,0,2.785,3.628,3.147,3.147,0,0,0-.118-.686C83.5,410.234,82.032,408.3,81.522,408.087Zm5.461-.853a13.915,13.915,0,0,0,.167,2.02,5.079,5.079,0,0,0,1.49,3.157,15.414,15.414,0,0,0-1.657-5.177Zm6.167-.853h0s-.373.186-.51,1.824.147,2.765.912,3.422a3,3,0,0,0,.588.373,2.2,2.2,0,0,0,.529-.98,6.138,6.138,0,0,0-1.167-4.344c-.206-.255-.324-.294-.353-.294Z" transform="translate(-75.075 -405.399)" fill="#263238"/>
      <path id="Path_13006" data-name="Path 13006" d="M228.813,423.8l2.657-4.608-2.657-4.608H225.97l1.608,4.608L225.97,423.8Z" transform="translate(-78.018 -405.578)" fill="#263238"/>
      <path id="Path_13007" data-name="Path 13007" d="M226.046,421.617a2.4,2.4,0,1,1,0-4.795l-4.51-.9-1.206,3.647,2.02,3.079Z" transform="translate(-77.908 -405.604)" fill="#263238"/>
      <path id="Path_13008" data-name="Path 13008" d="M226.4,414.58h-5.324l-2.657,4.608,2.657,4.608H226.4l2.657-4.608Zm-2.657,7.011a2.4,2.4,0,1,1,2.392-2.4A2.4,2.4,0,0,1,223.744,421.591Z" transform="translate(-77.87 -405.578)" fill="#068e8e"/>
      <path id="Path_13009" data-name="Path 13009" d="M417.851,414.124,415.88,410.7l1.971-3.422h2.108l-1.186,3.422,1.186,3.422Z" transform="translate(-81.721 -405.435)" fill="#068e8e"/>
      <path id="Path_13010" data-name="Path 13010" d="M419.9,412.506a1.785,1.785,0,1,0,0-3.559l3.353-.667.892,2.706-1.49,2.285Z" transform="translate(-81.799 -405.455)" fill="#068e8e"/>
      <path id="Path_13011" data-name="Path 13011" d="M419.571,407.28h3.922l1.961,3.422-1.961,3.422h-3.922L417.61,410.7Zm1.961,5.206a1.76,1.76,0,1,1,.01,0Z" transform="translate(-81.754 -405.435)" fill="#263238"/>
      <path id="Path_13012" data-name="Path 13012" d="M342.958,418.817h4.432a2.1,2.1,0,0,0,2.089-2.1h0a2.1,2.1,0,0,0-2.089-2.1h-4.432a2.1,2.1,0,0,0-2.1,2.1h0A2.1,2.1,0,0,0,342.958,418.817Z" transform="translate(-80.258 -405.579)" fill="#263238"/>
      <path id="Path_13013" data-name="Path 13013" d="M335.72,414.815a4.373,4.373,0,1,1,1.961,6.06,4.52,4.52,0,0,1-1.961-6.06Z" transform="translate(-80.148 -405.538)" fill="#068e8e"/>
      <rect id="Rectangle_3289" data-name="Rectangle 3289" width="1.343" height="9.903" transform="translate(257.983 15.908) rotate(-154.76)" fill="#263238"/>
    </g>
  </g>
</svg>
