<svg id="google-icon" xmlns="http://www.w3.org/2000/svg" width="32.757" height="33.426" viewBox="0 0 32.757 33.426">
  <path id="Path_479" data-name="Path 479" d="M146.594,110.178a14.322,14.322,0,0,0-.353-3.417H130.55v6.2h9.211a8.167,8.167,0,0,1-3.417,5.422l-.031.208,4.961,3.843.344.034a16.341,16.341,0,0,0,4.977-12.293" transform="translate(-113.837 -93.094)" fill="#4285f4"/>
  <path id="Path_480" data-name="Path 480" d="M28.855,169.777a15.93,15.93,0,0,0,11.068-4.048l-5.274-4.085a9.892,9.892,0,0,1-5.794,1.671,10.061,10.061,0,0,1-9.508-6.945l-.2.017-5.159,3.993-.067.188a16.7,16.7,0,0,0,14.93,9.211" transform="translate(-12.142 -136.352)" fill="#34a853"/>
  <path id="Path_481" data-name="Path 481" d="M7.205,82.2A10.289,10.289,0,0,1,6.648,78.9a10.812,10.812,0,0,1,.538-3.305l-.009-.221L1.954,71.312l-.171.081a16.678,16.678,0,0,0,0,15l5.422-4.2" transform="translate(0 -62.183)" fill="#fbbc05"/>
  <path id="Path_482" data-name="Path 482" d="M28.855,6.462a9.263,9.263,0,0,1,6.462,2.488l4.717-4.605A16.057,16.057,0,0,0,28.855,0a16.7,16.7,0,0,0-14.93,9.211l5.4,4.2a10.1,10.1,0,0,1,9.526-6.945" transform="translate(-12.142)" fill="#eb4335"/>
</svg>
