<svg id="Icon_ionic-ios-home" data-name="Icon ionic-ios-home" xmlns="http://www.w3.org/2000/svg" width="30" height="30" viewBox="0 0 38.26 38.25">
  <defs>
    <style>
      .cls-1 {
        fill: #0aa5ae;
      }
    </style>
  </defs>
  <path id="Path_451" data-name="Path 451" class="cls-1" d="M22.746,7.342a.4.4,0,0,0-.492,0L6.9,19.23a.4.4,0,0,0-.148.3V41.434a.194.194,0,0,0,.2.191H17.578a.194.194,0,0,0,.2-.191V28.1a.194.194,0,0,1,.2-.191h9.056a.194.194,0,0,1,.2.191V41.434a.194.194,0,0,0,.2.191H38.053a.194.194,0,0,0,.2-.191V19.525a.38.38,0,0,0-.148-.3Z" transform="translate(-3.374 -3.375)"/>
  <path id="Path_452" data-name="Path 452" class="cls-1" d="M41.135,17.144,23.758,3.8a2.086,2.086,0,0,0-2.519,0L13.673,9.7V5.975a.181.181,0,0,0-.184-.176H7.972a.181.181,0,0,0-.184.176V14.1L3.863,17.2a1.2,1.2,0,0,0-.11,1.842,1.307,1.307,0,0,0,.91.361,1.331,1.331,0,0,0,.809-.273L22.379,6.081a.17.17,0,0,1,.12-.035.23.23,0,0,1,.12.035L39.526,19.075a1.331,1.331,0,0,0,.809.273,1.3,1.3,0,0,0,.91-.361,1.2,1.2,0,0,0,.386-.943A1.238,1.238,0,0,0,41.135,17.144Z" transform="translate(-3.374 -3.375)"/>
</svg>
