<svg id="Layer_1" data-name="Layer 1" xmlns="http://www.w3.org/2000/svg" viewBox="0 0 841.89 595.28"><defs><style>.cls-1{fill:#efefef;}.cls-2{fill:#181818;}.cls-3{fill:#2b2b2b;}.cls-4{fill:#e5e5e5;}.cls-5{fill:#272727;}.cls-6,.cls-7{fill:#010101;}.cls-6{stroke:#fff;stroke-miterlimit:10;}.cls-8{fill:#fff;}</style></defs><path d="M129.92,349.49c4.47-2.3,17.05-10,27.62-26.63,5.32,5.48,6.84,16.86,2,23.18-.36-1.31-.7-2.56-1-3.82h-.33c-.28,1.36-.46,2.74-.86,4.08-1.09,3.62-4,6.12-7.31,8.33-3,2-6.07,4-9.24,6,.2-1.36.4-2.79.69-4.72-1.26,1-2.24,1.63-3.06,2.41-2.57,2.45-5.08,4.94-7.6,7.43a25.69,25.69,0,0,1-15,7.05l3.16-4.1-.45-.2c-1.11.63-2.23,1.24-3.31,1.91-6.35,3.9-12.71,4-19.09.05-.59-.36-1.21-.68-1.81-1a4.4,4.4,0,0,0-2.06-.73c1,1.3,2,2.61,3.13,4.08a25.51,25.51,0,0,1-15-7.11c-3.22-3.18-6.49-6.32-9.73-9.48l-.76.16.62,4.3c-2.72-1.77-5.32-3.52-8-5.19-5.29-3.32-9.38-7.24-9.73-13.34L51.69,346c-4.55-5.13-3.8-16.12,2-23.66,5.7,14.07,21.37,19.86,24.63,21.58C83.47,346.59,112.87,358.27,129.92,349.49Z"/><path class="cls-1" d="M105.81,360.26c-4.87-.27-7,1.54-20.17-6.83-17.31-11-25-7.62-35.51-33.56-11.85-29.33,7.54-68.72,18.64-78.65,13.29-11.89,48.5-21.69,72.15,3.13,28.63,30,23.12,64.25,20.22,76.5-3.18,13.48-9.16,25.93-28.61,30.37,0,0-11.3,2.26-14.94,6C114.76,360.22,108.63,360.42,105.81,360.26Z"/><ellipse class="cls-2" cx="132.53" cy="302.99" rx="9.94" ry="17.1" transform="matrix(0.94, -0.34, 0.34, 0.94, -94.89, 62.89)"/><ellipse class="cls-3" cx="131.1" cy="303" rx="3.9" ry="5.02" transform="matrix(1, -0.04, 0.04, 1, -10.88, 4.94)"/><ellipse class="cls-4" cx="130.41" cy="302.24" rx="1.82" ry="2.34" transform="translate(-10.86 4.92) rotate(-2.07)"/><ellipse class="cls-2" cx="79.95" cy="300.81" rx="17.31" ry="9.68" transform="translate(-226.41 245.84) rotate(-64.94)"/><ellipse class="cls-3" cx="81.29" cy="301.07" rx="5.17" ry="3.73" transform="translate(-227.88 341.85) rotate(-82.4)"/><ellipse class="cls-4" cx="82.06" cy="300.41" rx="2.41" ry="1.74" transform="translate(-226.57 342.04) rotate(-82.4)"/><path d="M104.49,341.19a3.33,3.33,0,0,0-.63-2c-.57-.75-1-.61-3.32-2-7.68-4.73-6.53-8.95-5.37-10.07.6-.58,5.11-.77,9.38-.76,6.62,0,6,.81,9.89.46,5.36-.47,4,4.26,2.42,6.64a6.48,6.48,0,0,1-2,2.15c-3.61,2.2-4.89,2.35-6,3.6a3.69,3.69,0,0,0-.4,4.52,4.58,4.58,0,0,0,2.16,1.89,9.43,9.43,0,0,0,6.56.9,21.44,21.44,0,0,0,6.35-4.75c.62-.79.86-.31.48.41a17.12,17.12,0,0,1-10.4,8.66c-9.35,2.57-11.54,1.74-15.65.07-4.58-1.86-9.52-4.82-10.47-10.3,5.78,5.64,8,5.56,8.77,5.81,3.48,1.12,5.72-.33,6.26-.85A5.79,5.79,0,0,0,104.49,341.19Z"/><path class="cls-5" d="M97.49,347.86s8.62,4.41,16.29,0a9.12,9.12,0,0,1-6.27,3.17C104.28,351.41,99.44,350.64,97.49,347.86Z"/><path d="M57.22,265.63s-14.32,4.86-16.89-4c-2.81-9.7-7.08-35.89,4.88-37.64s13.76,4.68,18,11.26,8.42,6.2,8.42,6.2Z"/><path d="M138.18,246.44s.45-4.6,5.25-12.31,5.63-19,24.4-7.09,15.35,28.2,11.47,32.74c-3.76,4.38-4.56,10.81-25.45,8.5C145.72,267.38,138.18,246.44,138.18,246.44Z"/><circle class="cls-6" cx="584.41" cy="274.39" r="7.09"/><circle class="cls-6" cx="620.65" cy="272.81" r="7.09"/><path class="cls-6" d="M251.77,294.37a9.82,9.82,0,0,0-19.64,0v22.9a6.55,6.55,0,1,1-13.09,0v-22.9a22.7,22.7,0,0,1,2.36-10.23,7.42,7.42,0,0,1,4.19-13.5,7.47,7.47,0,0,1,6.13,3.27,22.82,22.82,0,0,1,26.59,4.4,22.93,22.93,0,0,1,39.27,16.06v22.9a6.55,6.55,0,1,1-13.09,0v-22.9a9.82,9.82,0,0,0-19.64,0v22.9a6.54,6.54,0,1,1-13.08,0Z"/><path class="cls-6" d="M423.52,255.66a7.37,7.37,0,1,1-7.37,7.36A7.33,7.33,0,0,1,423.52,255.66Zm6.54,61.61a6.55,6.55,0,1,1-13.09,0V278a6.55,6.55,0,0,1,13.09,0Z"/><path class="cls-6" d="M470,322.56a26.18,26.18,0,1,1,16.89-32.95,6.6,6.6,0,0,1-4.22,8.24l-29.5,9.5A12.89,12.89,0,0,0,466,310.1l6.23-2a6.54,6.54,0,1,1,4,12.46Zm-20.84-27.67,21.61-7A13.2,13.2,0,0,0,458,285.18,13.06,13.06,0,0,0,449.15,294.89Z"/><path class="cls-6" d="M528.2,270.64a7.22,7.22,0,0,1,6.65,4.3,26.76,26.76,0,0,1,13-3.48,26.18,26.18,0,0,1,0,52.36,25.52,25.52,0,0,1-13.09-3.48V336.9a6.55,6.55,0,1,1-13.09,0V297.64a25.08,25.08,0,0,1,3.48-12.89,7.47,7.47,0,0,1-4.3-6.75A7.33,7.33,0,0,1,528.2,270.64Zm19.64,40.09a13.09,13.09,0,1,0-13.09-13.09A13.05,13.05,0,0,0,547.84,310.73Z"/><path class="cls-6" d="M603.45,271.46a26.23,26.23,0,0,1,26.18,26.18,26.82,26.82,0,0,1-3.47,13,7.25,7.25,0,0,1,4.29,6.65,7.33,7.33,0,0,1-7.36,7.36,7.47,7.47,0,0,1-6.75-4.29,25.05,25.05,0,0,1-12.89,3.48,26.18,26.18,0,0,1,0-52.36Zm0,39.27a13.09,13.09,0,1,0-13.09-13.09A13.05,13.05,0,0,0,603.45,310.73Z"/><path class="cls-6" d="M643.53,270.64a7.24,7.24,0,0,1,6.65,4.3,26.72,26.72,0,0,1,13-3.48,26.23,26.23,0,0,1,26.18,26.18v19.63a6.55,6.55,0,1,1-13.09,0V297.64a13.09,13.09,0,0,0-26.18,0v19.63a6.55,6.55,0,1,1-13.09,0V297.64a25.08,25.08,0,0,1,3.48-12.89,7.46,7.46,0,0,1-4.29-6.75A7.33,7.33,0,0,1,643.53,270.64Z"/><path class="cls-6" d="M742.3,310.62a7.25,7.25,0,0,1,4.29,6.65,7.33,7.33,0,0,1-7.36,7.36,7.47,7.47,0,0,1-6.75-4.29,25.05,25.05,0,0,1-12.89,3.48A26.18,26.18,0,1,1,732.68,275V258.37a6.55,6.55,0,0,1,13.09,0v39.27A26.82,26.82,0,0,1,742.3,310.62Zm-22.71-26.07a13.09,13.09,0,1,0,13.09,13.09A13,13,0,0,0,719.59,284.55Z"/><path class="cls-6" d="M777.66,271.46a26.23,26.23,0,0,1,26.18,26.18,26.82,26.82,0,0,1-3.47,13,7.25,7.25,0,0,1,4.29,6.65,7.33,7.33,0,0,1-7.36,7.36,7.47,7.47,0,0,1-6.75-4.29,25.05,25.05,0,0,1-12.89,3.48,26.18,26.18,0,0,1,0-52.36Zm0,39.27a13.09,13.09,0,1,0-13.08-13.09A13.05,13.05,0,0,0,777.66,310.73Z"/><path class="cls-6" d="M406.79,272.8a6.61,6.61,0,0,0-6.16,3.92L385.28,310.8c-.19.38-.32.38-.44.38s-.3,0-.34-.15L369,276.54l-.13-.26a6.89,6.89,0,0,0-6.05-3.48c-3.78,0-6.85,2.8-6.85,6.25a5.32,5.32,0,0,0,.63,2.67L372,315.89a13.94,13.94,0,0,0,12.85,7.89,13.59,13.59,0,0,0,12.76-7.95l15.31-33.93a5.56,5.56,0,0,0,.73-2.85C413.64,275.6,410.57,272.8,406.79,272.8Z"/><path class="cls-6" d="M330.28,274.31a26.23,26.23,0,0,1,26.17,26.18,26.82,26.82,0,0,1-3.47,13c-1.65,3.33-6.5,8-9.82,9.72a25,25,0,0,1-12.88,3.48,26.18,26.18,0,1,1,0-52.36Zm0,39.27a13.09,13.09,0,1,0-13.09-13.09A13.05,13.05,0,0,0,330.28,313.58Z"/><path class="cls-7" d="M334.12,316.78l-.2.1c-7.36,3.74-14.72,7.44-21.81,1.68l5.47,4.29c5.24,5.49,10.68,3.93,16.12,2.34l.15,0c5.45-1.59,10.89-3.15,16.12,2.34q3-6.19,6-12.39C348.85,309.33,341.49,313,334.12,316.78Z"/><path class="cls-8" d="M345.68,322.23c.94-2.7,1.89-5.39,2.83-8.09a12.23,12.23,0,0,1,5.94,2.57q-2,4.19-3.92,8.35A11.74,11.74,0,0,0,345.68,322.23Z"/><path class="cls-8" d="M340,322.07q.78-3.56,1.54-7.09a17.05,17.05,0,0,1,6.05-.93c-.89,2.66-1.77,5.33-2.65,8A13.45,13.45,0,0,0,340,322.07Z"/><path class="cls-8" d="M334.17,323.69c.08-1.9.17-3.8.25-5.7a64.41,64.41,0,0,1,6.09-2.67c-.45,2.3-.91,4.6-1.36,6.9A46.89,46.89,0,0,0,334.17,323.69Z"/><path class="cls-8" d="M354.42,315.66l.37-.79.53.39c-.13.26-.25.52-.38.79A6.41,6.41,0,0,0,354.42,315.66Z"/><path class="cls-8" d="M353.6,315.11c.12-.26.24-.53.35-.79.18.11.36.22.53.34-.12.26-.23.53-.35.79Z"/><path class="cls-8" d="M352.78,314.65c.11-.27.22-.53.34-.79l.53.28c-.12.27-.23.53-.35.79Z"/><path class="cls-8" d="M352,314.26c.1-.27.21-.53.32-.79.18.07.35.15.53.24l-.33.79C352.31,314.41,352.13,314.33,352,314.26Z"/><path class="cls-8" d="M351.13,313.94c.1-.26.2-.52.31-.78.17,0,.35.12.53.19-.1.26-.21.52-.32.78Z"/><path class="cls-8" d="M350.3,313.69c.1-.26.2-.52.29-.78l.54.15-.3.78A5.26,5.26,0,0,0,350.3,313.69Z"/><path class="cls-8" d="M349.47,313.5c.09-.25.18-.51.28-.77l.54.11c-.1.26-.2.52-.29.77Z"/><path class="cls-8" d="M348.64,313.38c.08-.25.17-.51.26-.76l.54.06-.27.77Z"/><path class="cls-8" d="M347.8,313.32c.09-.25.17-.51.25-.76l.54,0c-.08.26-.17.51-.26.76C348.16,313.34,348,313.32,347.8,313.32Z"/><path class="cls-8" d="M347,313.31c.07-.25.15-.5.23-.75h.54l-.24.75Z"/><path class="cls-8" d="M346.13,313.35l.22-.73.54,0c-.07.24-.15.49-.23.74Z"/><path class="cls-8" d="M345.29,313.45l.21-.73.54-.07c-.07.24-.14.49-.22.73Z"/><path class="cls-8" d="M344.45,313.58c.06-.23.13-.47.19-.71l.55-.1-.21.72Z"/><path class="cls-8" d="M343.61,313.76l.18-.7.54-.13c-.06.24-.12.48-.19.71Z"/><path class="cls-8" d="M342.76,314c.06-.23.11-.46.17-.69l.55-.15-.18.7Z"/><path class="cls-8" d="M341.92,314.24l.15-.68.55-.17c-.06.22-.11.45-.16.68Z"/><path class="cls-8" d="M341.08,314.52c0-.22.09-.44.13-.66l.55-.2-.15.67Z"/><path class="cls-8" d="M340.23,314.83l.12-.65.55-.21-.13.66Z"/><path class="cls-8" d="M339.38,315.17c0-.21.08-.42.11-.63l.55-.23-.12.64Z"/><path class="cls-8" d="M338.54,315.53l.09-.62.55-.24c0,.21-.07.42-.1.63Z"/><path class="cls-8" d="M337.69,315.91c0-.21.05-.41.08-.6l.55-.26-.09.61Z"/><path class="cls-8" d="M336.84,316.3c0-.2,0-.39.07-.59l.55-.26c0,.2,0,.4-.08.6Z"/><path class="cls-8" d="M336,316.7c0-.19,0-.38.05-.57l.55-.27-.06.58Z"/><path class="cls-8" d="M335.15,317.11l0-.55.55-.27c0,.18,0,.37,0,.56Z"/><path class="cls-8" d="M334.3,317.53c0-.18,0-.36,0-.54l.55-.27,0,.54Z"/><path class="cls-8" d="M349.51,326.34l.36-.79.41.39c-.13.26-.25.52-.37.79Z"/><path class="cls-8" d="M348.87,325.8l.35-.79c.14.11.28.22.41.34-.12.26-.24.52-.35.79Z"/><path class="cls-8" d="M348.24,325.31c.11-.26.22-.53.34-.79l.41.3c-.12.27-.23.53-.35.79Z"/><path class="cls-8" d="M347.61,324.88c.1-.26.21-.52.32-.78l.41.26-.33.79Z"/><path class="cls-8" d="M347,324.51c.1-.26.2-.52.31-.78l.41.23-.31.78Z"/><path class="cls-8" d="M346.33,324.19c.1-.26.2-.52.29-.77l.42.19-.3.78Z"/><path class="cls-8" d="M345.69,323.92c.1-.25.19-.51.28-.77l.42.17c-.1.25-.19.51-.29.77Z"/><path class="cls-8" d="M345.05,323.7l.27-.76.41.13-.27.77Z"/><path class="cls-8" d="M344.41,323.53c.08-.25.17-.5.25-.76l.42.11c-.09.25-.18.5-.26.76Z"/><path class="cls-8" d="M343.77,323.4c.08-.25.15-.5.23-.75l.42.08-.24.75Z"/><path class="cls-8" d="M343.12,323.31c.08-.25.15-.49.22-.74l.42.05c-.07.25-.15.49-.23.74Z"/><path class="cls-8" d="M342.48,323.25c.07-.24.14-.48.2-.72l.42,0-.21.73Z"/><path class="cls-8" d="M341.83,323.23c.06-.23.13-.47.19-.71h.42c-.06.24-.13.48-.2.72Z"/><path class="cls-8" d="M341.18,323.25l.18-.7.42,0c-.06.24-.12.47-.19.71Z"/><path class="cls-8" d="M340.53,323.29c.06-.23.11-.46.17-.69l.42,0c-.06.23-.12.46-.17.69Z"/><path class="cls-8" d="M339.88,323.36c.05-.22.1-.45.16-.67l.42-.06c-.06.23-.11.46-.16.69Z"/><path class="cls-8" d="M339.23,323.46c0-.22.09-.44.14-.66l.42-.08c-.05.23-.09.45-.14.67Z"/><path class="cls-8" d="M338.58,323.57c0-.21.08-.43.13-.64l.42-.09c0,.22-.09.44-.13.66Z"/><path class="cls-8" d="M337.93,323.71c0-.21.07-.42.11-.63l.42-.1c0,.21-.08.43-.11.64Z"/><path class="cls-8" d="M337.28,323.86l.09-.61.43-.11c0,.21-.07.42-.1.62Z"/><path class="cls-8" d="M336.63,324c0-.2.05-.4.08-.6l.42-.12-.09.61Z"/><path class="cls-8" d="M336,324.21l.06-.59.42-.12c0,.2,0,.39-.07.59Z"/><path class="cls-8" d="M335.32,324.39c0-.18,0-.37.05-.56l.43-.13-.06.58Z"/><path class="cls-8" d="M334.67,324.59c0-.19,0-.37,0-.56l.42-.13c0,.19,0,.38,0,.57Z"/><path class="cls-8" d="M334,324.78c0-.18,0-.35,0-.53l.42-.14,0,.55Z"/><path class="cls-8" d="M328.49,325.39c-.35-1.44-.69-2.88-1-4.32,2-.73,4.05-1.69,6.09-2.67l-.09,5.52A47.42,47.42,0,0,1,328.49,325.39Z"/><path class="cls-8" d="M322.75,325.58c-.77-1.09-1.55-2.17-2.32-3.25a16.76,16.76,0,0,0,6-.92c.4,1.38.81,2.76,1.21,4.13A13.4,13.4,0,0,1,322.75,325.58Z"/><path class="cls-8" d="M317.1,322.55l-3.58-2.88a12,12,0,0,0,5.94,2.57l2.49,3.14A11.74,11.74,0,0,1,317.1,322.55Z"/><path class="cls-8" d="M333.16,318.09v-.52l.55-.27c0,.17,0,.35,0,.52Z"/><path class="cls-8" d="M332.31,318.5c0-.16,0-.33,0-.5l.55-.27v.51Z"/><path class="cls-8" d="M331.46,318.91l0-.48.55-.27c0,.16,0,.33,0,.49Z"/><path class="cls-8" d="M330.61,319.3c0-.15,0-.31,0-.46l.55-.26,0,.47Z"/><path class="cls-8" d="M329.77,319.69l-.06-.45.55-.25c0,.15,0,.3,0,.46Z"/><path class="cls-8" d="M328.92,320.05c0-.14-.05-.29-.07-.43l.55-.24.06.44Z"/><path class="cls-8" d="M328.07,320.4c0-.14-.06-.28-.08-.42l.54-.23c0,.15.06.29.08.43Z"/><path class="cls-8" d="M327.23,320.72c0-.13-.07-.27-.1-.4l.54-.22.09.42Z"/><path class="cls-8" d="M326.38,321c0-.13-.08-.26-.11-.39l.54-.2c0,.14.07.27.11.4Z"/><path class="cls-8" d="M325.54,321.28c-.05-.12-.09-.25-.13-.38l.54-.17.12.39Z"/><path class="cls-8" d="M324.69,321.51c0-.12-.09-.24-.14-.36l.55-.15.13.37Z"/><path class="cls-8" d="M323.85,321.71c-.05-.12-.1-.24-.16-.36.19,0,.37-.08.55-.12l.15.36Z"/><path class="cls-8" d="M323,321.86l-.17-.34.54-.1.17.35Z"/><path class="cls-8" d="M322.17,322l-.18-.33.54-.07.18.34Z"/><path class="cls-8" d="M321.33,322l-.2-.32.55,0c.06.11.12.22.19.33Z"/><path class="cls-8" d="M320.5,322a3.46,3.46,0,0,1-.22-.31h.54l.21.31Z"/><path class="cls-8" d="M319.66,322l-.23-.3.54,0,.22.3Z"/><path class="cls-8" d="M318.83,321.9l-.24-.29.53.06.24.3Z"/><path class="cls-8" d="M318,321.74l-.26-.29.54.11.25.29Z"/><path class="cls-8" d="M317.17,321.51l-.27-.28a4.61,4.61,0,0,0,.53.15,3.58,3.58,0,0,1,.26.29Z"/><path class="cls-8" d="M316.34,321.22l-.29-.28c.18.07.36.14.54.19l.28.28Z"/><path class="cls-8" d="M315.51,320.86l-.3-.28c.18.09.36.16.54.24l.29.28Z"/><path class="cls-8" d="M314.69,320.42l-.31-.27c.17.1.35.19.53.28l.3.28Z"/><path class="cls-8" d="M313.87,319.9l-.33-.27.53.34.32.27Z"/><path class="cls-8" d="M313.05,319.3l-.34-.27c.18.14.35.27.53.39l.33.27C313.4,319.57,313.22,319.44,313.05,319.3Z"/><path class="cls-8" d="M333.14,325.05v-.51l.43-.14c0,.17,0,.35,0,.52Z"/><path class="cls-8" d="M332.49,325.24c0-.16,0-.33,0-.49l.43-.14v.51Z"/><path class="cls-8" d="M331.84,325.43l0-.48.42-.13c0,.16,0,.33,0,.49Z"/><path class="cls-8" d="M331.18,325.61c0-.15,0-.31,0-.46l.43-.13,0,.48Z"/><path class="cls-8" d="M330.53,325.79l-.06-.45.43-.12c0,.15,0,.3.05.46Z"/><path class="cls-8" d="M329.88,326c0-.15-.05-.3-.07-.44l.42-.11.06.44Z"/><path class="cls-8" d="M329.23,326.09l-.09-.42.43-.1c0,.14.05.28.07.43Z"/><path class="cls-8" d="M328.58,326.21c0-.13-.07-.27-.1-.4l.42-.09.09.41Z"/><path class="cls-8" d="M327.93,326.31l-.12-.39.42-.07c0,.13.07.27.11.4Z"/><path class="cls-8" d="M327.28,326.39c0-.12-.09-.25-.13-.37l.42-.06.12.38Z"/><path class="cls-8" d="M326.63,326.45l-.15-.37.43,0c0,.13.09.25.13.38Z"/><path class="cls-8" d="M326,326.47c-.05-.12-.1-.23-.16-.35l.42,0,.15.36Z"/><path class="cls-8" d="M325.33,326.46l-.17-.34h.42c.06.12.11.24.16.35Z"/><path class="cls-8" d="M324.69,326.42c-.07-.11-.13-.22-.19-.33l.42,0,.18.33A2.73,2.73,0,0,1,324.69,326.42Z"/><path class="cls-8" d="M324,326.35a3.45,3.45,0,0,0-.2-.32l.42.05a3.37,3.37,0,0,1,.19.32Z"/><path class="cls-8" d="M323.4,326.23c-.07-.1-.14-.21-.22-.31l.42.07.21.32Z"/><path class="cls-8" d="M322.76,326.07l-.23-.3.41.1c.08.1.15.21.22.31Z"/><path class="cls-8" d="M322.11,325.87l-.24-.3.42.13.23.3Z"/><path class="cls-8" d="M321.47,325.62l-.25-.29.41.16.25.29Z"/><path class="cls-8" d="M320.84,325.32c-.09-.09-.18-.19-.28-.28l.42.19c.09.09.17.19.26.29Z"/><path class="cls-8" d="M320.2,325l-.29-.28.42.23.27.28Z"/><path class="cls-8" d="M319.56,324.56l-.3-.27.42.26.29.27Z"/><path class="cls-8" d="M318.93,324.1l-.31-.28a3.91,3.91,0,0,0,.41.3l.3.28Z"/><path class="cls-8" d="M318.3,323.57l-.33-.27.41.34.32.27Z"/><path class="cls-8" d="M317.67,323l-.34-.27.41.38.33.27Z"/><path class="cls-7" d="M786.26,331.68h-3.07v-1.11h7.49v1.11h-3.09v9h-1.33Z"/><path class="cls-7" d="M800.34,336.24c-.08-1.41-.17-3.1-.15-4.37h-.05c-.34,1.19-.76,2.45-1.27,3.85l-1.79,4.91h-1l-1.64-4.82c-.48-1.43-.88-2.73-1.17-3.94h0c0,1.27-.11,3-.19,4.48l-.27,4.34h-1.25l.7-10.12h1.67l1.73,4.89c.42,1.25.76,2.36,1,3.41h0c.26-1,.62-2.13,1.07-3.41l1.8-4.89h1.67l.63,10.12h-1.28Z"/></svg>