<svg xmlns="http://www.w3.org/2000/svg" width="30" height="30" viewBox="0 0 38.646 38.635">
  <g id="Group_763" data-name="Group 763" transform="translate(23077.693 15740.16)">
    <path id="Path_451" data-name="Path 451" d="M22.943,7.343a.4.4,0,0,0-.5,0L6.9,19.364a.4.4,0,0,0-.149.3V41.817a.2.2,0,0,0,.2.193H17.711a.2.2,0,0,0,.2-.193V28.332a.2.2,0,0,1,.2-.193h9.167a.2.2,0,0,1,.2.193V41.817a.2.2,0,0,0,.2.193H38.438a.2.2,0,0,0,.2-.193V19.663a.384.384,0,0,0-.149-.3Z" transform="translate(-23081.066 -15743.535)" fill="#adadbe"/>
    <path id="Path_452" data-name="Path 452" d="M41.517,17.291,23.965,3.8a2.106,2.106,0,0,0-2.545,0l-7.643,5.96V6a.183.183,0,0,0-.186-.178H8.019A.183.183,0,0,0,7.833,6v8.214L3.868,17.345a1.214,1.214,0,0,0-.111,1.862,1.32,1.32,0,0,0,.919.365,1.344,1.344,0,0,0,.817-.276L22.572,6.11a.171.171,0,0,1,.121-.036.232.232,0,0,1,.121.036L39.892,19.243a1.344,1.344,0,0,0,.817.276,1.314,1.314,0,0,0,.919-.365,1.21,1.21,0,0,0,.39-.953A1.252,1.252,0,0,0,41.517,17.291Z" transform="translate(-23081.066 -15743.535)" fill="#adadbe"/>
  </g>
</svg>
