<svg id="imdb" xmlns="http://www.w3.org/2000/svg" width="40" height="40" viewBox="0 0 61.494 24.735">
  <defs>
    <style>
      .cls-1 {
        fill: #e6b91e;
      }
    </style>
  </defs>
  <rect id="Rectangle_5" data-name="Rectangle 5" class="cls-1" width="6.405" height="24.514" transform="translate(0 0)"/>
  <path id="Path_1" data-name="Path 1" class="cls-1" d="M28.955,4.675a4.208,4.208,0,0,0-1.1-2.208,4.363,4.363,0,0,0-2.429-1.325A30.569,30.569,0,0,0,19.459.7H14.6V25.214h7.73a12.716,12.716,0,0,0,3.313-.221,7.845,7.845,0,0,0,1.988-.883,4.809,4.809,0,0,0,1.1-1.767,16.508,16.508,0,0,0,.442-4.417V9.313C29.176,7.1,28.955,5.338,28.955,4.675ZM22.992,17.485a24,24,0,0,1-.221,2.871c0,.221-.663.442-1.767.442V4.9c.663,0,1.1,0,1.325.221h0c.221.221.442.442.442.663a17.052,17.052,0,0,1,.221,2.208v9.5Z" transform="translate(15.877 -0.7)"/>
  <path id="Path_2" data-name="Path 2" class="cls-1" d="M16.184.7,14.638,12.184,13.755,6A29.3,29.3,0,0,0,12.871.7H4.7V25.214h5.521V8.871l2.429,16.343h3.975L18.834,8.651V25.214h5.521V.7Z" transform="translate(3.913 -0.7)"/>
  <path id="Path_3" data-name="Path 3" class="cls-1" d="M36.455,9.755a1.909,1.909,0,0,0-.663-1.325,3.961,3.961,0,0,0-1.546-1.1,6.534,6.534,0,0,0-2.208-.442,7.847,7.847,0,0,0-2.208.442,4.631,4.631,0,0,0-1.767,1.325V.7H22.1V25.214h5.742l.442-1.546a3.434,3.434,0,0,0,1.767,1.325,7.847,7.847,0,0,0,2.208.442,3.856,3.856,0,0,0,2.65-.883,3.216,3.216,0,0,0,1.325-1.988,12.716,12.716,0,0,0,.221-3.313V12.626A11.825,11.825,0,0,0,36.455,9.755Zm-5.963,9.5h0a17.052,17.052,0,0,1-.221,2.208c0,.221-.663.442-1.1.442s-.663-.221-.663-.442a17.125,17.125,0,0,1-.221-1.988v-6.4c0-1.1,0-1.767.221-1.988,0-.221.442-.442.663-.442a1.687,1.687,0,0,1,1.1.442,4.359,4.359,0,0,1,.221,1.988Z" transform="translate(24.941 -0.7)"/>
</svg>
