<svg xmlns="http://www.w3.org/2000/svg" width="29" height="20" viewBox="0 0 29 20"><defs><style>.a{fill:#f93;}.b{fill:#fff;}.c{fill:#128807;}.d{fill:#008;}</style></defs><g transform="translate(-0.029 0.117)"><rect class="a" width="29" height="20" transform="translate(0.029 -0.118)"/><rect class="b" width="29" height="8" transform="translate(0.029 5.882)"/><rect class="c" width="29" height="6" transform="translate(0.029 13.882)"/><g transform="translate(9.96 4.34)"><circle class="d" cx="2.611" cy="2.611" r="2.611" transform="translate(1.958 2.931)"/><circle class="b" cx="2.284" cy="2.284" r="2.284" transform="translate(2.285 3.258)"/><circle class="d" cx="0.457" cy="0.457" r="0.457" transform="translate(4.112 5.085)"/><g transform="translate(0.418 3.714)"><g transform="translate(2.16 1.619)"><g transform="translate(1.324 0.353)"><g transform="translate(0.589 0.026)"><circle class="d" cx="0.114" cy="0.114" r="0.114" transform="translate(2.245 0) rotate(7.5)"/><path class="d" d="M-.522,4.023l.078-1.371L-.522,2-.6,2.653Z" transform="translate(0.6 -1.909)"/></g><g transform="matrix(0.966, 0.259, -0.259, 0.966, 0.547, 0)"><circle class="d" cx="0.114" cy="0.114" r="0.114" transform="translate(2.245 0) rotate(7.5)"/><path class="d" d="M.078,2.023.157.653.078,0,0,.653Z" transform="translate(0 0.091)"/></g></g><g transform="translate(1.341 0) rotate(30)"><g transform="translate(0.589 0.026)"><circle class="d" cx="0.114" cy="0.114" r="0.114" transform="translate(2.245 0) rotate(7.5)"/><path class="d" d="M.078,2.023.157.653.078,0,0,.653Z" transform="translate(0 0.091)"/></g><g transform="matrix(0.966, 0.259, -0.259, 0.966, 0.547, 0)"><circle class="d" cx="0.114" cy="0.114" r="0.114" transform="translate(2.245 0) rotate(7.5)"/><path class="d" d="M.078,2.023.157.653.078,0,0,.653Z" transform="translate(0 0.091)"/></g></g></g><g transform="translate(3.337 0) rotate(60)"><g transform="translate(1.324 0.353)"><g transform="translate(0.589 0.026)"><circle class="d" cx="0.114" cy="0.114" r="0.114" transform="translate(2.245 0) rotate(7.5)"/><path class="d" d="M.078,2.023.157.653.078,0,0,.653Z" transform="translate(0 0.091)"/></g><g transform="matrix(0.966, 0.259, -0.259, 0.966, 0.547, 0)"><circle class="d" cx="0.114" cy="0.114" r="0.114" transform="translate(2.245 0) rotate(7.5)"/><path class="d" d="M.078,2.023.157.653.078,0,0,.653Z" transform="translate(0 0.091)"/></g></g><g transform="translate(1.341 0) rotate(30)"><g transform="translate(0.589 0.026)"><circle class="d" cx="0.114" cy="0.114" r="0.114" transform="translate(2.245 0) rotate(7.5)"/><path class="d" d="M.078,2.023.157.653.078,0,0,.653Z" transform="translate(0 0.091)"/></g><g transform="matrix(0.966, 0.259, -0.259, 0.966, 0.547, 0)"><circle class="d" cx="0.114" cy="0.114" r="0.114" transform="translate(2.245 0) rotate(7.5)"/><path class="d" d="M.078,2.023.157.653.078,0,0,.653Z" transform="translate(0 0.091)"/></g></g></g></g><g transform="translate(8.228 2.861) rotate(120)"><g transform="translate(2.16 1.619)"><g transform="translate(1.324 0.353)"><g transform="translate(0.589 0.026)"><circle class="d" cx="0.114" cy="0.114" r="0.114" transform="translate(2.245 0) rotate(7.5)"/><path class="d" d="M.078,2.023.157.653.078,0,0,.653Z" transform="translate(0 0.091)"/></g><g transform="matrix(0.966, 0.259, -0.259, 0.966, 0.547, 0)"><circle class="d" cx="0.114" cy="0.114" r="0.114" transform="translate(2.245 0) rotate(7.5)"/><path class="d" d="M.078,2.023.157.653.078,0,0,.653Z" transform="translate(0 0.091)"/></g></g><g transform="translate(1.341 0) rotate(30)"><g transform="translate(0.589 0.026)"><circle class="d" cx="0.114" cy="0.114" r="0.114" transform="translate(2.245 0) rotate(7.5)"/><path class="d" d="M.078,2.023.157.653.078,0,0,.653Z" transform="translate(0 0.091)"/></g><g transform="matrix(0.966, 0.259, -0.259, 0.966, 0.547, 0)"><circle class="d" cx="0.114" cy="0.114" r="0.114" transform="translate(2.245 0) rotate(7.5)"/><path class="d" d="M.078,2.023.157.653.078,0,0,.653Z" transform="translate(0 0.091)"/></g></g></g><g transform="translate(3.337 0) rotate(60)"><g transform="translate(1.324 0.353)"><g transform="translate(0.589 0.026)"><circle class="d" cx="0.114" cy="0.114" r="0.114" transform="translate(2.245 0) rotate(7.5)"/><path class="d" d="M.078,2.023.157.653.078,0,0,.653Z" transform="translate(0 0.091)"/></g><g transform="matrix(0.966, 0.259, -0.259, 0.966, 0.547, 0)"><circle class="d" cx="0.114" cy="0.114" r="0.114" transform="translate(2.245 0) rotate(7.5)"/><path class="d" d="M.078,2.023.157.653.078,0,0,.653Z" transform="translate(0 0.091)"/></g></g><g transform="translate(1.341 0) rotate(30)"><g transform="translate(0.589 0.026)"><circle class="d" cx="0.114" cy="0.114" r="0.114" transform="translate(2.245 0) rotate(7.5)"/><path class="d" d="M.078,2.023.157.653.078,0,0,.653Z" transform="translate(0 0.091)"/></g><g transform="matrix(0.966, 0.259, -0.259, 0.966, 0.547, 0)"><circle class="d" cx="0.114" cy="0.114" r="0.114" transform="translate(2.245 0) rotate(7.5)"/><path class="d" d="M.078,2.023.157.653.078,0,0,.653Z" transform="translate(0 0.091)"/></g></g></g></g><g transform="translate(5.061 10.051) rotate(-120)"><g transform="translate(2.16 1.619)"><g transform="translate(1.324 0.353)"><g transform="translate(0.589 0.026)"><circle class="d" cx="0.114" cy="0.114" r="0.114" transform="translate(2.245 0) rotate(7.5)"/><path class="d" d="M.078,2.023.157.653.078,0,0,.653Z" transform="translate(0 0.091)"/></g><g transform="matrix(0.966, 0.259, -0.259, 0.966, 0.547, 0)"><circle class="d" cx="0.114" cy="0.114" r="0.114" transform="translate(2.245 0) rotate(7.5)"/><path class="d" d="M.078,2.023.157.653.078,0,0,.653Z" transform="translate(0 0.091)"/></g></g><g transform="translate(1.341 0) rotate(30)"><g transform="translate(0.589 0.026)"><circle class="d" cx="0.114" cy="0.114" r="0.114" transform="translate(2.245 0) rotate(7.5)"/><path class="d" d="M.078,2.023.157.653.078,0,0,.653Z" transform="translate(0 0.091)"/></g><g transform="matrix(0.966, 0.259, -0.259, 0.966, 0.547, 0)"><circle class="d" cx="0.114" cy="0.114" r="0.114" transform="translate(2.245 0) rotate(7.5)"/><path class="d" d="M.078,2.023.157.653.078,0,0,.653Z" transform="translate(0 0.091)"/></g></g></g><g transform="translate(3.337 0) rotate(60)"><g transform="translate(1.324 0.353)"><g transform="translate(0.589 0.026)"><circle class="d" cx="0.114" cy="0.114" r="0.114" transform="translate(2.245 0) rotate(7.5)"/><path class="d" d="M.078,2.023.157.653.078,0,0,.653Z" transform="translate(0 0.091)"/></g><g transform="matrix(0.966, 0.259, -0.259, 0.966, 0.547, 0)"><circle class="d" cx="0.114" cy="0.114" r="0.114" transform="translate(2.245 0) rotate(7.5)"/><path class="d" d="M.078,2.023.157.653.078,0,0,.653Z" transform="translate(0 0.091)"/></g></g><g transform="translate(1.341 0) rotate(30)"><g transform="translate(0.589 0.026)"><circle class="d" cx="0.114" cy="0.114" r="0.114" transform="translate(2.245 0) rotate(7.5)"/><path class="d" d="M.078,2.023.157.653.078,0,0,.653Z" transform="translate(0 0.091)"/></g><g transform="matrix(0.966, 0.259, -0.259, 0.966, 0.547, 0)"><circle class="d" cx="0.114" cy="0.114" r="0.114" transform="translate(2.245 0) rotate(7.5)"/><path class="d" d="M.078,2.023.157.653.078,0,0,.653Z" transform="translate(0 0.091)"/></g></g></g></g></g></g></svg>