<svg xmlns="http://www.w3.org/2000/svg" width="60" height="60" viewBox="0 0 59.407 83.343">
  <g id="Group_772" data-name="Group 772" transform="translate(-1023.5 -395.349)">
    <g id="Jaipur" transform="translate(1024 395.849)">
      <path id="Stroke_2" data-name="Stroke 2" d="M0,2.682V0" transform="translate(29.06)" fill="none" stroke="#231f20" stroke-linecap="round" stroke-linejoin="round" stroke-miterlimit="10" stroke-width="1"/>
      <path id="Stroke_5" data-name="Stroke 5" d="M0,14.082H7.376V0H0Z" transform="translate(25.707 48.282)" fill="#0aa5ae" stroke="#231f20" stroke-linecap="round" stroke-linejoin="round" stroke-miterlimit="10" stroke-width="1"/>
      <path id="Stroke_8" data-name="Stroke 8" d="M7.376,11.4H.021L0,0H7.358Z" transform="translate(25.707 10.729)" fill="#0aa5ae" stroke="#231f20" stroke-linecap="round" stroke-linejoin="round" stroke-miterlimit="10" stroke-width="1"/>
      <path id="Stroke_10" data-name="Stroke 10" d="M7.358,12.071H0L.02,0H7.376Z" transform="translate(25.707 22.129)" fill="#0aa5ae" stroke="#231f20" stroke-linecap="round" stroke-linejoin="round" stroke-miterlimit="10" stroke-width="1"/>
      <path id="Stroke_12" data-name="Stroke 12" d="M0,14.082H7.376V0H0Z" transform="translate(25.707 34.2)" fill="#0aa5ae" stroke="#231f20" stroke-linecap="round" stroke-linejoin="round" stroke-miterlimit="10" stroke-width="1"/>
      <path id="Stroke_15" data-name="Stroke 15" d="M7.295,8.388v-.96a12.374,12.374,0,0,0-.176-1.974A7.759,7.759,0,0,0,3.646,0,7.763,7.763,0,0,0,.173,5.454,12.143,12.143,0,0,0,0,7.428v.96Z" transform="translate(25.548 2.205)" fill="#acfaff" stroke="#231f20" stroke-miterlimit="10" stroke-width="1"/>
      <path id="Stroke_19" data-name="Stroke 19" d="M1.963.987A.982.982,0,1,0,0,.987V5.582H1.963Z" transform="translate(28.235 13.316)" fill="#025458" stroke="#231f20" stroke-miterlimit="10" stroke-width="1"/>
      <path id="Stroke_23" data-name="Stroke 23" d="M1.962,1.039A1.012,1.012,0,0,0,.98,0,1.011,1.011,0,0,0,0,1.039V5.923H1.962Z" transform="translate(28.214 25.25)" fill="#025458" stroke="#231f20" stroke-miterlimit="10" stroke-width="1"/>
      <path id="Stroke_27" data-name="Stroke 27" d="M1.963,1.031A1,1,0,0,0,.98,0,1,1,0,0,0,0,1.031V7.286H1.963Z" transform="translate(28.235 37.188)" fill="#025458" stroke="#231f20" stroke-miterlimit="10" stroke-width="1"/>
      <path id="Stroke_31" data-name="Stroke 31" d="M1.963.991A.982.982,0,1,0,0,.991V7H1.963Z" transform="translate(28.235 51.929)" fill="#025458" stroke="#231f20" stroke-miterlimit="10" stroke-width="1"/>
      <path id="Stroke_35" data-name="Stroke 35" d="M3.664,50.379V3.714a5.926,5.926,0,0,0-.091-.985A3.864,3.864,0,0,0,1.831,0,3.877,3.877,0,0,0,.086,2.728,6.043,6.043,0,0,0,0,3.714V50.379Z" transform="translate(21.884 11.985)" fill="#acfaff" stroke="#231f20" stroke-miterlimit="10" stroke-width="1"/>
      <path id="Stroke_39" data-name="Stroke 39" d="M7.294,8.388V7.427a12.013,12.013,0,0,0-.175-1.973A7.754,7.754,0,0,0,3.646,0,7.747,7.747,0,0,0,.176,5.454,11.527,11.527,0,0,0,0,7.427v.962Z" transform="translate(14.595 13.628)" fill="#acfaff" stroke="#231f20" stroke-miterlimit="10" stroke-width="1"/>
      <path id="Stroke_43" data-name="Stroke 43" d="M0,14.082H7.294V0H0Z" transform="translate(14.39 48.282)" fill="#0aa5ae" stroke="#231f20" stroke-linecap="round" stroke-linejoin="round" stroke-miterlimit="10" stroke-width="1"/>
      <path id="Stroke_45" data-name="Stroke 45" d="M7.294,12.394H0L.02,0h7.3Z" transform="translate(14.595 21.995)" fill="#0aa5ae" stroke="#231f20" stroke-linecap="round" stroke-linejoin="round" stroke-miterlimit="10" stroke-width="1"/>
      <path id="Stroke_47" data-name="Stroke 47" d="M0,13.958H7.294V0H0Z" transform="translate(14.595 34.389)" fill="#0aa5ae" stroke="#231f20" stroke-linecap="round" stroke-linejoin="round" stroke-miterlimit="10" stroke-width="1"/>
      <path id="Stroke_49" data-name="Stroke 49" d="M0,2.409V0" transform="translate(18.266 11.219)" fill="none" stroke="#231f20" stroke-linecap="round" stroke-linejoin="round" stroke-miterlimit="10" stroke-width="1"/>
      <path id="Stroke_52" data-name="Stroke 52" d="M1.962,1.04A1.013,1.013,0,0,0,.98,0,1.011,1.011,0,0,0,0,1.04V5.921H1.962Z" transform="translate(17.261 25.231)" fill="#025458" stroke="#231f20" stroke-miterlimit="10" stroke-width="1"/>
      <path id="Stroke_54" data-name="Stroke 54" d="M1.964,1.035A1.008,1.008,0,0,0,.984,0,1.009,1.009,0,0,0,0,1.035V7.287H1.964Z" transform="translate(17.281 37.167)" fill="#025458" stroke="#231f20" stroke-miterlimit="10" stroke-width="1"/>
      <path id="Stroke_56" data-name="Stroke 56" d="M1.964.991A.987.987,0,0,0,.984,0,.988.988,0,0,0,0,.991V7H1.964Z" transform="translate(17.281 51.91)" fill="#025458" stroke="#231f20" stroke-miterlimit="10" stroke-width="1"/>
      <path id="Stroke_58" data-name="Stroke 58" d="M3.666,39V3.708a5.965,5.965,0,0,0-.092-.983A3.865,3.865,0,0,0,1.831,0,3.883,3.883,0,0,0,.087,2.725,6.262,6.262,0,0,0,0,3.708V39Z" transform="translate(10.942 23.36)" fill="#acfaff" stroke="#231f20" stroke-miterlimit="10" stroke-width="1"/>
      <path id="Stroke_60" data-name="Stroke 60" d="M0,14.082H7.3V0H0Z" transform="translate(3.671 48.346)" fill="#0aa5ae" stroke="#231f20" stroke-linecap="round" stroke-linejoin="round" stroke-miterlimit="10" stroke-width="1"/>
      <path id="Stroke_62" data-name="Stroke 62" d="M0,13.958H7.3V0H0Z" transform="translate(3.671 34.389)" fill="#0aa5ae" stroke="#231f20" stroke-linecap="round" stroke-linejoin="round" stroke-miterlimit="10" stroke-width="1"/>
      <path id="Stroke_64" data-name="Stroke 64" d="M7.3,8.388v-.96a12.042,12.042,0,0,0-.175-1.975A7.767,7.767,0,0,0,3.649,0,7.741,7.741,0,0,0,.178,5.453,11.6,11.6,0,0,0,0,7.428v.96Z" transform="translate(3.671 26.002)" fill="#acfaff" stroke="#231f20" stroke-miterlimit="10" stroke-width="1"/>
      <path id="Stroke_66" data-name="Stroke 66" d="M1.966,1.035A1.007,1.007,0,0,0,.986,0,1.012,1.012,0,0,0,0,1.035V7.287H1.966Z" transform="translate(6.333 37.167)" fill="#025458" stroke="#231f20" stroke-miterlimit="10" stroke-width="1"/>
      <path id="Stroke_68" data-name="Stroke 68" d="M1.966.991A.986.986,0,0,0,.986,0,.991.991,0,0,0,0,.991V7H1.966Z" transform="translate(6.333 51.91)" fill="#025458" stroke="#231f20" stroke-miterlimit="10" stroke-width="1"/>
      <path id="Stroke_70" data-name="Stroke 70" d="M0,2.41V0" transform="translate(7.32 23.592)" fill="none" stroke="#231f20" stroke-linecap="round" stroke-linejoin="round" stroke-miterlimit="10" stroke-width="1"/>
      <path id="Stroke_73" data-name="Stroke 73" d="M0,39V3.708a5.65,5.65,0,0,1,.088-.983A3.858,3.858,0,0,1,1.83,0,3.862,3.862,0,0,1,3.57,2.725a5.911,5.911,0,0,1,.089.983V39Z" transform="translate(43.807 23.36)" fill="#acfaff" stroke="#231f20" stroke-miterlimit="10" stroke-width="1"/>
      <path id="Stroke_75" data-name="Stroke 75" d="M0,27.628V3.7A5.844,5.844,0,0,1,.087,2.72,3.867,3.867,0,0,1,1.831,0,3.854,3.854,0,0,1,3.571,2.72,5.44,5.44,0,0,1,3.66,3.7v23.93Z" transform="translate(54.747 34.736)" fill="#acfaff" stroke="#231f20" stroke-miterlimit="10" stroke-width="1"/>
      <path id="Stroke_77" data-name="Stroke 77" d="M0,14.082H7.295V0H0Z" transform="translate(47.45 48.346)" fill="#0aa5ae" stroke="#231f20" stroke-linecap="round" stroke-linejoin="round" stroke-miterlimit="10" stroke-width="1"/>
      <path id="Stroke_79" data-name="Stroke 79" d="M0,13.958H7.295V0H0Z" transform="translate(47.45 34.389)" fill="#0aa5ae" stroke="#231f20" stroke-linecap="round" stroke-linejoin="round" stroke-miterlimit="10" stroke-width="1"/>
      <path id="Stroke_81" data-name="Stroke 81" d="M0,2.41V0" transform="translate(51.095 23.592)" fill="none" stroke="#231f20" stroke-linecap="round" stroke-linejoin="round" stroke-miterlimit="10" stroke-width="1"/>
      <path id="Stroke_84" data-name="Stroke 84" d="M0,8.388v-.96A12.216,12.216,0,0,1,.172,5.453,7.779,7.779,0,0,1,3.646,0,7.75,7.75,0,0,1,7.118,5.453a11.928,11.928,0,0,1,.176,1.975v.96Z" transform="translate(47.449 26.002)" fill="#acfaff" stroke="#231f20" stroke-miterlimit="10" stroke-width="1"/>
      <path id="Stroke_86" data-name="Stroke 86" d="M0,1.035A1.01,1.01,0,0,1,.983,0a1.008,1.008,0,0,1,.981,1.035V7.287H0Z" transform="translate(50.116 37.167)" fill="#025458" stroke="#231f20" stroke-miterlimit="10" stroke-width="1"/>
      <path id="Stroke_88" data-name="Stroke 88" d="M0,.991A.989.989,0,0,1,.983,0a.987.987,0,0,1,.981.991V7H0Z" transform="translate(50.116 51.91)" fill="#025458" stroke="#231f20" stroke-miterlimit="10" stroke-width="1"/>
      <path id="Stroke_90" data-name="Stroke 90" d="M0,50.379V3.714a6.3,6.3,0,0,1,.087-.985A3.9,3.9,0,0,1,1.722,0,3.92,3.92,0,0,1,3.36,2.728a6.545,6.545,0,0,1,.082.985V50.379Z" transform="translate(33.083 11.985)" fill="#acfaff" stroke="#231f20" stroke-miterlimit="10" stroke-width="1"/>
      <path id="Stroke_92" data-name="Stroke 92" d="M3.664,27.628V3.7a5.953,5.953,0,0,0-.089-.978A3.853,3.853,0,0,0,1.831,0,3.867,3.867,0,0,0,.088,2.72,5.685,5.685,0,0,0,0,3.7v23.93Z" transform="translate(0 34.736)" fill="#acfaff" stroke="#231f20" stroke-miterlimit="10" stroke-width="1"/>
      <path id="Stroke_94" data-name="Stroke 94" d="M7.3,8.388V7.427a12.012,12.012,0,0,0-.176-1.973A7.769,7.769,0,0,0,3.647,0,7.759,7.759,0,0,0,.176,5.454,11.791,11.791,0,0,0,0,7.427v.962Z" transform="translate(36.498 13.628)" fill="#acfaff" stroke="#231f20" stroke-miterlimit="10" stroke-width="1"/>
      <path id="Stroke_96" data-name="Stroke 96" d="M0,14.082H7.3V0H0Z" transform="translate(36.498 48.346)" fill="#0aa5ae" stroke="#231f20" stroke-linecap="round" stroke-linejoin="round" stroke-miterlimit="10" stroke-width="1"/>
      <path id="Stroke_98" data-name="Stroke 98" d="M7.3,12.394H0L.022,0H7.317Z" transform="translate(36.498 21.995)" fill="#0aa5ae" stroke="#231f20" stroke-linecap="round" stroke-linejoin="round" stroke-miterlimit="10" stroke-width="1"/>
      <path id="Stroke_100" data-name="Stroke 100" d="M0,13.958H7.3V0H0Z" transform="translate(36.498 34.389)" fill="#0aa5ae" stroke="#231f20" stroke-linecap="round" stroke-linejoin="round" stroke-miterlimit="10" stroke-width="1"/>
      <path id="Stroke_102" data-name="Stroke 102" d="M0,2.409V0" transform="translate(40.168 11.219)" fill="none" stroke="#231f20" stroke-linecap="round" stroke-linejoin="round" stroke-miterlimit="10" stroke-width="1"/>
      <path id="Stroke_105" data-name="Stroke 105" d="M1.965,1.04A1.014,1.014,0,0,0,.982,0,1.014,1.014,0,0,0,0,1.04V5.921H1.965Z" transform="translate(39.164 25.231)" fill="#025458" stroke="#231f20" stroke-miterlimit="10" stroke-width="1"/>
      <path id="Stroke_107" data-name="Stroke 107" d="M1.961,1.035A1.007,1.007,0,0,0,.981,0,1.007,1.007,0,0,0,0,1.035V7.287H1.961Z" transform="translate(39.187 37.167)" fill="#025458" stroke="#231f20" stroke-miterlimit="10" stroke-width="1"/>
      <path id="Stroke_109" data-name="Stroke 109" d="M1.961.991A.986.986,0,0,0,.981,0,.986.986,0,0,0,0,.991V7H1.961Z" transform="translate(39.187 51.91)" fill="#025458" stroke="#231f20" stroke-miterlimit="10" stroke-width="1"/>
    </g>
    <g id="Jaipur-2" data-name="Jaipur" transform="translate(1032 462.691)">
      <text id="Jaipur-3" data-name="Jaipur" transform="translate(0 13)" fill="#0aa5ae" font-size="14" font-family="Gotham-Book, Gotham"><tspan x="0" y="0">Jaipur</tspan></text>
    </g>
  </g>
</svg>
