<svg xmlns="http://www.w3.org/2000/svg" width="60" height="60" viewBox="0 0 58 84.764">
  <g id="Kolkatta" transform="translate(0 0.5)">
    <path id="Stroke_3" data-name="Stroke 3" d="M0,14.075a56.161,56.161,0,0,1,13.418-1.528,55.9,55.9,0,0,1,13.405,1.527v-7.7l0-.026-.182-2.535s-.016-.36.017-.9A28.218,28.218,0,0,0,13.408,0,28.233,28.233,0,0,0,.18,2.9c.036.546.02.913.02.913L.019,6.347,0,6.543H0v7.531Z" transform="translate(15.176 32.023)" fill="#f2e4c5" stroke="#231f20" stroke-linecap="round" stroke-linejoin="round" stroke-miterlimit="10" stroke-width="1"/>
    <path id="Stroke_7" data-name="Stroke 7" d="M11.087,15.423H.38l-.374-3.94S-.433,3.972,5.736,0C11.9,3.972,11.39,11.542,11.39,11.542Z" transform="translate(21.882 3.188)" fill="#cfb997" stroke="#231f20" stroke-miterlimit="10" stroke-width="1"/>
    <path id="Stroke_11" data-name="Stroke 11" d="M0,3.061V0" transform="translate(27.509)" fill="none" stroke="#231f20" stroke-linecap="round" stroke-linejoin="round" stroke-miterlimit="10" stroke-width="1"/>
    <path id="Stroke_15" data-name="Stroke 15" d="M10.725,4.337l-.012-.174-.178-2.238A8.694,8.694,0,0,1,10.7,0H.016A8.6,8.6,0,0,1,.173,1.925L0,4.163v7.224A36.377,36.377,0,0,1,5.322,11a35.945,35.945,0,0,1,5.408.4V4.337Z" transform="translate(22.552 18.612)" fill="#f2e4c5" stroke="#231f20" stroke-linecap="round" stroke-linejoin="round" stroke-miterlimit="10" stroke-width="1"/>
    <path id="Stroke_19" data-name="Stroke 19" d="M1.674,8.008c.57,0,1.127.018,1.679.039V1.575A1.63,1.63,0,0,0,1.674,0,1.628,1.628,0,0,0,0,1.575V8.047C.555,8.025,1.109,8.008,1.674,8.008Z" transform="translate(26.576 21.294)" fill="#cfb997" stroke="#231f20" stroke-miterlimit="10" stroke-width="1"/>
    <path id="Stroke_23" data-name="Stroke 23" d="M0,2.012V0" transform="translate(18.529 11.235)" fill="none" stroke="#231f20" stroke-linecap="round" stroke-linejoin="round" stroke-miterlimit="10" stroke-width="1"/>
    <path id="Stroke_27" data-name="Stroke 27" d="M7.846,5.139h.019A7.539,7.539,0,0,0,4.05,0,7.8,7.8,0,0,0,0,6.99l.263,2.4H7.832l.014-.17.195-2.193a7.39,7.39,0,0,0-.176-1.886Z" transform="translate(14.505 13.247)" fill="#cfb997" stroke="#231f20" stroke-miterlimit="10" stroke-width="1"/>
    <path id="Fill_29" data-name="Fill 29" d="M7.376,7.369V0H0V9.388A27.855,27.855,0,0,1,7.376,7.369" transform="translate(15.176 22.635)" fill="#f2e4c5"/>
    <path id="Stroke_31" data-name="Stroke 31" d="M7.376,7.369V0H0V9.388A27.855,27.855,0,0,1,7.376,7.369Z" transform="translate(15.176 22.635)" fill="none" stroke="#231f20" stroke-miterlimit="10" stroke-width="1"/>
    <path id="Stroke_35" data-name="Stroke 35" d="M2.012,5.526V.969A.99.99,0,0,0,1.006,0,.988.988,0,0,0,0,.969V6.035Q.958,5.754,2.012,5.526Z" transform="translate(17.858 24.647)" fill="#cfb997" stroke="#231f20" stroke-miterlimit="10" stroke-width="1"/>
    <path id="Fill_37" data-name="Fill 37" d="M0,2.207V0" transform="translate(37.106 9.969)" fill="#fff"/>
    <path id="Stroke_39" data-name="Stroke 39" d="M0,2.207V0" transform="translate(37.305 11.235)" fill="none" stroke="#231f20" stroke-linecap="round" stroke-linejoin="round" stroke-miterlimit="10" stroke-width="1"/>
    <path id="Stroke_43" data-name="Stroke 43" d="M.205,5.139H.186A7.553,7.553,0,0,1,4,0,7.807,7.807,0,0,1,8.042,6.99l-.263,2.4H.219l-.013-.17-.2-2.193a7.475,7.475,0,0,1,.18-1.886Z" transform="translate(33.282 13.247)" fill="#cfb997" stroke="#231f20" stroke-miterlimit="10" stroke-width="1"/>
    <path id="Stroke_47" data-name="Stroke 47" d="M0,7.369V0H8.047V9.388A32.537,32.537,0,0,0,0,7.369Z" transform="translate(33.282 22.635)" fill="#f2e4c5" stroke="#231f20" stroke-miterlimit="10" stroke-width="1"/>
    <path id="Stroke_51" data-name="Stroke 51" d="M0,5.526V.969A.986.986,0,0,1,1,0,.989.989,0,0,1,2.012.969V6.035C1.372,5.848.7,5.677,0,5.526Z" transform="translate(35.964 24.647)" fill="#cfb997" stroke="#231f20" stroke-miterlimit="10" stroke-width="1"/>
    <path id="Stroke_55" data-name="Stroke 55" d="M0,2.484V0" transform="translate(45.283 25.896)" fill="none" stroke="#231f20" stroke-linecap="round" stroke-linejoin="round" stroke-miterlimit="10" stroke-width="1"/>
    <path id="Stroke_59" data-name="Stroke 59" d="M.185,5.138H.167A7.545,7.545,0,0,1,3.665,0,8.049,8.049,0,0,1,7.372,6.988l-.241,2.4H.2l-.012-.17L.007,7.027A7.844,7.844,0,0,1,.167,5.138Z" transform="translate(41.329 28.67)" fill="#cfb997" stroke="#231f20" stroke-miterlimit="10" stroke-width="1"/>
    <path id="Stroke_63" data-name="Stroke 63" d="M6.73,9.132c.214.087.445.167.647.256V0H0V6.945A32.592,32.592,0,0,1,6.73,9.132Z" transform="translate(41.329 38.059)" fill="#f2e4c5" stroke="#231f20" stroke-miterlimit="10" stroke-width="1"/>
    <path id="Stroke_67" data-name="Stroke 67" d="M2.012,6.035V.984A1,1,0,0,0,1,0,.994.994,0,0,0,0,.984v4.4C.707,5.589,1.374,5.805,2.012,6.035Z" transform="translate(44.011 40.07)" fill="#cfb997" stroke="#231f20" stroke-miterlimit="10" stroke-width="1"/>
    <path id="Stroke_71" data-name="Stroke 71" d="M13.073,0C7.812,0,3.114,1.055,0,2.713v2c.008.053.025.11.034.16A9.158,9.158,0,0,1,.175,6.027a29.237,29.237,0,0,1,12.9-2.63A29.22,29.22,0,0,1,25.989,6.035a9.28,9.28,0,0,1,.143-1.161c.006-.027.015-.056.021-.084V2.713C23.036,1.055,18.334,0,13.073,0Z" transform="translate(15.176 29.341)" fill="#cfb997" stroke="#231f20" stroke-linecap="round" stroke-linejoin="round" stroke-miterlimit="10" stroke-width="1"/>
    <path id="Stroke_75" data-name="Stroke 75" d="M0,2.484V0" transform="translate(11.431 25.896)" fill="none" stroke="#231f20" stroke-linecap="round" stroke-linejoin="round" stroke-miterlimit="10" stroke-width="1"/>
    <path id="Stroke_79" data-name="Stroke 79" d="M7.193,5.138h.016A7.551,7.551,0,0,0,3.712,0,8.049,8.049,0,0,0,0,6.988l.24,2.4H7.177l.016-.17L7.37,7.027a8,8,0,0,0-.162-1.888Z" transform="translate(7.799 28.67)" fill="#cfb997" stroke="#231f20" stroke-miterlimit="10" stroke-width="1"/>
    <path id="Stroke_83" data-name="Stroke 83" d="M7.376,6.945V0H0V9.388C.2,9.3.439,9.217.654,9.13A32.725,32.725,0,0,1,7.376,6.945Z" transform="translate(7.799 38.059)" fill="#f2e4c5" stroke="#231f20" stroke-miterlimit="10" stroke-width="1"/>
    <path id="Stroke_87" data-name="Stroke 87" d="M2.012,5.385V.984A1,1,0,0,0,1.005,0,1,1,0,0,0,0,.984V6.035Q.952,5.69,2.012,5.385Z" transform="translate(10.482 40.07)" fill="#cfb997" stroke="#231f20" stroke-miterlimit="10" stroke-width="1"/>
    <path id="Stroke_95" data-name="Stroke 95" d="M41.576,3.972C37.17,1.581,29.543,0,20.869,0,12.087,0,4.378,1.624,0,4.061V18.106H41.576Z" transform="translate(7.799 46.776)" fill="#f2e4c5" stroke="#231f20" stroke-linecap="round" stroke-linejoin="round" stroke-miterlimit="10" stroke-width="1"/>
    <path id="Stroke_99" data-name="Stroke 99" d="M3.353,6.706V1.546A1.615,1.615,0,0,0,1.675,0,1.611,1.611,0,0,0,0,1.546V6.392Q1.721,6.522,3.353,6.706Z" transform="translate(33.952 38.059)" fill="#cfb997" stroke="#231f20" stroke-miterlimit="10" stroke-width="1"/>
    <path id="Stroke_103" data-name="Stroke 103" d="M1.685,8.029c.561,0,1.116.008,1.668.018V1.634A1.656,1.656,0,0,0,1.674,0,1.654,1.654,0,0,0,0,1.634V8.047C.56,8.037,1.12,8.029,1.685,8.029Z" transform="translate(26.576 36.717)" fill="#cfb997" stroke="#231f20" stroke-miterlimit="10" stroke-width="1"/>
    <path id="Stroke_107" data-name="Stroke 107" d="M3.353,6.388V1.543A1.613,1.613,0,0,0,1.679,0,1.615,1.615,0,0,0,0,1.543V6.706Q1.631,6.513,3.353,6.388Z" transform="translate(19.87 38.059)" fill="#cfb997" stroke="#231f20" stroke-miterlimit="10" stroke-width="1"/>
    <path id="Stroke_91" data-name="Stroke 91" d="M0,8.718C3.757,5.766,12.394,3.7,22.462,3.7S41.175,5.766,44.929,8.718v-3.7C41.175,2.064,32.534,0,22.462,0S3.757,2.064,0,5.013Z" transform="translate(5.788 43.423)" fill="#f2e4c5" stroke="#231f20" stroke-linecap="round" stroke-linejoin="round" stroke-miterlimit="10" stroke-width="1"/>
    <path id="Stroke_111" data-name="Stroke 111" d="M2.347,0A2.337,2.337,0,0,0,0,2.329v7.06H4.694V2.329A2.339,2.339,0,0,0,2.347,0Z" transform="translate(25.905 55.494)" fill="#cfb997" stroke="#231f20" stroke-miterlimit="10" stroke-width="1"/>
    <path id="Stroke_115" data-name="Stroke 115" d="M2.349,0A2.339,2.339,0,0,0,0,2.329v7.06H4.694V2.329A2.338,2.338,0,0,0,2.349,0Z" transform="translate(17.858 55.494)" fill="#cfb997" stroke="#231f20" stroke-miterlimit="10" stroke-width="1"/>
    <path id="Stroke_119" data-name="Stroke 119" d="M2.346,0A2.339,2.339,0,0,0,0,2.329v7.06H4.694V2.329A2.338,2.338,0,0,0,2.346,0Z" transform="translate(10.482 55.494)" fill="#cfb997" stroke="#231f20" stroke-miterlimit="10" stroke-width="1"/>
    <path id="Stroke_123" data-name="Stroke 123" d="M2.348,0A2.339,2.339,0,0,0,0,2.329v7.06H4.694V2.329A2.337,2.337,0,0,0,2.348,0Z" transform="translate(33.282 55.494)" fill="#cfb997" stroke="#231f20" stroke-miterlimit="10" stroke-width="1"/>
    <path id="Stroke_127" data-name="Stroke 127" d="M2.345,0A2.338,2.338,0,0,0,0,2.329v7.06H4.694V2.329A2.34,2.34,0,0,0,2.345,0Z" transform="translate(41.329 55.494)" fill="#cfb997" stroke="#231f20" stroke-miterlimit="10" stroke-width="1"/>
    <text id="Kolkatta-2" data-name="Kolkatta" transform="translate(0 81.264)" fill="#fff" font-size="14" font-family="Gotham-Book, Gotham"><tspan x="0" y="0">Kolkatta</tspan></text>
  </g>
</svg>
