<svg id="location" xmlns="http://www.w3.org/2000/svg" width="23.598" height="22.938" viewBox="0 0 23.598 22.938">
  <defs>
    <style>
      .cls-1 {
        fill: #0aa5ae;
      }
    </style>
  </defs>
  <path id="Path_102" data-name="Path 102" class="cls-1" d="M55.271,25.27a3.024,3.024,0,1,0-3.024,3.024,3.024,3.024,0,0,0,3.024-3.024Zm-5.332,0a2.308,2.308,0,1,1,2.308,2.308A2.308,2.308,0,0,1,49.939,25.27Z" transform="translate(-40.448 -18.762)"/>
  <path id="Path_103" data-name="Path 103" class="cls-1" d="M28.131,27.04,25.3,19.824a.347.347,0,0,0-.325-.217H19.615l.1-.154c2.062-3.319,3.1-6.222,3.085-8.628a6.356,6.356,0,0,0-6.444-6.265,6.356,6.356,0,0,0-6.444,6.264C9.9,13.23,10.934,16.134,13,19.452c.033.053.065.1.1.154H7.735a.347.347,0,0,0-.325.217L4.579,27.04a.329.329,0,0,0,.038.312A.35.35,0,0,0,4.9,27.5h22.9a.35.35,0,0,0,.286-.146.329.329,0,0,0,.038-.312ZM10.606,10.823a5.751,5.751,0,0,1,11.5,0c.03,4.8-4.583,10.713-5.749,12.131-1.166-1.418-5.779-7.332-5.749-12.132ZM16.09,23.708a.354.354,0,0,0,.529,0,35.89,35.89,0,0,0,2.56-3.427h5.555l.445,1.134L14.324,25.168l-3.869-4.887h3.075a35.891,35.891,0,0,0,2.561,3.427Zm-1.778,2.18h0L20.79,23.65,23.3,26.823H11.611ZM7.974,20.281h1.6l4.057,5.125-4.1,1.417H5.408Zm16.205,6.542-2.7-3.412,3.95-1.366L27.3,26.823Z" transform="translate(-4.556 -4.56)"/>
</svg>
