<svg xmlns="http://www.w3.org/2000/svg" width="60" height="60" viewBox="0 0 70.741 69.506">
  <g id="Lucknow" transform="translate(0.5 0.501)">
    <path id="Stroke_2" data-name="Stroke 2" d="M0,31.517H67.729V0H0Z" transform="translate(0.671 18.106)" fill="none" stroke="#231f20" stroke-linecap="round" stroke-linejoin="round" stroke-miterlimit="10" stroke-width="1"/>
    <path id="Stroke_5" data-name="Stroke 5" d="M0,21.459H67.729V0H0Z" transform="translate(0.671 28.165)" fill="#faf3d3" stroke="#231f20" stroke-linecap="round" stroke-linejoin="round" stroke-miterlimit="10" stroke-width="1"/>
    <path id="Stroke_8" data-name="Stroke 8" d="M10.727,7.045A6.947,6.947,0,0,0,5.365,0,6.952,6.952,0,0,0,0,7.045v8.379H10.729Z" transform="translate(9.388 34.2)" fill="#e2d9ad" stroke="#231f20" stroke-linecap="round" stroke-linejoin="round" stroke-miterlimit="10" stroke-width="1"/>
    <path id="Stroke_10" data-name="Stroke 10" d="M10.724,7.045A6.946,6.946,0,0,0,5.364,0,6.949,6.949,0,0,0,0,7.045v8.379H10.729Z" transform="translate(29.506 34.2)" fill="#e2d9ad" stroke="#231f20" stroke-linecap="round" stroke-linejoin="round" stroke-miterlimit="10" stroke-width="1"/>
    <path id="Stroke_12" data-name="Stroke 12" d="M10.724,7.045A6.945,6.945,0,0,0,5.363,0,6.947,6.947,0,0,0,0,7.045v8.379H10.729Z" transform="translate(48.953 34.2)" fill="#e2d9ad" stroke="#231f20" stroke-linecap="round" stroke-linejoin="round" stroke-miterlimit="10" stroke-width="1"/>
    <path id="Stroke_14" data-name="Stroke 14" d="M0,10.059H67.729V0H0Z" transform="translate(0.671 18.106)" fill="#faf3d3" stroke="#231f20" stroke-linecap="round" stroke-linejoin="round" stroke-miterlimit="10" stroke-width="1"/>
    <path id="Stroke_16" data-name="Stroke 16" d="M4.693,2.757A2.841,2.841,0,0,0,2.35,0,2.848,2.848,0,0,0,0,2.757V6.035H4.693Z" transform="translate(6.035 22.129)" fill="#e2d9ad" stroke="#231f20" stroke-linecap="round" stroke-linejoin="round" stroke-miterlimit="10" stroke-width="1"/>
    <path id="Stroke_18" data-name="Stroke 18" d="M4.693,2.756A2.847,2.847,0,0,0,2.348,0,2.845,2.845,0,0,0,0,2.756V6.035H4.693Z" transform="translate(14.753 22.129)" fill="#e2d9ad" stroke="#231f20" stroke-linecap="round" stroke-linejoin="round" stroke-miterlimit="10" stroke-width="1"/>
    <path id="Stroke_20" data-name="Stroke 20" d="M4.69,2.756A2.843,2.843,0,0,0,2.348,0,2.852,2.852,0,0,0,0,2.756V6.035H4.694Z" transform="translate(23.47 22.129)" fill="#e2d9ad" stroke="#231f20" stroke-linecap="round" stroke-linejoin="round" stroke-miterlimit="10" stroke-width="1"/>
    <path id="Stroke_22" data-name="Stroke 22" d="M4.693,2.756A2.85,2.85,0,0,0,2.348,0,2.847,2.847,0,0,0,0,2.756V6.035H4.693Z" transform="translate(32.859 22.129)" fill="#e2d9ad" stroke="#231f20" stroke-linecap="round" stroke-linejoin="round" stroke-miterlimit="10" stroke-width="1"/>
    <path id="Stroke_24" data-name="Stroke 24" d="M4.693,2.756A2.849,2.849,0,0,0,2.348,0,2.848,2.848,0,0,0,0,2.756V6.035H4.693Z" transform="translate(41.576 22.129)" fill="#e2d9ad" stroke="#231f20" stroke-linecap="round" stroke-linejoin="round" stroke-miterlimit="10" stroke-width="1"/>
    <path id="Stroke_26" data-name="Stroke 26" d="M4.693,2.756A2.85,2.85,0,0,0,2.348,0,2.851,2.851,0,0,0,0,2.756V6.035H4.693Z" transform="translate(50.294 22.129)" fill="#e2d9ad" stroke="#231f20" stroke-linecap="round" stroke-linejoin="round" stroke-miterlimit="10" stroke-width="1"/>
    <path id="Stroke_28" data-name="Stroke 28" d="M4.693,2.756A2.848,2.848,0,0,0,2.345,0,2.845,2.845,0,0,0,0,2.756V6.035H4.693Z" transform="translate(59.011 22.129)" fill="#e2d9ad" stroke="#231f20" stroke-linecap="round" stroke-linejoin="round" stroke-miterlimit="10" stroke-width="1"/>
    <path id="Stroke_30" data-name="Stroke 30" d="M4.018,4.024H0L.008,0H4.024Z" transform="translate(0.671 14.082)" fill="#e2d9ad" stroke="#231f20" stroke-linecap="round" stroke-linejoin="round" stroke-miterlimit="10" stroke-width="1"/>
    <path id="Stroke_32" data-name="Stroke 32" d="M3.352,4.694H0L.007,0H3.353Z" transform="translate(0.671 6.035)" fill="#e2d9ad" stroke="#231f20" stroke-linecap="round" stroke-linejoin="round" stroke-miterlimit="10" stroke-width="1"/>
    <path id="Stroke_34" data-name="Stroke 34" d="M4.693,2.906A2.935,2.935,0,0,0,2.345,0,2.932,2.932,0,0,0,0,2.906v.032A1.025,1.025,0,0,0,.957,4.024h2.78a1.029,1.029,0,0,0,.957-1.085Z" transform="translate(0 2.012)" fill="#faf3d3" stroke="#231f20" stroke-linecap="round" stroke-linejoin="round" stroke-miterlimit="10" stroke-width="1"/>
    <path id="Stroke_36" data-name="Stroke 36" d="M0,2.012V0" transform="translate(2.682)" fill="none" stroke="#231f20" stroke-linecap="round" stroke-linejoin="round" stroke-miterlimit="10" stroke-width="1"/>
    <path id="Stroke_39" data-name="Stroke 39" d="M5.365,2.291A1.066,1.066,0,0,1,4.3,3.353H1.068A1.067,1.067,0,0,1,0,2.291V1.062A1.065,1.065,0,0,1,1.068,0H4.3A1.064,1.064,0,0,1,5.365,1.062Z" transform="translate(0 10.729)" fill="#faf3d3" stroke="#231f20" stroke-linecap="round" stroke-linejoin="round" stroke-miterlimit="10" stroke-width="1"/>
    <path id="Stroke_41" data-name="Stroke 41" d="M3.349,4.024H0L.005,0H3.353Z" transform="translate(65.047 14.082)" fill="#e2d9ad" stroke="#231f20" stroke-linecap="round" stroke-linejoin="round" stroke-miterlimit="10" stroke-width="1"/>
    <path id="Stroke_43" data-name="Stroke 43" d="M3.349,4.694H0L.005,0H3.353Z" transform="translate(65.047 6.035)" fill="#e2d9ad" stroke="#231f20" stroke-linecap="round" stroke-linejoin="round" stroke-miterlimit="10" stroke-width="1"/>
    <path id="Stroke_45" data-name="Stroke 45" d="M4.693,2.906A2.934,2.934,0,0,0,2.342,0,2.928,2.928,0,0,0,0,2.906v.032A1.026,1.026,0,0,0,.956,4.024h2.78a1.027,1.027,0,0,0,.957-1.085Z" transform="translate(64.376 2.012)" fill="#faf3d3" stroke="#231f20" stroke-linecap="round" stroke-linejoin="round" stroke-miterlimit="10" stroke-width="1"/>
    <path id="Stroke_47" data-name="Stroke 47" d="M0,2.012,0,0" transform="translate(67.058)" fill="none" stroke="#231f20" stroke-linecap="round" stroke-linejoin="round" stroke-miterlimit="10" stroke-width="1"/>
    <path id="Stroke_50" data-name="Stroke 50" d="M5.365,2.291A1.066,1.066,0,0,1,4.3,3.353H1.069A1.066,1.066,0,0,1,0,2.291V1.062A1.065,1.065,0,0,1,1.069,0H4.3A1.065,1.065,0,0,1,5.365,1.062Z" transform="translate(64.376 10.729)" fill="#faf3d3" stroke="#231f20" stroke-linecap="round" stroke-linejoin="round" stroke-miterlimit="10" stroke-width="1"/>
    <path id="Stroke_54" data-name="Stroke 54" d="M.966,0A1.175,1.175,0,0,1,.989.117V1.309A1.012,1.012,0,0,1,0,2.34V6.706H9.388V0Z" transform="translate(4.694 11.4)" fill="#e2d9ad" stroke="#231f20" stroke-linecap="round" stroke-linejoin="round" stroke-miterlimit="10" stroke-width="1"/>
    <path id="Stroke_56" data-name="Stroke 56" d="M0,6.706H10.059V0H0Z" transform="translate(14.082 11.4)" fill="#e2d9ad" stroke="#231f20" stroke-linecap="round" stroke-linejoin="round" stroke-miterlimit="10" stroke-width="1"/>
    <path id="Stroke_58" data-name="Stroke 58" d="M0,6.706H10.729V0H0Z" transform="translate(24.141 11.4)" fill="#e2d9ad" stroke="#231f20" stroke-linecap="round" stroke-linejoin="round" stroke-miterlimit="10" stroke-width="1"/>
    <path id="Stroke_60" data-name="Stroke 60" d="M0,6.706H10.059V0H0Z" transform="translate(34.87 11.4)" fill="#e2d9ad" stroke="#231f20" stroke-linecap="round" stroke-linejoin="round" stroke-miterlimit="10" stroke-width="1"/>
    <path id="Stroke_62" data-name="Stroke 62" d="M0,6.706H10.059V0H0Z" transform="translate(44.929 11.4)" fill="#e2d9ad" stroke="#231f20" stroke-linecap="round" stroke-linejoin="round" stroke-miterlimit="10" stroke-width="1"/>
    <path id="Stroke_64" data-name="Stroke 64" d="M10.058,2.34A1.047,1.047,0,0,1,9,1.309V.117A1.11,1.11,0,0,1,9.021,0H0V6.706H10.059V2.34Z" transform="translate(54.988 11.4)" fill="#e2d9ad" stroke="#231f20" stroke-linecap="round" stroke-linejoin="round" stroke-miterlimit="10" stroke-width="1"/>
    <text id="Lucknow-2" data-name="Lucknow" transform="translate(3.439 66.005)" fill="#fff" font-size="14" font-family="Gotham-Book, Gotham"><tspan x="0" y="0">Lucknow</tspan></text>
  </g>
</svg>
