<svg xmlns="http://www.w3.org/2000/svg" width="60" height="60" viewBox="0 0 69.4 69.409">
  <g id="Mumbai" transform="translate(0.5 0.5)">
    <path id="Stroke_3" data-name="Stroke 3" d="M16.9,1.658V.514A3.259,3.259,0,0,1,16.9,0H0V4.694H18.106V2.7h-.233A1.011,1.011,0,0,1,16.9,1.658Z" transform="translate(0 26.823)" fill="#cfb997" stroke="#231f20" stroke-linecap="round" stroke-linejoin="round" stroke-miterlimit="10" stroke-width="1"/>
    <path id="Stroke_7" data-name="Stroke 7" d="M16.9,4.165a.93.93,0,0,1,.976-.879h.233L18.1,0H0V4.694H16.9Z" transform="translate(0 22.129)" fill="#f2e4c5" stroke="#231f20" stroke-linecap="round" stroke-linejoin="round" stroke-miterlimit="10" stroke-width="1"/>
    <path id="Stroke_11" data-name="Stroke 11" d="M0,17.435H18.106V0H0Z" transform="translate(0 31.517)" fill="#f2e4c5" stroke="#231f20" stroke-linecap="round" stroke-linejoin="round" stroke-miterlimit="10" stroke-width="1"/>
    <path id="Stroke_13" data-name="Stroke 13" d="M5.029,14.753h5.029V6.966l-.618-.55A6.134,6.134,0,0,0,5.029,0,6.136,6.136,0,0,0,.616,6.416L0,6.966v7.787Z" transform="translate(4.024 34.2)" fill="#cfb997" stroke="#231f20" stroke-linecap="round" stroke-linejoin="round" stroke-miterlimit="10" stroke-width="1"/>
    <path id="Stroke_17" data-name="Stroke 17" d="M20.9,0H1.233V3.15a.991.991,0,0,1-1,.986H0V23.47H22.127l0-19.335V4.108h-.237a.991.991,0,0,1-1-.985V0Z" transform="translate(23.47 25.482)" fill="#f2e4c5" stroke="#231f20" stroke-linecap="round" stroke-linejoin="round" stroke-miterlimit="10" stroke-width="1"/>
    <path id="Fill_18" data-name="Fill 18" d="M6.706,2.392a.968.968,0,0,1-.973.961H.971A.966.966,0,0,1,0,2.392V.961A.966.966,0,0,1,.971,0H5.732a.967.967,0,0,1,.973.961Z" transform="translate(44.259 17.435)" fill="#fff"/>
    <path id="Stroke_19" data-name="Stroke 19" d="M6.706,2.392a.968.968,0,0,1-.973.961H.971A.966.966,0,0,1,0,2.392V.961A.966.966,0,0,1,.971,0H5.732a.967.967,0,0,1,.973.961Z" transform="translate(44.259 17.435)" fill="none" stroke="#231f20" stroke-linecap="round" stroke-linejoin="round" stroke-miterlimit="10" stroke-width="1"/>
    <path id="Stroke_21" data-name="Stroke 21" d="M.8,0V.566h0A.962.962,0,0,1,.032,1.5L0,1.539v4.5H10.729V0Z" transform="translate(23.47 19.447)" fill="#cfb997" stroke="#231f20" stroke-linecap="round" stroke-linejoin="round" stroke-miterlimit="10" stroke-width="1"/>
    <path id="Stroke_23" data-name="Stroke 23" d="M9.935.575,9.927.565V0H0V6.035H10.729V1.54l-.057-.071A.959.959,0,0,1,9.935.575Z" transform="translate(34.2 19.447)" fill="#cfb997" stroke="#231f20" stroke-linecap="round" stroke-linejoin="round" stroke-miterlimit="10" stroke-width="1"/>
    <path id="Stroke_25" data-name="Stroke 25" d="M2.679,4.024H0L0,0H2.682Z" transform="translate(19.447 13.412)" fill="#cfb997" stroke="#231f20" stroke-linecap="round" stroke-linejoin="round" stroke-miterlimit="10" stroke-width="1"/>
    <path id="Stroke_27" data-name="Stroke 27" d="M2.681,3.353H0L0,0H2.682Z" transform="translate(19.447 6.706)" fill="#cfb997" stroke="#231f20" stroke-linecap="round" stroke-linejoin="round" stroke-miterlimit="10" stroke-width="1"/>
    <path id="Stroke_29" data-name="Stroke 29" d="M5.365,4.694H0V0H5.363Z" transform="translate(18.106 20.788)" fill="#cfb997" stroke="#231f20" stroke-linecap="round" stroke-linejoin="round" stroke-miterlimit="10" stroke-width="1"/>
    <path id="Stroke_31" data-name="Stroke 31" d="M5.365,19.447H0L0,0H5.365Z" transform="translate(18.106 29.506)" fill="#cfb997" stroke="#231f20" stroke-linecap="round" stroke-linejoin="round" stroke-miterlimit="10" stroke-width="1"/>
    <path id="Stroke_33" data-name="Stroke 33" d="M4.023,2.905A2.784,2.784,0,0,0,2.009,0,2.783,2.783,0,0,0,0,2.905v.031c0,.6.367,1.087.819,1.087H3.2c.452,0,.819-.487.819-1.087Z" transform="translate(18.776 2.682)" fill="#f2e4c5" stroke="#231f20" stroke-linecap="round" stroke-linejoin="round" stroke-miterlimit="10" stroke-width="1"/>
    <path id="Fill_34" data-name="Fill 34" d="M0,2.347,0,0" transform="translate(20.882 0.818)" fill="#fff"/>
    <path id="Stroke_35" data-name="Stroke 35" d="M0,2.347,0,0" transform="translate(20.788)" fill="none" stroke="#231f20" stroke-linecap="round" stroke-linejoin="round" stroke-miterlimit="10" stroke-width="1"/>
    <path id="Stroke_38" data-name="Stroke 38" d="M4.694,2.292a1,1,0,0,1-.933,1.061H.933A1,1,0,0,1,0,2.292V1.062A1,1,0,0,1,.933,0H3.761a1,1,0,0,1,.933,1.062Z" transform="translate(18.106 10.059)" fill="#f2e4c5" stroke="#231f20" stroke-linecap="round" stroke-linejoin="round" stroke-miterlimit="10" stroke-width="1"/>
    <path id="Stroke_40" data-name="Stroke 40" d="M6.706,2.393a.967.967,0,0,1-.971.96H.973A.967.967,0,0,1,0,2.393V.96A.967.967,0,0,1,.973,0H5.734a.967.967,0,0,1,.971.96Z" transform="translate(17.435 17.435)" fill="#f2e4c5" stroke="#231f20" stroke-linecap="round" stroke-linejoin="round" stroke-miterlimit="10" stroke-width="1"/>
    <path id="Stroke_44" data-name="Stroke 44" d="M22.229,6.035V5.088a.982.982,0,0,1,.986-.976h.926V0H0V4.138H.927a.981.981,0,0,1,.985.976v.92Z" transform="translate(22.129 13.412)" fill="#f2e4c5" stroke="#231f20" stroke-linecap="round" stroke-linejoin="round" stroke-miterlimit="10" stroke-width="1"/>
    <path id="Stroke_46" data-name="Stroke 46" d="M2.681,4.024H0L0,0H2.682Z" transform="translate(46.27 13.412)" fill="#cfb997" stroke="#231f20" stroke-linecap="round" stroke-linejoin="round" stroke-miterlimit="10" stroke-width="1"/>
    <path id="Stroke_48" data-name="Stroke 48" d="M2.682,3.353H0L0,0H2.682Z" transform="translate(46.27 6.706)" fill="#cfb997" stroke="#231f20" stroke-linecap="round" stroke-linejoin="round" stroke-miterlimit="10" stroke-width="1"/>
    <path id="Stroke_50" data-name="Stroke 50" d="M5.365,4.694H0V0H5.36Z" transform="translate(44.929 20.788)" fill="#cfb997" stroke="#231f20" stroke-linecap="round" stroke-linejoin="round" stroke-miterlimit="10" stroke-width="1"/>
    <path id="Stroke_52" data-name="Stroke 52" d="M4.694,19.447H0L0,0H4.694Z" transform="translate(45.6 29.506)" fill="#cfb997" stroke="#231f20" stroke-linecap="round" stroke-linejoin="round" stroke-miterlimit="10" stroke-width="1"/>
    <path id="Stroke_54" data-name="Stroke 54" d="M4.023,2.905A2.784,2.784,0,0,0,2.01,0,2.785,2.785,0,0,0,0,2.905v.031c0,.6.365,1.087.817,1.087H3.2c.452,0,.819-.487.819-1.087Z" transform="translate(45.6 2.682)" fill="#f2e4c5" stroke="#231f20" stroke-linecap="round" stroke-linejoin="round" stroke-miterlimit="10" stroke-width="1"/>
    <path id="Fill_55" data-name="Fill 55" d="M0,2.347,0,0" transform="translate(47.754 0.788)" fill="#fff"/>
    <path id="Stroke_56" data-name="Stroke 56" d="M0,2.347,0,0" transform="translate(47.612)" fill="none" stroke="#231f20" stroke-linecap="round" stroke-linejoin="round" stroke-miterlimit="10" stroke-width="1"/>
    <path id="Stroke_59" data-name="Stroke 59" d="M4.694,2.291a1,1,0,0,1-.933,1.062H.933A1,1,0,0,1,0,2.291V1.061A1,1,0,0,1,.933,0H3.761a1,1,0,0,1,.933,1.061Z" transform="translate(44.929 10.059)" fill="#f2e4c5" stroke="#231f20" stroke-linecap="round" stroke-linejoin="round" stroke-miterlimit="10" stroke-width="1"/>
    <path id="Stroke_61" data-name="Stroke 61" d="M6.706,2.392a.968.968,0,0,1-.973.961H.971A.966.966,0,0,1,0,2.392V.961A.966.966,0,0,1,.971,0H5.732a.967.967,0,0,1,.973.961Z" transform="translate(44.259 17.435)" fill="#f2e4c5" stroke="#231f20" stroke-linecap="round" stroke-linejoin="round" stroke-miterlimit="10" stroke-width="1"/>
    <path id="Stroke_63" data-name="Stroke 63" d="M7.376,3.065a.958.958,0,0,1-.958.959H.958A.959.959,0,0,1,0,3.065V.959A.957.957,0,0,1,.958,0H6.419a.957.957,0,0,1,.958.959Z" transform="translate(44.259 25.482)" fill="#f2e4c5" stroke="#231f20" stroke-linecap="round" stroke-linejoin="round" stroke-miterlimit="10" stroke-width="1"/>
    <path id="Stroke_63_Copy" data-name="Stroke 63 Copy" d="M8.047,3.065A1,1,0,0,1,7,4.024H1.045A1,1,0,0,1,0,3.065V.959A1,1,0,0,1,1.045,0H7A1,1,0,0,1,8.047.959Z" transform="translate(16.765 25.482)" fill="#f2e4c5" stroke="#231f20" stroke-linecap="round" stroke-linejoin="round" stroke-miterlimit="10" stroke-width="1"/>
    <path id="Stroke_65" data-name="Stroke 65" d="M7.712,20.788h7.712V9.817l-.946-.774A8.865,8.865,0,0,0,7.712,0,8.865,8.865,0,0,0,.946,9.043L0,9.817V20.788Z" transform="translate(26.153 28.165)" fill="#cfb997" stroke="#231f20" stroke-linecap="round" stroke-linejoin="round" stroke-miterlimit="10" stroke-width="1"/>
    <path id="Stroke_67" data-name="Stroke 67" d="M0,17.435H18.106V0H0Z" transform="translate(50.294 31.517)" fill="#f2e4c5" stroke="#231f20" stroke-linecap="round" stroke-linejoin="round" stroke-miterlimit="10" stroke-width="1"/>
    <path id="Stroke_69" data-name="Stroke 69" d="M0,0,0,3.262H.232a.929.929,0,0,1,.975.878v.554h16.9V0Z" transform="translate(50.294 22.129)" fill="#f2e4c5" stroke="#231f20" stroke-linecap="round" stroke-linejoin="round" stroke-miterlimit="10" stroke-width="1"/>
    <path id="Stroke_71" data-name="Stroke 71" d="M1.21,0a3.26,3.26,0,0,1,0,.514c0,.01,0,.016,0,.025V1.632A1.009,1.009,0,0,1,.231,2.673H0V4.694H18.106V0Z" transform="translate(50.294 26.823)" fill="#cfb997" stroke="#231f20" stroke-linecap="round" stroke-linejoin="round" stroke-miterlimit="10" stroke-width="1"/>
    <path id="Fill_74" data-name="Fill 74" d="M5.029,14.753H0V6.966l.618-.55A6.134,6.134,0,0,1,5.029,0,6.136,6.136,0,0,1,9.442,6.416l.616.55v7.787Z" transform="translate(54.317 34.2)" fill="#cfb997"/>
    <path id="Stroke_75" data-name="Stroke 75" d="M5.029,14.753H0V6.966l.618-.55A6.134,6.134,0,0,1,5.029,0,6.136,6.136,0,0,1,9.442,6.416l.616.55v7.787Z" transform="translate(54.317 34.2)" fill="none" stroke="#231f20" stroke-linecap="round" stroke-linejoin="round" stroke-miterlimit="10" stroke-width="1"/>
    <text id="Mumbai-2" data-name="Mumbai" transform="translate(34.701 65.908)" fill="#fff" font-size="14" font-family="Gotham-Book, Gotham"><tspan x="-27.587" y="0">Mumbai</tspan></text>
  </g>
</svg>
