<svg xmlns="http://www.w3.org/2000/svg" width="592.484" height="385.41" viewBox="0 0 592.484 385.41">
  <g id="No_Dates" data-name="No Dates" transform="translate(-56.11 -130.291)">
    <g id="Shadow" transform="translate(56.11 481.11)">
      <ellipse id="_Path_" data-name="&lt;Path&gt;" cx="296.242" cy="17.296" rx="296.242" ry="17.296" transform="translate(0 0)" fill="#2d323e" opacity="0.39"/>
    </g>
    <g id="Question_Marks" data-name="Question Marks" transform="translate(129.447 209.62)">
      <path id="Path_12926" data-name="Path 12926" d="M163.322,258.109l-1.406-.6a27.5,27.5,0,0,0,2.215-7.639l1.528.168A28.936,28.936,0,0,1,163.322,258.109Zm-.6-17.479a20.367,20.367,0,0,0-15.936-11.872l.245-1.528a21.864,21.864,0,0,1,17.082,12.758Z" transform="translate(-81.578 -227.23)" fill="#0aa5ae"/>
      <path id="Path_12927" data-name="Path 12927" d="M165.723,271.757l-15.065,6.875-.672-1.528a20.274,20.274,0,0,1-1.971-6.616,15.279,15.279,0,0,1,.6-5.562,90.059,90.059,0,0,1,4.584-10.481q2.017-4.079,1.024-6.249a4.828,4.828,0,0,0-2.827-2.8,6.112,6.112,0,0,0-4.446.565,6.967,6.967,0,0,0-3.8,3.988q-.993,2.674.611,7.548l-16.226,5.073a22.918,22.918,0,0,1,0-16.425q3.056-7.64,14.087-12.636c5.745-2.628,10.94-3.529,15.569-2.75a16.471,16.471,0,0,1,13.094,9.7,13.75,13.75,0,0,1,1.1,7.334,35.142,35.142,0,0,1-4.125,11.092,22.139,22.139,0,0,0-2.72,7.38A11.444,11.444,0,0,0,165.723,271.757Zm-13.751,11.062,16.1-7.242,6.463,14.194-16.1,7.2Z" transform="translate(-92.55 -225.508)" fill="#0aa5ae"/>
      <path id="Path_12928" data-name="Path 12928" d="M140.062,288.586l-7.639,10.39-.978-.81a16.255,16.255,0,0,1-3.866-3.774,11.718,11.718,0,0,1-1.7-4.018,64.89,64.89,0,0,1-.871-8.877c-.122-2.368-.688-3.911-1.681-4.584a3.759,3.759,0,0,0-3.056-.84,4.706,4.706,0,0,0-2.811,2.078,5.409,5.409,0,0,0-1.085,4.156,9.3,9.3,0,0,0,3.285,4.92l-9.167,9.641a18.014,18.014,0,0,1-6.28-11.184q-.84-6.325,4.8-13.98a20.841,20.841,0,0,1,9.565-7.777,12.819,12.819,0,0,1,12.62,1.62,10.7,10.7,0,0,1,3.545,4.584,27.685,27.685,0,0,1,1.406,9.167,17.357,17.357,0,0,0,.947,6.112A8.8,8.8,0,0,0,140.062,288.586Zm-5.149,12.773,8.189-11.123,9.809,7.227-8.189,11.123Z" transform="translate(-104.109 -208.372)" fill="#0aa5ae"/>
    </g>
    <g id="Character" transform="translate(167.129 130.291)">
      <path id="Path_12929" data-name="Path 12929" d="M246.407,446.714A6.875,6.875,0,0,1,240.3,443c-6.112-11.856-13.858-25.775-27.731-40.84a6.8,6.8,0,0,1-1.528-6.539c5.149-17.891,13.247-42.353,13.323-42.6a6.86,6.86,0,1,1,13.018,4.309c-.076.229-7.059,21.3-12.116,38.426a193.336,193.336,0,0,1,27.227,40.947,6.876,6.876,0,0,1-6.112,10.008Z" transform="translate(-85.492 -84.1)" fill="#0aa5ae"/>
      <path id="Path_12930" data-name="Path 12930" d="M259.925,421.762H206.77l28.174-15.982,23.606.917Z" transform="translate(-87.597 -53.647)" fill="#263238"/>
      <ellipse id="Ellipse_238" data-name="Ellipse 238" cx="45.898" cy="38.044" rx="45.898" ry="38.044" transform="translate(100.742 244.792) rotate(-17.36)" fill="#263238"/>
      <path id="Path_12931" data-name="Path 12931" d="M154.011,364.48a6.86,6.86,0,0,1-2.628-13.186,7.639,7.639,0,0,0,4.584-5.76,6.845,6.845,0,0,1,5.607-6.111,51.269,51.269,0,0,0,5.042-1.3c9.29-2.7,20.795-6.112,57.005,4.064,35.722-19.97,36.135-57.433,36.135-59.053a6.876,6.876,0,0,1,6.83-6.875h0a6.86,6.86,0,0,1,6.86,6.8c0,2-.214,49.03-45.837,72.574a6.8,6.8,0,0,1-5.042.489c-34.53-9.962-44.309-7.12-52.055-4.843l-2.108.611a21.131,21.131,0,0,1-11.673,12.055A6.891,6.891,0,0,1,154.011,364.48Z" transform="translate(-119.055 -122.019)" fill="#263238"/>
      <path id="Path_12932" data-name="Path 12932" d="M209.429,368.71c-13-51.673-47.639-184.966,63.361-193.11,99.588-7.319,126.906,125.287,133.553,171.123a537.3,537.3,0,0,1,5.409,70.008,50.864,50.864,0,0,1-40.886,50.42c-54.255,11.031-105.592,12.59-140.184-1.054a22.7,22.7,0,0,1-14.1-23.239C217.909,428.069,217.939,402.492,209.429,368.71Z" transform="translate(-94.366 -175.309)" fill="#0aa5ae"/>
      <path id="Path_12933" data-name="Path 12933" d="M382.861,346.688C376.6,303.418,351.967,183.2,265.733,175.564a25.042,25.042,0,0,0-24.553,13c-3.85,7.456-3.728,16.486,2.032,25.424,18.946,29.534,64.278,131.4,57.433,186.906-3.056,25.256-18.961,45.424-5.18,73.812a444.858,444.858,0,0,0,51.857-7.639,50.863,50.863,0,0,0,40.886-50.42A537.289,537.289,0,0,0,382.861,346.688Z" transform="translate(-70.823 -175.243)" opacity="0.1"/>
      <path id="Path_12934" data-name="Path 12934" d="M369.99,416.377a.687.687,0,0,1-.688-.672,532.57,532.57,0,0,0-5.393-69.916c-16.5-114.072-60.917-171.75-128.5-166.769a.687.687,0,0,1-.733-.642.7.7,0,0,1,.642-.733c68.373-5.042,113.323,53.048,129.87,167.945a538.062,538.062,0,0,1,5.409,70.1.688.688,0,0,1-.688.688Z" transform="translate(-72.864 -174.236)" fill="#263238"/>
      <ellipse id="Ellipse_239" data-name="Ellipse 239" cx="45.898" cy="38.044" rx="45.898" ry="38.044" transform="translate(229.577 248.432) rotate(-17.36)" fill="#263238"/>
      <path id="Path_12935" data-name="Path 12935" d="M337.619,446.633a6.86,6.86,0,0,1-6.111-3.713c-6.112-11.856-13.858-25.775-27.746-40.84a6.875,6.875,0,0,1-1.528-6.539c5.164-17.892,13.247-42.353,13.339-42.6a6.849,6.849,0,1,1,13,4.309c-.076.229-7.043,21.3-12.1,38.426a192.62,192.62,0,0,1,27.212,40.947,6.876,6.876,0,0,1-6.111,10.008Z" transform="translate(-37.346 -84.018)" fill="#0aa5ae"/>
      <path id="Path_12936" data-name="Path 12936" d="M326.77,325.183a6.86,6.86,0,0,1-3.208-12.926h0c1.314-.7,31.154-17.005,39.526-56.18-19.863-8.312-55.646-27.089-63.469-36.532a7.059,7.059,0,0,1-1.528-3.178,34.18,34.18,0,0,1,1.528-16.807l-3.606-6.967a6.874,6.874,0,1,1,12.223-6.295l5.179,10.023a6.814,6.814,0,0,1-.214,6.769,16.807,16.807,0,0,0-1.711,9.03c8.816,7.96,44.309,26.8,61.772,33.262a6.845,6.845,0,0,1,4.385,7.471c-7.746,50.069-46.051,70.7-47.67,71.551A6.845,6.845,0,0,1,326.77,325.183Z" transform="translate(-40.89 -171.477)" fill="#263238"/>
      <path id="Path_12937" data-name="Path 12937" d="M302.752,211.9a3.438,3.438,0,0,1-2.872-5.3c.244-.367,5.9-8.908,14.515-11.215A3.425,3.425,0,1,1,316.167,202c-6,1.62-10.512,8.281-10.542,8.342A3.422,3.422,0,0,1,302.752,211.9Z" transform="translate(-38.736 -164.776)" fill="#263238"/>
      <path id="Path_12938" data-name="Path 12938" d="M351.135,421.762H297.98l28.174-15.982,23.606.917Z" transform="translate(-39.449 -53.647)" fill="#263238"/>
      <ellipse id="Ellipse_240" data-name="Ellipse 240" cx="36.547" cy="32.895" rx="36.547" ry="32.895" transform="matrix(0.996, -0.088, 0.088, 0.996, 158.168, 101.086)" fill="#fff"/>
      <ellipse id="Ellipse_241" data-name="Ellipse 241" cx="10.038" cy="18.274" rx="10.038" ry="18.274" transform="translate(173.88 119.071) rotate(-15.9)" fill="#263238"/>
      <path id="Path_12939" data-name="Path 12939" d="M230.914,281.268c23.071-2.964,68.755-16,76.287-21.253-5.928-17.357-33.613-32.208-58.243-23.835C226.635,243.713,230.914,281.268,230.914,281.268Z" transform="translate(-75.026 -144.445)" fill="#263238"/>
      <path id="Path_12940" data-name="Path 12940" d="M233.73,279.218c28.648-5.439,65.882-14.576,76.532-20.428-.657,18.671-6.112,37.6-35.325,44C251.041,308,233.73,279.218,233.73,279.218Z" transform="translate(-73.365 -131.241)" fill="#263238"/>
      <ellipse id="Ellipse_242" data-name="Ellipse 242" cx="22.49" cy="28.465" rx="22.49" ry="28.465" transform="matrix(0.834, -0.552, 0.552, 0.834, 86.596, 130.856)" fill="#fff"/>
      <path id="Path_12941" data-name="Path 12941" d="M213.082,273.656c1.727,8.189.229,15.019-3.361,15.279s-7.9-6.2-9.641-14.393-.229-15,3.346-15.279S211.341,265.466,213.082,273.656Z" transform="translate(-91.511 -130.996)" fill="#263238"/>
      <path id="Path_12942" data-name="Path 12942" d="M189.8,277.9c15.478,1.818,46.219-.214,51.322-3.056-3.774-14.714-22.078-31.52-38.717-29.381C187.4,247.389,189.8,277.9,189.8,277.9Z" transform="translate(-96.63 -138.373)" fill="#263238"/>
      <path id="Path_12943" data-name="Path 12943" d="M191.63,273.742c19.236.871,44.309.382,51.459-2.322-.657,14.683-4.507,28.678-24.156,28.449C202.891,299.686,191.63,273.742,191.63,273.742Z" transform="translate(-95.589 -124.574)" fill="#263238"/>
      <path id="Path_12944" data-name="Path 12944" d="M281.969,238.727a86.219,86.219,0,0,1-49.03-14.973,6.85,6.85,0,0,1,8.266-10.924,74.866,74.866,0,0,0,54.76,10.863,6.85,6.85,0,1,1,2.552,13.461A89.237,89.237,0,0,1,281.969,238.727Z" transform="translate(-75.217 -156.236)" fill="#263238"/>
      <path id="Path_12945" data-name="Path 12945" d="M186.244,231.986a6.876,6.876,0,0,1-6.448-9.167c3.621-10.115,9.656-16.669,17.907-19.511,14.943-5.149,31.047,4.859,31.734,5.286a6.86,6.86,0,1,1-7.3,11.613c-3.055-1.942-12.788-6.434-20.015-3.928-4.156,1.451-7.242,5.1-9.427,11.184A6.86,6.86,0,0,1,186.244,231.986Z" transform="translate(-102.044 -161.305)" fill="#263238"/>
      <path id="Path_12946" data-name="Path 12946" d="M219.937,301.62a1.822,1.822,0,0,1-.565-.092,2.032,2.032,0,0,1-1.406-2.506,13.354,13.354,0,0,1,6.967-7.533c7.853-4.049,19.863-3.208,35.615,2.491a2.057,2.057,0,1,1-1.406,3.866c-18.075-6.539-27.5-5.134-32.086-2.781a9.549,9.549,0,0,0-5.073,5.088A2.062,2.062,0,0,1,219.937,301.62Z" transform="translate(-81.727 -115.308)" fill="#263238"/>
      <path id="Path_12947" data-name="Path 12947" d="M200.519,292.32A182.155,182.155,0,0,0,132.1,312.412c11.8-2.231,54.011,50.008,64.859,90.283,20.031-7.41,43.377-12.468,68.266-16.425C250.145,344.757,222.566,297.713,200.519,292.32Z" transform="translate(-127.014 -113.541)" fill="#98eae8"/>
      <path id="Path_12948" data-name="Path 12948" d="M200.519,292.32A182.155,182.155,0,0,0,132.1,312.412c11.8-2.231,54.011,50.008,64.859,90.283,20.031-7.41,43.377-12.468,68.266-16.425C250.145,344.757,222.566,297.713,200.519,292.32Z" transform="translate(-127.014 -113.541)" fill="#fff" opacity="0.6"/>
      <path id="Path_12949" data-name="Path 12949" d="M202.276,292.415c-26.1-2.949-68.465,18.9-68.465,18.9-7.5,4.782-5.47,13.751-1.375,17.555,3.927-5.638,47.716-20.306,64.171-22.277C188.433,299.015,196.042,293.454,202.276,292.415Z" transform="translate(-128.771 -113.636)" fill="#0aa5ae"/>
      <path id="Path_12950" data-name="Path 12950" d="M202.276,292.415c-26.1-2.949-68.465,18.9-68.465,18.9-7.5,4.782-5.47,13.751-1.375,17.555,3.927-5.638,47.716-20.306,64.171-22.277C188.433,299.015,196.042,293.454,202.276,292.415Z" transform="translate(-128.771 -113.636)" fill="#2d323e" opacity="0.4"/>
      <path id="Path_12951" data-name="Path 12951" d="M154.606,344.088a6.906,6.906,0,0,1-5.76-3.056c-4.966-7.639-1.864-19.236-1.192-21.5a6.86,6.86,0,0,1,13.14,3.911c-1.115,3.835-1.345,8.74-.458,10.084a6.86,6.86,0,0,1-2,9.488A6.693,6.693,0,0,1,154.606,344.088Z" transform="translate(-119.635 -101.627)" fill="#263238"/>
    </g>
  </g>
</svg>
