<svg id="Capa_1" enable-background="new 0 0 511.4 511.4" height="512" viewBox="0 0 511.4 511.4" width="512" xmlns="http://www.w3.org/2000/svg"><path d="m160.866 294.809c-12.902-22.339-41.577-30.023-63.921-17.128-22.338 12.901-30.023 41.576-17.128 63.922 8.659 14.994 24.42 23.384 40.608 23.384 7.93 0 15.964-2.015 23.311-6.254.001 0 .001-.001.002-.001 22.338-12.903 30.022-41.577 17.128-63.923zm-68.059 39.294c-8.003-13.869-4.334-31.321 7.928-40.92 6.074 20.683 17.039 39.284 31.553 54.479-14.463 5.873-31.46.33-39.481-13.559zm51.754 4.691c-14.071-14.231-24.56-32-30.003-51.842 1.902-.35 3.818-.53 5.727-.53 10.997 0 21.709 5.702 27.591 15.887 6.887 11.936 5.128 26.529-3.315 36.485z"/><path d="m79.815 169.8c-12.894 22.344-5.209 51.018 17.132 63.921 7.348 4.24 15.38 6.254 23.311 6.254 16.186 0 31.949-8.392 40.608-23.384 0-.001.001-.001.001-.002 12.893-22.344 5.209-51.018-17.132-63.921-22.344-12.894-51.018-5.208-63.92 17.132zm64.749 2.81c8.439 9.955 10.198 24.544 3.312 36.479-6.904 11.953-20.452 17.725-33.313 15.363 5.445-19.841 15.93-37.611 30.001-51.842zm-12.264-8.872c-14.517 15.194-25.493 33.793-31.569 54.476-12.259-9.601-15.926-27.05-7.925-40.914 5.884-10.188 16.595-15.89 27.593-15.89 4.002 0 8.042.759 11.901 2.328z"/><path d="m228.602 427.502c25.801 0 46.792-20.991 46.792-46.792s-20.991-46.792-46.792-46.792-46.792 20.991-46.792 46.792c0 25.802 20.99 46.792 46.792 46.792zm0-78.583c13.809 0 25.584 8.853 29.963 21.179-9.574 2.512-19.613 3.863-29.964 3.863s-20.392-1.344-29.966-3.854c4.376-12.331 16.154-21.188 29.967-21.188zm-.001 40.042c10.839 0 21.376-1.309 31.47-3.765-2.187 15.413-15.462 27.307-31.469 27.307-16.01 0-29.288-11.898-31.471-27.315 10.095 2.454 20.63 3.773 31.47 3.773z"/><path d="m228.602 83.898c-25.801 0-46.792 20.991-46.792 46.792s20.991 46.792 46.792 46.792 46.792-20.991 46.792-46.792c-.001-25.801-20.992-46.792-46.792-46.792zm0 78.583c-13.811 0-25.588-8.855-29.966-21.184 9.574-2.511 19.614-3.858 29.965-3.858 10.352 0 20.383 1.37 29.956 3.885-4.385 12.315-16.155 21.157-29.955 21.157zm-.001-40.042c-10.842 0-21.375 1.328-31.472 3.785 2.178-15.423 15.458-27.326 31.472-27.326 16.008 0 29.285 11.896 31.47 27.311-10.094-2.455-20.63-3.77-31.47-3.77z"/><path d="m313.468 358.732c7.348 4.24 15.38 6.254 23.311 6.254 16.186 0 31.95-8.392 40.608-23.384 0-.001.001-.002.001-.002 12.894-22.345 5.209-51.019-17.131-63.921-22.344-12.893-51.018-5.209-63.921 17.132-12.894 22.344-5.209 51.018 17.132 63.921zm50.929-24.631c-8.022 13.89-25.016 19.433-39.478 13.563 14.512-15.196 25.472-33.8 31.545-54.483 12.264 9.599 15.934 27.05 7.933 40.92zm-55.071-31.79c5.884-10.188 16.595-15.89 27.594-15.89 1.911 0 3.831.181 5.736.532-5.444 19.842-15.946 37.605-30.017 51.837-8.44-9.955-10.199-24.546-3.313-36.479z"/><path d="m296.337 216.592c8.659 14.993 24.421 23.384 40.608 23.384 7.93 0 15.964-2.015 23.311-6.254 0 0 .001-.001.002-.001 22.338-12.901 30.022-41.575 17.128-63.922-12.901-22.338-41.574-30.021-63.921-17.128-22.338 12.9-30.023 41.574-17.128 63.921zm40.468-55.181c10.997 0 21.709 5.702 27.591 15.887 8.003 13.869 4.333 31.322-7.93 40.921-6.074-20.684-17.037-39.289-31.552-54.484 3.856-1.567 7.891-2.324 11.891-2.324zm-24.169 11.202c14.071 14.231 24.564 31.997 30.008 51.839-12.863 2.364-26.414-3.407-33.316-15.359-6.887-11.936-5.129-26.525 3.308-36.48z"/><path d="m228.602 216.292c-21.729 0-39.408 17.678-39.408 39.408s17.678 39.408 39.408 39.408 39.408-17.678 39.408-39.408-17.679-39.408-39.408-39.408zm0 63.816c-13.458 0-24.408-10.949-24.408-24.408s10.949-24.408 24.408-24.408 24.408 10.949 24.408 24.408-10.95 24.408-24.408 24.408z"/><path d="m148.847 125.053c1.272 0 2.562-.324 3.743-1.006 3.587-2.071 4.816-6.658 2.745-10.245l-5.915-10.246c-2.071-3.588-6.659-4.817-10.245-2.745-3.587 2.071-4.816 6.658-2.745 10.245l5.915 10.246c1.389 2.406 3.91 3.751 6.502 3.751z"/><path d="m304.611 387.354c-3.587 2.071-4.816 6.658-2.745 10.245l5.915 10.246c1.389 2.406 3.91 3.751 6.502 3.751 1.272 0 2.562-.324 3.743-1.006 3.587-2.071 4.816-6.658 2.745-10.245l-5.915-10.246c-2.07-3.587-6.658-4.816-10.245-2.745z"/><path d="m57.25 263.2h11.83c4.142 0 7.5-3.358 7.5-7.5s-3.358-7.5-7.5-7.5h-11.83c-4.142 0-7.5 3.358-7.5 7.5s3.357 7.5 7.5 7.5z"/><path d="m388.122 263.2h11.831c4.142 0 7.5-3.358 7.5-7.5s-3.358-7.5-7.5-7.5h-11.831c-4.142 0-7.5 3.358-7.5 7.5s3.357 7.5 7.5 7.5z"/><path d="m142.345 390.099-5.915 10.246c-2.071 3.587-.842 8.174 2.745 10.245 1.181.682 2.471 1.006 3.743 1.006 2.592 0 5.113-1.346 6.502-3.751l5.915-10.246c2.071-3.587.842-8.174-2.745-10.245-3.588-2.072-8.175-.842-10.245 2.745z"/><path d="m308.354 125.053c2.592 0 5.113-1.346 6.502-3.751l5.915-10.246c2.071-3.587.842-8.174-2.745-10.245-3.588-2.072-8.175-.842-10.245 2.745l-5.915 10.246c-2.071 3.587-.842 8.174 2.745 10.245 1.181.682 2.471 1.006 3.743 1.006z"/><path d="m494.222 427.708h-27.772c-4.142 0-7.5 3.358-7.5 7.5s3.358 7.5 7.5 7.5h27.772c1.201 0 2.178.977 2.178 2.178v21.883c0 1.201-.977 2.178-2.178 2.178h-182.923c17.239-6.679 33.638-15.469 48.877-26.239h71.525c4.142 0 7.5-3.358 7.5-7.5s-3.358-7.5-7.5-7.5h-52.533c3.784-3.322 7.484-6.767 11.077-10.36 43.179-43.177 66.958-100.584 66.958-161.647s-23.779-118.47-66.958-161.647c-43.177-43.176-100.583-66.954-161.643-66.954-67.049 0-130.477 29.286-174.019 80.348-2.688 3.152-2.311 7.886.841 10.573s7.886 2.312 10.573-.841c40.687-47.715 99.954-75.081 162.604-75.081 117.78 0 213.601 95.821 213.601 213.601s-95.821 213.601-213.601 213.601c-57.057 0-110.697-22.218-151.041-62.561-40.342-40.343-62.56-93.983-62.56-151.04 0-39.346 10.783-77.796 31.184-111.192 2.159-3.535 1.044-8.151-2.491-10.31-3.536-2.16-8.151-1.043-10.31 2.491-21.84 35.751-33.383 76.905-33.383 119.011 0 61.063 23.778 118.471 66.955 161.647 43.176 43.176 100.583 66.954 161.647 66.954 4.241 0 265.621-.354 265.621-.354 9.472 0 17.178-7.706 17.178-17.178v-21.883c-.001-9.472-7.707-17.178-17.179-17.178z"/></svg>