<svg id="Component_80_6" data-name="Component 80 – 6" xmlns="http://www.w3.org/2000/svg" width="40" height="40" viewBox="0 0 78.361 77.024">
  <path id="Path_511" data-name="Path 511" d="M400.289,486.609c2.389-1.15,13.714-2.144,13.949-15.536,2.849,2.74,3.658,8.43,1.048,11.588l-.557-1.908-.179.019c-.15.675-.246,1.361-.459,2.024-.581,1.81-2.144,3.057-3.911,4.164-1.609,1.008-3.25,1.984-4.948,3.017l.369-2.356c-.671.49-1.2.816-1.635,1.205-1.375,1.224-2.719,2.47-4.069,3.711a14.165,14.165,0,0,1-8.011,3.527l1.683-2.043-.17-.142c-.611.328-1.234.644-1.832.987a9.644,9.644,0,0,1-10.218.029c-.316-.181-.648-.343-.97-.516a2.482,2.482,0,0,0-1.1-.366l1.675,2.039a14.031,14.031,0,0,1-8.043-3.555c-1.747-1.61-3.519-3.2-5.28-4.8l-.334.146.334,2.152c-1.458-.888-2.848-1.762-4.275-2.6-2.835-1.659-5.02-3.62-5.21-6.668l-.56,1.892c-2.435-2.563-2.033-8.058,1.065-11.825.94,10.418,10.936,12.661,12.246,14.034C372.452,486.455,391.163,491,400.289,486.609Z" transform="translate(-348.726 -419.321)"/>
  <path id="Path_512" data-name="Path 512" d="M500.522,357.136a10.355,10.355,0,0,1-10.1,10.59c-5.58,0-11.361-5.248-11.361-11.1s6.766-13.251,11.361-10.085C494.587,349.416,500.522,351.286,500.522,357.136Z" transform="translate(-422.161 -344.717)" fill="#1a1818"/>
  <path id="Path_513" data-name="Path 513" d="M337.944,354.484a10.354,10.354,0,0,0,10.1,10.589c5.58,0,11.361-5.248,11.361-11.1s-6.761-13.242-11.361-10.085C343.387,347.089,337.944,348.634,337.944,354.484Z" transform="translate(-337.944 -343.136)" fill="#1a1818"/>
  <path id="Path_514" data-name="Path 514" d="M371.846,357.166s41.37-12.958,45.548,29.559c4.188,42.634-62.814,43.042-68.027,10.891S371.846,357.166,371.846,357.166Z" transform="translate(-344.371 -350.4)" fill="#ecebeb"/>
  <path id="Path_515" data-name="Path 515" d="M383.464,423.3c-1.579,5.607-5.052,6.359-9.387,5.138s-7.021-4.369-5.442-9.977,6.808-7.735,10.845-5.756C383.9,414.874,385.044,417.694,383.464,423.3Z" transform="translate(-355.988 -384.224)" fill="#1a1818"/>
  <path id="Path_516" data-name="Path 516" d="M456.82,417.616c1.1,5.759,7.513,8.917,11.954,7.2s5.553-5.817,4.456-11.576-6.649-10.27-11.091-8.551S455.722,411.857,456.82,417.616Z" transform="translate(-408.711 -379.65)" fill="#1a1818"/>
  <path id="Path_517" data-name="Path 517" d="M473.006,429.823a1.671,1.671,0,1,1,.631,2.279A1.67,1.67,0,0,1,473.006,429.823Z" transform="translate(-418.419 -393.365)" fill="#e0e1e3"/>
  <g id="Group_574" data-name="Group 574" transform="translate(31.565 39.447)">
    <path id="Path_518" data-name="Path 518" d="M423.417,450.676c-1.019-1.663-4-2.389-4.753-4.131-.781-1.814-.589-3.792.379-4.492a7.835,7.835,0,0,1,7.958,0c.965.7,1.152,2.705.371,4.5-.754,1.734-1.683,1.924-2.648,3.492-.02,1.87.352,3.7,1.194,3.655a3.611,3.611,0,0,0,2.02-.55,10.832,10.832,0,0,1,1.877-1.228c-1.9,10.238-12.469,8.476-13.584-.14.633.476,1.743,1,2.381,1.416a15.262,15.262,0,0,0,4.01.98C423.536,454.245,423.42,452.641,423.417,450.676Z" transform="translate(-416.23 -440.97)"/>
    <path id="Path_519" data-name="Path 519" d="M421.654,476.173s5.17,3.432,9.769,0a5.385,5.385,0,0,1-3.759,2.469C425.728,478.937,422.825,478.34,421.654,476.173Z" transform="translate(-419.467 -461.979)" fill="#272727"/>
  </g>
  <path id="Path_520" data-name="Path 520" d="M383.1,430.795a1.671,1.671,0,1,1,.631,2.279A1.67,1.67,0,0,1,383.1,430.795Z" transform="translate(-364.761 -393.945)" fill="#e0e1e3"/>
</svg>
