<svg xmlns="http://www.w3.org/2000/svg" width="197" height="224" viewBox="0 0 197 224">
  <defs>
    <style>
      .cls-1, .cls-2 {
        fill: #fff;
      }

      .cls-2 {
        font-size: 18px;
        font-family: Gotham-Light, Gotham;
        font-weight: 300;
      }
    </style>
  </defs>
  <g id="Group_698" data-name="Group 698" transform="translate(-1.568 0.272)">
    <g id="qrcode" transform="translate(1.73 0)">
      <rect id="Rectangle_62" data-name="Rectangle 62" class="cls-1" width="197" height="197" transform="translate(-0.162 -0.272)"/>
      <rect id="Rectangle_63" data-name="Rectangle 63" width="7" height="7" transform="translate(11.838 10.728)"/>
      <rect id="Rectangle_64" data-name="Rectangle 64" width="7" height="7" transform="translate(18.838 10.728)"/>
      <rect id="Rectangle_65" data-name="Rectangle 65" width="7" height="7" transform="translate(25.838 10.728)"/>
      <rect id="Rectangle_66" data-name="Rectangle 66" width="6" height="7" transform="translate(32.838 10.728)"/>
      <rect id="Rectangle_67" data-name="Rectangle 67" width="7" height="7" transform="translate(38.838 10.728)"/>
      <rect id="Rectangle_68" data-name="Rectangle 68" width="6" height="7" transform="translate(45.838 10.728)"/>
      <rect id="Rectangle_69" data-name="Rectangle 69" width="8" height="7" transform="translate(51.838 10.728)"/>
      <rect id="Rectangle_70" data-name="Rectangle 70" width="8" height="7" transform="translate(72.838 10.728)"/>
      <rect id="Rectangle_71" data-name="Rectangle 71" width="7" height="7" transform="translate(80.838 10.728)"/>
      <rect id="Rectangle_72" data-name="Rectangle 72" width="6" height="7" transform="translate(87.838 10.728)"/>
      <rect id="Rectangle_73" data-name="Rectangle 73" width="6" height="7" transform="translate(100.838 10.728)"/>
      <rect id="Rectangle_74" data-name="Rectangle 74" width="6" height="7" transform="translate(121.838 10.728)"/>
      <rect id="Rectangle_75" data-name="Rectangle 75" width="7" height="7" transform="translate(134.838 10.728)"/>
      <rect id="Rectangle_76" data-name="Rectangle 76" width="7" height="7" transform="translate(141.838 10.728)"/>
      <rect id="Rectangle_77" data-name="Rectangle 77" width="9" height="7" transform="translate(148.838 10.728)"/>
      <rect id="Rectangle_78" data-name="Rectangle 78" width="4" height="7" transform="translate(157.838 10.728)"/>
      <rect id="Rectangle_79" data-name="Rectangle 79" width="7" height="7" transform="translate(161.838 10.728)"/>
      <rect id="Rectangle_80" data-name="Rectangle 80" width="7" height="7" transform="translate(168.838 10.728)"/>
      <rect id="Rectangle_81" data-name="Rectangle 81" width="7" height="7" transform="translate(175.838 10.728)"/>
      <rect id="Rectangle_82" data-name="Rectangle 82" width="7" height="7" transform="translate(11.838 17.728)"/>
      <rect id="Rectangle_83" data-name="Rectangle 83" width="8" height="7" transform="translate(51.838 17.728)"/>
      <rect id="Rectangle_84" data-name="Rectangle 84" width="6" height="7" transform="translate(87.838 17.728)"/>
      <rect id="Rectangle_85" data-name="Rectangle 85" width="7" height="7" transform="translate(93.838 17.728)"/>
      <rect id="Rectangle_86" data-name="Rectangle 86" width="7" height="7" transform="translate(106.838 17.728)"/>
      <rect id="Rectangle_87" data-name="Rectangle 87" width="6" height="7" transform="translate(121.838 17.728)"/>
      <rect id="Rectangle_88" data-name="Rectangle 88" width="7" height="7" transform="translate(134.838 17.728)"/>
      <rect id="Rectangle_89" data-name="Rectangle 89" width="7" height="7" transform="translate(175.838 17.728)"/>
      <rect id="Rectangle_90" data-name="Rectangle 90" width="7" height="6" transform="translate(11.838 24.728)"/>
      <rect id="Rectangle_91" data-name="Rectangle 91" width="7" height="6" transform="translate(25.838 24.728)"/>
      <rect id="Rectangle_92" data-name="Rectangle 92" width="6" height="6" transform="translate(32.838 24.728)"/>
      <rect id="Rectangle_93" data-name="Rectangle 93" width="7" height="6" transform="translate(38.838 24.728)"/>
      <rect id="Rectangle_94" data-name="Rectangle 94" width="8" height="6" transform="translate(51.838 24.728)"/>
      <rect id="Rectangle_95" data-name="Rectangle 95" width="8" height="6" transform="translate(72.838 24.728)"/>
      <rect id="Rectangle_96" data-name="Rectangle 96" width="7" height="6" transform="translate(80.838 24.728)"/>
      <rect id="Rectangle_97" data-name="Rectangle 97" width="6" height="6" transform="translate(87.838 24.728)"/>
      <rect id="Rectangle_98" data-name="Rectangle 98" width="8" height="6" transform="translate(113.838 24.728)"/>
      <rect id="Rectangle_99" data-name="Rectangle 99" width="7" height="6" transform="translate(134.838 24.728)"/>
      <rect id="Rectangle_100" data-name="Rectangle 100" width="9" height="6" transform="translate(148.838 24.728)"/>
      <rect id="Rectangle_101" data-name="Rectangle 101" width="4" height="6" transform="translate(157.838 24.728)"/>
      <rect id="Rectangle_102" data-name="Rectangle 102" width="7" height="6" transform="translate(161.838 24.728)"/>
      <rect id="Rectangle_103" data-name="Rectangle 103" width="7" height="6" transform="translate(175.838 24.728)"/>
      <rect id="Rectangle_104" data-name="Rectangle 104" width="7" height="8" transform="translate(11.838 30.728)"/>
      <rect id="Rectangle_105" data-name="Rectangle 105" width="7" height="8" transform="translate(25.838 30.728)"/>
      <rect id="Rectangle_106" data-name="Rectangle 106" width="6" height="8" transform="translate(32.838 30.728)"/>
      <rect id="Rectangle_107" data-name="Rectangle 107" width="7" height="8" transform="translate(38.838 30.728)"/>
      <rect id="Rectangle_108" data-name="Rectangle 108" width="8" height="8" transform="translate(51.838 30.728)"/>
      <rect id="Rectangle_109" data-name="Rectangle 109" width="6" height="8" transform="translate(66.838 30.728)"/>
      <rect id="Rectangle_110" data-name="Rectangle 110" width="7" height="8" transform="translate(80.838 30.728)"/>
      <rect id="Rectangle_111" data-name="Rectangle 111" width="6" height="8" transform="translate(87.838 30.728)"/>
      <rect id="Rectangle_112" data-name="Rectangle 112" width="6" height="8" transform="translate(100.838 30.728)"/>
      <rect id="Rectangle_113" data-name="Rectangle 113" width="7" height="8" transform="translate(106.838 30.728)"/>
      <rect id="Rectangle_114" data-name="Rectangle 114" width="8" height="8" transform="translate(113.838 30.728)"/>
      <rect id="Rectangle_115" data-name="Rectangle 115" width="7" height="8" transform="translate(134.838 30.728)"/>
      <rect id="Rectangle_116" data-name="Rectangle 116" width="9" height="8" transform="translate(148.838 30.728)"/>
      <rect id="Rectangle_117" data-name="Rectangle 117" width="4" height="8" transform="translate(157.838 30.728)"/>
      <rect id="Rectangle_118" data-name="Rectangle 118" width="7" height="8" transform="translate(161.838 30.728)"/>
      <rect id="Rectangle_119" data-name="Rectangle 119" width="7" height="8" transform="translate(175.838 30.728)"/>
      <rect id="Rectangle_120" data-name="Rectangle 120" width="7" height="6" transform="translate(11.838 38.728)"/>
      <rect id="Rectangle_121" data-name="Rectangle 121" width="7" height="6" transform="translate(25.838 38.728)"/>
      <rect id="Rectangle_122" data-name="Rectangle 122" width="6" height="6" transform="translate(32.838 38.728)"/>
      <rect id="Rectangle_123" data-name="Rectangle 123" width="7" height="6" transform="translate(38.838 38.728)"/>
      <rect id="Rectangle_124" data-name="Rectangle 124" width="8" height="6" transform="translate(51.838 38.728)"/>
      <rect id="Rectangle_125" data-name="Rectangle 125" width="6" height="6" transform="translate(66.838 38.728)"/>
      <rect id="Rectangle_126" data-name="Rectangle 126" width="7" height="6" transform="translate(80.838 38.728)"/>
      <rect id="Rectangle_127" data-name="Rectangle 127" width="7" height="6" transform="translate(93.838 38.728)"/>
      <rect id="Rectangle_128" data-name="Rectangle 128" width="7" height="6" transform="translate(106.838 38.728)"/>
      <rect id="Rectangle_129" data-name="Rectangle 129" width="7" height="6" transform="translate(134.838 38.728)"/>
      <rect id="Rectangle_130" data-name="Rectangle 130" width="9" height="6" transform="translate(148.838 38.728)"/>
      <rect id="Rectangle_131" data-name="Rectangle 131" width="4" height="6" transform="translate(157.838 38.728)"/>
      <rect id="Rectangle_132" data-name="Rectangle 132" width="7" height="6" transform="translate(161.838 38.728)"/>
      <rect id="Rectangle_133" data-name="Rectangle 133" width="7" height="6" transform="translate(175.838 38.728)"/>
      <rect id="Rectangle_134" data-name="Rectangle 134" width="7" height="7" transform="translate(11.838 44.728)"/>
      <rect id="Rectangle_135" data-name="Rectangle 135" width="8" height="7" transform="translate(51.838 44.728)"/>
      <rect id="Rectangle_136" data-name="Rectangle 136" width="8" height="7" transform="translate(72.838 44.728)"/>
      <rect id="Rectangle_137" data-name="Rectangle 137" width="7" height="7" transform="translate(80.838 44.728)"/>
      <rect id="Rectangle_138" data-name="Rectangle 138" width="7" height="7" transform="translate(106.838 44.728)"/>
      <rect id="Rectangle_139" data-name="Rectangle 139" width="7" height="7" transform="translate(134.838 44.728)"/>
      <rect id="Rectangle_140" data-name="Rectangle 140" width="7" height="7" transform="translate(175.838 44.728)"/>
      <rect id="Rectangle_141" data-name="Rectangle 141" width="7" height="9" transform="translate(11.838 51.728)"/>
      <rect id="Rectangle_142" data-name="Rectangle 142" width="7" height="9" transform="translate(18.838 51.728)"/>
      <rect id="Rectangle_143" data-name="Rectangle 143" width="7" height="9" transform="translate(25.838 51.728)"/>
      <rect id="Rectangle_144" data-name="Rectangle 144" width="6" height="9" transform="translate(32.838 51.728)"/>
      <rect id="Rectangle_145" data-name="Rectangle 145" width="7" height="9" transform="translate(38.838 51.728)"/>
      <rect id="Rectangle_146" data-name="Rectangle 146" width="6" height="9" transform="translate(45.838 51.728)"/>
      <rect id="Rectangle_147" data-name="Rectangle 147" width="8" height="9" transform="translate(51.838 51.728)"/>
      <rect id="Rectangle_148" data-name="Rectangle 148" width="6" height="9" transform="translate(66.838 51.728)"/>
      <rect id="Rectangle_149" data-name="Rectangle 149" width="7" height="9" transform="translate(80.838 51.728)"/>
      <rect id="Rectangle_150" data-name="Rectangle 150" width="7" height="9" transform="translate(93.838 51.728)"/>
      <rect id="Rectangle_151" data-name="Rectangle 151" width="7" height="9" transform="translate(106.838 51.728)"/>
      <rect id="Rectangle_152" data-name="Rectangle 152" width="6" height="9" transform="translate(121.838 51.728)"/>
      <rect id="Rectangle_153" data-name="Rectangle 153" width="7" height="9" transform="translate(134.838 51.728)"/>
      <rect id="Rectangle_154" data-name="Rectangle 154" width="7" height="9" transform="translate(141.838 51.728)"/>
      <rect id="Rectangle_155" data-name="Rectangle 155" width="9" height="9" transform="translate(148.838 51.728)"/>
      <rect id="Rectangle_156" data-name="Rectangle 156" width="4" height="9" transform="translate(157.838 51.728)"/>
      <rect id="Rectangle_157" data-name="Rectangle 157" width="7" height="9" transform="translate(161.838 51.728)"/>
      <rect id="Rectangle_158" data-name="Rectangle 158" width="7" height="9" transform="translate(168.838 51.728)"/>
      <rect id="Rectangle_159" data-name="Rectangle 159" width="7" height="9" transform="translate(175.838 51.728)"/>
      <rect id="Rectangle_160" data-name="Rectangle 160" width="8" height="4" transform="translate(72.838 60.728)"/>
      <rect id="Rectangle_161" data-name="Rectangle 161" width="7" height="4" transform="translate(93.838 60.728)"/>
      <rect id="Rectangle_162" data-name="Rectangle 162" width="8" height="4" transform="translate(113.838 60.728)"/>
      <rect id="Rectangle_163" data-name="Rectangle 163" width="7" height="7" transform="translate(11.838 64.728)"/>
      <rect id="Rectangle_164" data-name="Rectangle 164" width="7" height="7" transform="translate(18.838 64.728)"/>
      <rect id="Rectangle_165" data-name="Rectangle 165" width="6" height="7" transform="translate(45.838 64.728)"/>
      <rect id="Rectangle_166" data-name="Rectangle 166" width="8" height="7" transform="translate(51.838 64.728)"/>
      <rect id="Rectangle_167" data-name="Rectangle 167" width="7" height="7" transform="translate(59.838 64.728)"/>
      <rect id="Rectangle_168" data-name="Rectangle 168" width="8" height="7" transform="translate(72.838 64.728)"/>
      <rect id="Rectangle_169" data-name="Rectangle 169" width="7" height="7" transform="translate(80.838 64.728)"/>
      <rect id="Rectangle_170" data-name="Rectangle 170" width="7" height="7" transform="translate(93.838 64.728)"/>
      <rect id="Rectangle_171" data-name="Rectangle 171" width="6" height="7" transform="translate(100.838 64.728)"/>
      <rect id="Rectangle_172" data-name="Rectangle 172" width="9" height="7" transform="translate(148.838 64.728)"/>
      <rect id="Rectangle_173" data-name="Rectangle 173" width="4" height="7" transform="translate(157.838 64.728)"/>
      <rect id="Rectangle_174" data-name="Rectangle 174" width="7" height="7" transform="translate(25.838 71.728)"/>
      <rect id="Rectangle_175" data-name="Rectangle 175" width="6" height="7" transform="translate(32.838 71.728)"/>
      <rect id="Rectangle_176" data-name="Rectangle 176" width="7" height="7" transform="translate(38.838 71.728)"/>
      <rect id="Rectangle_177" data-name="Rectangle 177" width="7" height="7" transform="translate(59.838 71.728)"/>
      <rect id="Rectangle_178" data-name="Rectangle 178" width="6" height="7" transform="translate(66.838 71.728)"/>
      <rect id="Rectangle_179" data-name="Rectangle 179" width="7" height="7" transform="translate(80.838 71.728)"/>
      <rect id="Rectangle_180" data-name="Rectangle 180" width="6" height="7" transform="translate(121.838 71.728)"/>
      <rect id="Rectangle_181" data-name="Rectangle 181" width="7" height="7" transform="translate(127.838 71.728)"/>
      <rect id="Rectangle_182" data-name="Rectangle 182" width="7" height="7" transform="translate(141.838 71.728)"/>
      <rect id="Rectangle_183" data-name="Rectangle 183" width="9" height="7" transform="translate(148.838 71.728)"/>
      <rect id="Rectangle_184" data-name="Rectangle 184" width="7" height="7" transform="translate(161.838 71.728)"/>
      <rect id="Rectangle_185" data-name="Rectangle 185" width="7" height="9" transform="translate(11.838 78.728)"/>
      <rect id="Rectangle_186" data-name="Rectangle 186" width="7" height="9" transform="translate(25.838 78.728)"/>
      <rect id="Rectangle_187" data-name="Rectangle 187" width="7" height="9" transform="translate(38.838 78.728)"/>
      <rect id="Rectangle_188" data-name="Rectangle 188" width="6" height="9" transform="translate(45.838 78.728)"/>
      <rect id="Rectangle_189" data-name="Rectangle 189" width="8" height="9" transform="translate(51.838 78.728)"/>
      <rect id="Rectangle_190" data-name="Rectangle 190" width="6" height="9" transform="translate(66.838 78.728)"/>
      <rect id="Rectangle_191" data-name="Rectangle 191" width="8" height="9" transform="translate(72.838 78.728)"/>
      <rect id="Rectangle_192" data-name="Rectangle 192" width="6" height="9" transform="translate(87.838 78.728)"/>
      <rect id="Rectangle_193" data-name="Rectangle 193" width="7" height="9" transform="translate(93.838 78.728)"/>
      <rect id="Rectangle_194" data-name="Rectangle 194" width="6" height="9" transform="translate(100.838 78.728)"/>
      <rect id="Rectangle_195" data-name="Rectangle 195" width="8" height="9" transform="translate(113.838 78.728)"/>
      <rect id="Rectangle_196" data-name="Rectangle 196" width="6" height="9" transform="translate(121.838 78.728)"/>
      <rect id="Rectangle_197" data-name="Rectangle 197" width="7" height="9" transform="translate(127.838 78.728)"/>
      <rect id="Rectangle_198" data-name="Rectangle 198" width="7" height="9" transform="translate(134.838 78.728)"/>
      <rect id="Rectangle_199" data-name="Rectangle 199" width="7" height="9" transform="translate(141.838 78.728)"/>
      <rect id="Rectangle_200" data-name="Rectangle 200" width="9" height="9" transform="translate(148.838 78.728)"/>
      <rect id="Rectangle_201" data-name="Rectangle 201" width="7" height="9" transform="translate(168.838 78.728)"/>
      <rect id="Rectangle_202" data-name="Rectangle 202" width="7" height="9" transform="translate(175.838 78.728)"/>
      <rect id="Rectangle_203" data-name="Rectangle 203" width="7" height="6" transform="translate(18.838 87.728)"/>
      <rect id="Rectangle_204" data-name="Rectangle 204" width="7" height="6" transform="translate(25.838 87.728)"/>
      <rect id="Rectangle_205" data-name="Rectangle 205" width="7" height="6" transform="translate(38.838 87.728)"/>
      <rect id="Rectangle_206" data-name="Rectangle 206" width="6" height="6" transform="translate(45.838 87.728)"/>
      <rect id="Rectangle_207" data-name="Rectangle 207" width="6" height="6" transform="translate(66.838 87.728)"/>
      <rect id="Rectangle_208" data-name="Rectangle 208" width="7" height="6" transform="translate(80.838 87.728)"/>
      <rect id="Rectangle_209" data-name="Rectangle 209" width="6" height="6" transform="translate(87.838 87.728)"/>
      <rect id="Rectangle_210" data-name="Rectangle 210" width="8" height="6" transform="translate(113.838 87.728)"/>
      <rect id="Rectangle_211" data-name="Rectangle 211" width="7" height="6" transform="translate(127.838 87.728)"/>
      <rect id="Rectangle_212" data-name="Rectangle 212" width="7" height="6" transform="translate(134.838 87.728)"/>
      <rect id="Rectangle_213" data-name="Rectangle 213" width="9" height="6" transform="translate(148.838 87.728)"/>
      <rect id="Rectangle_214" data-name="Rectangle 214" width="4" height="6" transform="translate(157.838 87.728)"/>
      <rect id="Rectangle_215" data-name="Rectangle 215" width="7" height="6" transform="translate(11.838 93.728)"/>
      <rect id="Rectangle_216" data-name="Rectangle 216" width="6" height="6" transform="translate(32.838 93.728)"/>
      <rect id="Rectangle_217" data-name="Rectangle 217" width="8" height="6" transform="translate(51.838 93.728)"/>
      <rect id="Rectangle_218" data-name="Rectangle 218" width="6" height="6" transform="translate(66.838 93.728)"/>
      <rect id="Rectangle_219" data-name="Rectangle 219" width="8" height="6" transform="translate(72.838 93.728)"/>
      <rect id="Rectangle_220" data-name="Rectangle 220" width="7" height="6" transform="translate(80.838 93.728)"/>
      <rect id="Rectangle_221" data-name="Rectangle 221" width="7" height="6" transform="translate(93.838 93.728)"/>
      <rect id="Rectangle_222" data-name="Rectangle 222" width="7" height="6" transform="translate(106.838 93.728)"/>
      <rect id="Rectangle_223" data-name="Rectangle 223" width="8" height="6" transform="translate(113.838 93.728)"/>
      <rect id="Rectangle_224" data-name="Rectangle 224" width="7" height="6" transform="translate(134.838 93.728)"/>
      <rect id="Rectangle_225" data-name="Rectangle 225" width="7" height="6" transform="translate(141.838 93.728)"/>
      <rect id="Rectangle_226" data-name="Rectangle 226" width="9" height="6" transform="translate(148.838 93.728)"/>
      <rect id="Rectangle_227" data-name="Rectangle 227" width="7" height="6" transform="translate(168.838 93.728)"/>
      <rect id="Rectangle_228" data-name="Rectangle 228" width="7" height="6" transform="translate(175.838 93.728)"/>
      <rect id="Rectangle_229" data-name="Rectangle 229" width="7" height="8" transform="translate(11.838 99.728)"/>
      <rect id="Rectangle_230" data-name="Rectangle 230" width="6" height="8" transform="translate(32.838 99.728)"/>
      <rect id="Rectangle_231" data-name="Rectangle 231" width="6" height="8" transform="translate(45.838 99.728)"/>
      <rect id="Rectangle_232" data-name="Rectangle 232" width="7" height="8" transform="translate(59.838 99.728)"/>
      <rect id="Rectangle_233" data-name="Rectangle 233" width="6" height="8" transform="translate(66.838 99.728)"/>
      <rect id="Rectangle_234" data-name="Rectangle 234" width="8" height="8" transform="translate(72.838 99.728)"/>
      <rect id="Rectangle_235" data-name="Rectangle 235" width="7" height="8" transform="translate(80.838 99.728)"/>
      <rect id="Rectangle_236" data-name="Rectangle 236" width="7" height="8" transform="translate(93.838 99.728)"/>
      <rect id="Rectangle_237" data-name="Rectangle 237" width="7" height="8" transform="translate(106.838 99.728)"/>
      <rect id="Rectangle_238" data-name="Rectangle 238" width="6" height="8" transform="translate(121.838 99.728)"/>
      <rect id="Rectangle_239" data-name="Rectangle 239" width="7" height="8" transform="translate(141.838 99.728)"/>
      <rect id="Rectangle_240" data-name="Rectangle 240" width="4" height="8" transform="translate(157.838 99.728)"/>
      <rect id="Rectangle_241" data-name="Rectangle 241" width="7" height="8" transform="translate(168.838 99.728)"/>
      <rect id="Rectangle_242" data-name="Rectangle 242" width="7" height="6" transform="translate(11.838 107.728)"/>
      <rect id="Rectangle_243" data-name="Rectangle 243" width="7" height="6" transform="translate(25.838 107.728)"/>
      <rect id="Rectangle_244" data-name="Rectangle 244" width="6" height="6" transform="translate(45.838 107.728)"/>
      <rect id="Rectangle_245" data-name="Rectangle 245" width="8" height="6" transform="translate(51.838 107.728)"/>
      <rect id="Rectangle_246" data-name="Rectangle 246" width="7" height="6" transform="translate(106.838 107.728)"/>
      <rect id="Rectangle_247" data-name="Rectangle 247" width="8" height="6" transform="translate(113.838 107.728)"/>
      <rect id="Rectangle_248" data-name="Rectangle 248" width="7" height="6" transform="translate(127.838 107.728)"/>
      <rect id="Rectangle_249" data-name="Rectangle 249" width="4" height="6" transform="translate(157.838 107.728)"/>
      <rect id="Rectangle_250" data-name="Rectangle 250" width="7" height="6" transform="translate(161.838 107.728)"/>
      <rect id="Rectangle_251" data-name="Rectangle 251" width="7" height="6" transform="translate(168.838 107.728)"/>
      <rect id="Rectangle_252" data-name="Rectangle 252" width="7" height="6" transform="translate(175.838 107.728)"/>
      <rect id="Rectangle_253" data-name="Rectangle 253" width="7" height="7" transform="translate(11.838 113.728)"/>
      <rect id="Rectangle_254" data-name="Rectangle 254" width="7" height="7" transform="translate(59.838 113.728)"/>
      <rect id="Rectangle_255" data-name="Rectangle 255" width="6" height="7" transform="translate(66.838 113.728)"/>
      <rect id="Rectangle_256" data-name="Rectangle 256" width="6" height="7" transform="translate(87.838 113.728)"/>
      <rect id="Rectangle_257" data-name="Rectangle 257" width="7" height="7" transform="translate(93.838 113.728)"/>
      <rect id="Rectangle_258" data-name="Rectangle 258" width="6" height="7" transform="translate(121.838 113.728)"/>
      <rect id="Rectangle_259" data-name="Rectangle 259" width="7" height="7" transform="translate(127.838 113.728)"/>
      <rect id="Rectangle_260" data-name="Rectangle 260" width="7" height="7" transform="translate(134.838 113.728)"/>
      <rect id="Rectangle_261" data-name="Rectangle 261" width="9" height="7" transform="translate(148.838 113.728)"/>
      <rect id="Rectangle_262" data-name="Rectangle 262" width="4" height="7" transform="translate(157.838 113.728)"/>
      <rect id="Rectangle_263" data-name="Rectangle 263" width="7" height="7" transform="translate(161.838 113.728)"/>
      <rect id="Rectangle_264" data-name="Rectangle 264" width="7" height="7" transform="translate(168.838 113.728)"/>
      <rect id="Rectangle_265" data-name="Rectangle 265" width="7" height="7" transform="translate(175.838 113.728)"/>
      <rect id="Rectangle_266" data-name="Rectangle 266" width="7" height="7" transform="translate(11.838 120.728)"/>
      <rect id="Rectangle_267" data-name="Rectangle 267" width="7" height="7" transform="translate(38.838 120.728)"/>
      <rect id="Rectangle_268" data-name="Rectangle 268" width="8" height="7" transform="translate(51.838 120.728)"/>
      <rect id="Rectangle_269" data-name="Rectangle 269" width="6" height="7" transform="translate(66.838 120.728)"/>
      <rect id="Rectangle_270" data-name="Rectangle 270" width="6" height="7" transform="translate(100.838 120.728)"/>
      <rect id="Rectangle_271" data-name="Rectangle 271" width="8" height="7" transform="translate(113.838 120.728)"/>
      <rect id="Rectangle_272" data-name="Rectangle 272" width="6" height="7" transform="translate(121.838 120.728)"/>
      <rect id="Rectangle_273" data-name="Rectangle 273" width="7" height="7" transform="translate(127.838 120.728)"/>
      <rect id="Rectangle_274" data-name="Rectangle 274" width="7" height="7" transform="translate(134.838 120.728)"/>
      <rect id="Rectangle_275" data-name="Rectangle 275" width="7" height="7" transform="translate(141.838 120.728)"/>
      <rect id="Rectangle_276" data-name="Rectangle 276" width="9" height="7" transform="translate(148.838 120.728)"/>
      <rect id="Rectangle_277" data-name="Rectangle 277" width="4" height="7" transform="translate(157.838 120.728)"/>
      <rect id="Rectangle_278" data-name="Rectangle 278" width="7" height="7" transform="translate(161.838 120.728)"/>
      <rect id="Rectangle_279" data-name="Rectangle 279" width="7" height="7" transform="translate(175.838 120.728)"/>
      <rect id="Rectangle_280" data-name="Rectangle 280" width="6" height="7" transform="translate(66.838 127.728)"/>
      <rect id="Rectangle_281" data-name="Rectangle 281" width="8" height="7" transform="translate(72.838 127.728)"/>
      <rect id="Rectangle_282" data-name="Rectangle 282" width="6" height="7" transform="translate(87.838 127.728)"/>
      <rect id="Rectangle_283" data-name="Rectangle 283" width="7" height="7" transform="translate(93.838 127.728)"/>
      <rect id="Rectangle_284" data-name="Rectangle 284" width="6" height="7" transform="translate(100.838 127.728)"/>
      <rect id="Rectangle_285" data-name="Rectangle 285" width="7" height="7" transform="translate(106.838 127.728)"/>
      <rect id="Rectangle_286" data-name="Rectangle 286" width="6" height="7" transform="translate(121.838 127.728)"/>
      <rect id="Rectangle_287" data-name="Rectangle 287" width="9" height="7" transform="translate(148.838 127.728)"/>
      <rect id="Rectangle_288" data-name="Rectangle 288" width="7" height="7" transform="translate(161.838 127.728)"/>
      <rect id="Rectangle_289" data-name="Rectangle 289" width="7" height="7" transform="translate(175.838 127.728)"/>
      <rect id="Rectangle_290" data-name="Rectangle 290" width="7" height="7" transform="translate(11.838 134.728)"/>
      <rect id="Rectangle_291" data-name="Rectangle 291" width="7" height="7" transform="translate(18.838 134.728)"/>
      <rect id="Rectangle_292" data-name="Rectangle 292" width="7" height="7" transform="translate(25.838 134.728)"/>
      <rect id="Rectangle_293" data-name="Rectangle 293" width="6" height="7" transform="translate(32.838 134.728)"/>
      <rect id="Rectangle_294" data-name="Rectangle 294" width="7" height="7" transform="translate(38.838 134.728)"/>
      <rect id="Rectangle_295" data-name="Rectangle 295" width="6" height="7" transform="translate(45.838 134.728)"/>
      <rect id="Rectangle_296" data-name="Rectangle 296" width="8" height="7" transform="translate(51.838 134.728)"/>
      <rect id="Rectangle_297" data-name="Rectangle 297" width="6" height="7" transform="translate(66.838 134.728)"/>
      <rect id="Rectangle_298" data-name="Rectangle 298" width="8" height="7" transform="translate(72.838 134.728)"/>
      <rect id="Rectangle_299" data-name="Rectangle 299" width="6" height="7" transform="translate(87.838 134.728)"/>
      <rect id="Rectangle_300" data-name="Rectangle 300" width="6" height="7" transform="translate(100.838 134.728)"/>
      <rect id="Rectangle_301" data-name="Rectangle 301" width="7" height="7" transform="translate(106.838 134.728)"/>
      <rect id="Rectangle_302" data-name="Rectangle 302" width="6" height="7" transform="translate(121.838 134.728)"/>
      <rect id="Rectangle_303" data-name="Rectangle 303" width="7" height="7" transform="translate(134.838 134.728)"/>
      <rect id="Rectangle_304" data-name="Rectangle 304" width="9" height="7" transform="translate(148.838 134.728)"/>
      <rect id="Rectangle_305" data-name="Rectangle 305" width="7" height="7" transform="translate(161.838 134.728)"/>
      <rect id="Rectangle_306" data-name="Rectangle 306" width="7" height="7" transform="translate(175.838 134.728)"/>
      <rect id="Rectangle_307" data-name="Rectangle 307" width="7" height="5" transform="translate(11.838 141.728)"/>
      <rect id="Rectangle_308" data-name="Rectangle 308" width="8" height="5" transform="translate(51.838 141.728)"/>
      <rect id="Rectangle_309" data-name="Rectangle 309" width="6" height="5" transform="translate(66.838 141.728)"/>
      <rect id="Rectangle_310" data-name="Rectangle 310" width="7" height="5" transform="translate(80.838 141.728)"/>
      <rect id="Rectangle_311" data-name="Rectangle 311" width="7" height="5" transform="translate(93.838 141.728)"/>
      <rect id="Rectangle_312" data-name="Rectangle 312" width="6" height="5" transform="translate(121.838 141.728)"/>
      <rect id="Rectangle_313" data-name="Rectangle 313" width="9" height="5" transform="translate(148.838 141.728)"/>
      <rect id="Rectangle_314" data-name="Rectangle 314" width="4" height="5" transform="translate(157.838 141.728)"/>
      <rect id="Rectangle_315" data-name="Rectangle 315" width="7" height="9" transform="translate(11.838 146.728)"/>
      <rect id="Rectangle_316" data-name="Rectangle 316" width="7" height="9" transform="translate(25.838 146.728)"/>
      <rect id="Rectangle_317" data-name="Rectangle 317" width="6" height="9" transform="translate(32.838 146.728)"/>
      <rect id="Rectangle_318" data-name="Rectangle 318" width="7" height="9" transform="translate(38.838 146.728)"/>
      <rect id="Rectangle_319" data-name="Rectangle 319" width="8" height="9" transform="translate(51.838 146.728)"/>
      <rect id="Rectangle_320" data-name="Rectangle 320" width="7" height="9" transform="translate(80.838 146.728)"/>
      <rect id="Rectangle_321" data-name="Rectangle 321" width="6" height="9" transform="translate(87.838 146.728)"/>
      <rect id="Rectangle_322" data-name="Rectangle 322" width="6" height="9" transform="translate(100.838 146.728)"/>
      <rect id="Rectangle_323" data-name="Rectangle 323" width="8" height="9" transform="translate(113.838 146.728)"/>
      <rect id="Rectangle_324" data-name="Rectangle 324" width="6" height="9" transform="translate(121.838 146.728)"/>
      <rect id="Rectangle_325" data-name="Rectangle 325" width="7" height="9" transform="translate(127.838 146.728)"/>
      <rect id="Rectangle_326" data-name="Rectangle 326" width="7" height="9" transform="translate(134.838 146.728)"/>
      <rect id="Rectangle_327" data-name="Rectangle 327" width="7" height="9" transform="translate(141.838 146.728)"/>
      <rect id="Rectangle_328" data-name="Rectangle 328" width="9" height="9" transform="translate(148.838 146.728)"/>
      <rect id="Rectangle_329" data-name="Rectangle 329" width="4" height="9" transform="translate(157.838 146.728)"/>
      <rect id="Rectangle_330" data-name="Rectangle 330" width="7" height="9" transform="translate(161.838 146.728)"/>
      <rect id="Rectangle_331" data-name="Rectangle 331" width="7" height="7" transform="translate(11.838 155.728)"/>
      <rect id="Rectangle_332" data-name="Rectangle 332" width="7" height="7" transform="translate(25.838 155.728)"/>
      <rect id="Rectangle_333" data-name="Rectangle 333" width="6" height="7" transform="translate(32.838 155.728)"/>
      <rect id="Rectangle_334" data-name="Rectangle 334" width="7" height="7" transform="translate(38.838 155.728)"/>
      <rect id="Rectangle_335" data-name="Rectangle 335" width="8" height="7" transform="translate(51.838 155.728)"/>
      <rect id="Rectangle_336" data-name="Rectangle 336" width="7" height="7" transform="translate(80.838 155.728)"/>
      <rect id="Rectangle_337" data-name="Rectangle 337" width="6" height="7" transform="translate(87.838 155.728)"/>
      <rect id="Rectangle_338" data-name="Rectangle 338" width="7" height="7" transform="translate(93.838 155.728)"/>
      <rect id="Rectangle_339" data-name="Rectangle 339" width="6" height="7" transform="translate(100.838 155.728)"/>
      <rect id="Rectangle_340" data-name="Rectangle 340" width="7" height="7" transform="translate(127.838 155.728)"/>
      <rect id="Rectangle_341" data-name="Rectangle 341" width="7" height="7" transform="translate(134.838 155.728)"/>
      <rect id="Rectangle_342" data-name="Rectangle 342" width="4" height="7" transform="translate(157.838 155.728)"/>
      <rect id="Rectangle_343" data-name="Rectangle 343" width="7" height="7" transform="translate(168.838 155.728)"/>
      <rect id="Rectangle_344" data-name="Rectangle 344" width="7" height="7" transform="translate(175.838 155.728)"/>
      <rect id="Rectangle_345" data-name="Rectangle 345" width="7" height="7" transform="translate(11.838 162.728)"/>
      <rect id="Rectangle_346" data-name="Rectangle 346" width="7" height="7" transform="translate(25.838 162.728)"/>
      <rect id="Rectangle_347" data-name="Rectangle 347" width="6" height="7" transform="translate(32.838 162.728)"/>
      <rect id="Rectangle_348" data-name="Rectangle 348" width="7" height="7" transform="translate(38.838 162.728)"/>
      <rect id="Rectangle_349" data-name="Rectangle 349" width="8" height="7" transform="translate(51.838 162.728)"/>
      <rect id="Rectangle_350" data-name="Rectangle 350" width="7" height="7" transform="translate(80.838 162.728)"/>
      <rect id="Rectangle_351" data-name="Rectangle 351" width="8" height="7" transform="translate(113.838 162.728)"/>
      <rect id="Rectangle_352" data-name="Rectangle 352" width="4" height="7" transform="translate(157.838 162.728)"/>
      <rect id="Rectangle_353" data-name="Rectangle 353" width="7" height="7" transform="translate(161.838 162.728)"/>
      <rect id="Rectangle_354" data-name="Rectangle 354" width="7" height="7" transform="translate(175.838 162.728)"/>
      <rect id="Rectangle_355" data-name="Rectangle 355" width="7" height="6" transform="translate(11.838 169.728)"/>
      <rect id="Rectangle_356" data-name="Rectangle 356" width="8" height="6" transform="translate(51.838 169.728)"/>
      <rect id="Rectangle_357" data-name="Rectangle 357" width="6" height="6" transform="translate(66.838 169.728)"/>
      <rect id="Rectangle_358" data-name="Rectangle 358" width="6" height="6" transform="translate(87.838 169.728)"/>
      <rect id="Rectangle_359" data-name="Rectangle 359" width="7" height="6" transform="translate(106.838 169.728)"/>
      <rect id="Rectangle_360" data-name="Rectangle 360" width="8" height="6" transform="translate(113.838 169.728)"/>
      <rect id="Rectangle_361" data-name="Rectangle 361" width="6" height="6" transform="translate(121.838 169.728)"/>
      <rect id="Rectangle_362" data-name="Rectangle 362" width="7" height="6" transform="translate(134.838 169.728)"/>
      <rect id="Rectangle_363" data-name="Rectangle 363" width="4" height="6" transform="translate(157.838 169.728)"/>
      <rect id="Rectangle_364" data-name="Rectangle 364" width="7" height="6" transform="translate(175.838 169.728)"/>
      <rect id="Rectangle_365" data-name="Rectangle 365" width="7" height="7" transform="translate(11.838 175.728)"/>
      <rect id="Rectangle_366" data-name="Rectangle 366" width="7" height="7" transform="translate(18.838 175.728)"/>
      <rect id="Rectangle_367" data-name="Rectangle 367" width="7" height="7" transform="translate(25.838 175.728)"/>
      <rect id="Rectangle_368" data-name="Rectangle 368" width="6" height="7" transform="translate(32.838 175.728)"/>
      <rect id="Rectangle_369" data-name="Rectangle 369" width="7" height="7" transform="translate(38.838 175.728)"/>
      <rect id="Rectangle_370" data-name="Rectangle 370" width="6" height="7" transform="translate(45.838 175.728)"/>
      <rect id="Rectangle_371" data-name="Rectangle 371" width="8" height="7" transform="translate(51.838 175.728)"/>
      <rect id="Rectangle_372" data-name="Rectangle 372" width="6" height="7" transform="translate(66.838 175.728)"/>
      <rect id="Rectangle_373" data-name="Rectangle 373" width="8" height="7" transform="translate(72.838 175.728)"/>
      <rect id="Rectangle_374" data-name="Rectangle 374" width="7" height="7" transform="translate(80.838 175.728)"/>
      <rect id="Rectangle_375" data-name="Rectangle 375" width="6" height="7" transform="translate(87.838 175.728)"/>
      <rect id="Rectangle_376" data-name="Rectangle 376" width="7" height="7" transform="translate(106.838 175.728)"/>
      <rect id="Rectangle_377" data-name="Rectangle 377" width="6" height="7" transform="translate(121.838 175.728)"/>
      <rect id="Rectangle_378" data-name="Rectangle 378" width="7" height="7" transform="translate(134.838 175.728)"/>
      <rect id="Rectangle_379" data-name="Rectangle 379" width="9" height="7" transform="translate(148.838 175.728)"/>
      <rect id="Rectangle_380" data-name="Rectangle 380" width="4" height="7" transform="translate(157.838 175.728)"/>
      <rect id="Rectangle_381" data-name="Rectangle 381" width="7" height="7" transform="translate(175.838 175.728)"/>
    </g>
    <text id="MP5_222_333_444_555" data-name="MP5 222 333 444 555" class="cls-2" transform="translate(3.568 219.728)"><tspan x="0" y="0">MP5 222 333 444 555</tspan></text>
  </g>
</svg>
