<svg id="Write_Review" data-name="Write Review" xmlns="http://www.w3.org/2000/svg" width="512" height="512" viewBox="0 0 512 512">
  <path id="Path_271" data-name="Path 271" d="M503.234,186.828l-25.042-25.041a30.036,30.036,0,0,0-42.428,0l-52.746,52.745V45a45.052,45.052,0,0,0-45-45H45.008a45.052,45.052,0,0,0-45,45V467a45.052,45.052,0,0,0,45,45H338.016a45.052,45.052,0,0,0,45-45V347.967L503.234,229.255A30.034,30.034,0,0,0,503.234,186.828ZM323.83,364.251l-45.123,21.058,21.038-45.078L411.722,228.256l24.758,24.756ZM353.017,467a15.017,15.017,0,0,1-15,15H45.008a15.017,15.017,0,0,1-15-15V45a15.017,15.017,0,0,1,15-15H338.016a15.017,15.017,0,0,1,15,15V244.532c-83.181,83.179-77.749,77.2-79.342,80.616L234.076,410a15,15,0,0,0,19.937,19.936l84.856-39.6c3.111-1.452,3.623-2.354,14.148-12.748ZM457.826,231.933l-24.891-24.89L456.979,183l25.034,25.049Z" transform="translate(-0.007)" fill="#fff"/>
  <path id="Path_272" data-name="Path 272" d="M80.041,127.069H304.558a15.035,15.035,0,1,0,0-30.069H80.041a15.035,15.035,0,0,0,0,30.069Z" transform="translate(0.143 -0.014)" fill="#fff"/>
  <path id="Path_273" data-name="Path 273" d="M80.041,207.07H256.448a15.035,15.035,0,0,0,0-30.07H80.041a15.035,15.035,0,0,0,0,30.07Z" transform="translate(0.143 -0.025)" fill="#fff"/>
  <path id="Path_274" data-name="Path 274" d="M208.337,257H80.042a15.034,15.034,0,1,0,0,30.069h128.3a15.034,15.034,0,1,0,0-30.069Z" transform="translate(0.143 -0.037)" fill="#fff"/>
</svg>
