<?xml version="1.0" encoding="UTF-8"?>
<svg xmlns="http://www.w3.org/2000/svg" xmlns:xlink="http://www.w3.org/1999/xlink" width="40pt" height="32pt" viewBox="0 0 40 32" version="1.1">
<defs>
<linearGradient id="linear0" gradientUnits="userSpaceOnUse" x1="-1841.1395" y1="1939.973" x2="-1840.4423" y2="1940.6373" gradientTransform="matrix(14.322741,0,0,-26.037931,26393.495327,50543.909682)">
<stop offset="0.2291" style="stop-color:rgb(100%,100%,100%);stop-opacity:0;"/>
<stop offset="1" style="stop-color:rgb(100%,100%,100%);stop-opacity:0.678431;"/>
</linearGradient>
<clipPath id="clip1">
  <rect x="0" y="0" width="40" height="32"/>
</clipPath>
<g id="surface5" clip-path="url(#clip1)">
<path style=" stroke:none;fill-rule:nonzero;fill:url(#linear0);" d="M 33.058594 18.34375 C 34.054688 14.15625 34.554688 13.65625 35.253906 10.867188 C 35.75 8.671875 35.949219 6.878906 34.855469 4.085938 C 34.554688 3.390625 33.757812 2.292969 33.359375 2.09375 C 28.773438 10.867188 25.285156 19.238281 20.699219 28.011719 C 20.996094 28.011719 21.296875 28.011719 21.496094 28.011719 C 22.792969 28.011719 24.1875 27.8125 25.382812 27.316406 L 29.871094 25.71875 L 33.957031 24.023438 C 33.257812 22.929688 32.363281 21.234375 33.058594 18.34375 Z M 33.058594 18.34375 "/>
</g>
<filter id="alpha" filterUnits="objectBoundingBox" x="0%" y="0%" width="100%" height="100%">
  <feColorMatrix type="matrix" in="SourceGraphic" values="0 0 0 0 1 0 0 0 0 1 0 0 0 0 1 0 0 0 1 0"/>
</filter>
<mask id="mask0">
  <g filter="url(#alpha)">
<rect x="0" y="0" width="40" height="32" style="fill:rgb(0%,0%,0%);fill-opacity:0.741176;stroke:none;"/>
  </g>
</mask>
<clipPath id="clip2">
  <rect x="0" y="0" width="40" height="32"/>
</clipPath>
<g id="surface8" clip-path="url(#clip2)">
<path style=" stroke:none;fill-rule:nonzero;fill:rgb(0%,38.431373%,91.372549%);fill-opacity:1;" d="M 20.101562 24.625 C 19.898438 24.625 19.800781 24.625 19.601562 24.625 C 15.015625 24.222656 11.925781 21.332031 10.429688 19.636719 C 8.933594 17.945312 8.136719 15.75 8.136719 13.457031 L 8.136719 10.167969 C 8.136719 9.371094 8.636719 8.671875 9.332031 8.375 C 10.429688 7.976562 12.324219 7.175781 14.515625 5.582031 C 17.109375 3.589844 19.101562 3.289062 20 3.289062 L 20.199219 3.289062 C 21.097656 3.289062 23.089844 3.589844 25.683594 5.484375 C 27.875 7.078125 29.667969 7.875 30.867188 8.273438 C 31.5625 8.472656 32.0625 9.171875 32.0625 10.070312 L 32.0625 13.359375 C 32.0625 15.652344 31.265625 17.84375 29.769531 19.539062 C 28.375 21.234375 25.183594 24.125 20.699219 24.523438 C 20.398438 24.625 20.300781 24.625 20.101562 24.625 Z M 20.101562 24.625 "/>
</g>
<mask id="mask1">
  <g filter="url(#alpha)">
<rect x="0" y="0" width="40" height="32" style="fill:rgb(0%,0%,0%);fill-opacity:0.741176;stroke:none;"/>
  </g>
</mask>
<clipPath id="clip3">
  <rect x="0" y="0" width="40" height="32"/>
</clipPath>
<g id="surface11" clip-path="url(#clip3)">
<path style=" stroke:none;fill-rule:nonzero;fill:rgb(0%,38.431373%,91.372549%);fill-opacity:1;" d="M 29.070312 11.265625 L 29.070312 12.859375 C 23.191406 14.253906 17.007812 14.253906 11.128906 12.859375 L 11.128906 11.265625 C 17.007812 12.761719 23.191406 12.761719 29.070312 11.265625 Z M 29.070312 11.265625 "/>
</g>
<mask id="mask2">
  <g filter="url(#alpha)">
<rect x="0" y="0" width="40" height="32" style="fill:rgb(0%,0%,0%);fill-opacity:0.741176;stroke:none;"/>
  </g>
</mask>
<clipPath id="clip4">
  <rect x="0" y="0" width="40" height="32"/>
</clipPath>
<g id="surface14" clip-path="url(#clip4)">
<path style=" stroke:none;fill-rule:nonzero;fill:rgb(0%,38.431373%,91.372549%);fill-opacity:1;" d="M 27.078125 9.96875 C 22.492188 10.765625 17.707031 10.765625 13.121094 9.96875 C 13.820312 9.570312 14.515625 9.171875 15.214844 8.773438 C 18.503906 9.171875 21.792969 9.171875 25.085938 8.773438 C 25.683594 9.171875 26.378906 9.570312 27.078125 9.96875 Z M 27.078125 9.96875 "/>
</g>
<mask id="mask3">
  <g filter="url(#alpha)">
<rect x="0" y="0" width="40" height="32" style="fill:rgb(0%,0%,0%);fill-opacity:0.741176;stroke:none;"/>
  </g>
</mask>
<clipPath id="clip5">
  <rect x="0" y="0" width="40" height="32"/>
</clipPath>
<g id="surface17" clip-path="url(#clip5)">
<path style=" stroke:none;fill-rule:nonzero;fill:rgb(0%,38.431373%,91.372549%);fill-opacity:1;" d="M 28.972656 14.652344 C 28.871094 15.253906 28.671875 15.851562 28.375 16.347656 C 22.890625 17.546875 17.308594 17.546875 11.824219 16.347656 C 11.527344 15.851562 11.328125 15.253906 11.226562 14.652344 C 17.109375 16.148438 23.089844 16.148438 28.972656 14.652344 Z M 28.972656 14.652344 "/>
</g>
<mask id="mask4">
  <g filter="url(#alpha)">
<rect x="0" y="0" width="40" height="32" style="fill:rgb(0%,0%,0%);fill-opacity:0.741176;stroke:none;"/>
  </g>
</mask>
<clipPath id="clip6">
  <rect x="0" y="0" width="40" height="32"/>
</clipPath>
<g id="surface20" clip-path="url(#clip6)">
<path style=" stroke:none;fill-rule:nonzero;fill:rgb(0%,38.431373%,91.372549%);fill-opacity:1;" d="M 26.777344 18.542969 C 26.179688 19.140625 25.285156 19.839844 24.285156 20.4375 C 21.59375 20.734375 18.804688 20.734375 16.113281 20.4375 C 15.117188 19.839844 14.21875 19.140625 13.621094 18.542969 C 17.808594 19.339844 22.390625 19.339844 26.777344 18.542969 Z M 26.777344 18.542969 "/>
</g>
<mask id="mask5">
  <g filter="url(#alpha)">
<rect x="0" y="0" width="40" height="32" style="fill:rgb(0%,0%,0%);fill-opacity:0.160784;stroke:none;"/>
  </g>
</mask>
<clipPath id="clip7">
  <rect x="0" y="0" width="40" height="32"/>
</clipPath>
<g id="surface23" clip-path="url(#clip7)">
<path style=" stroke:none;fill-rule:nonzero;fill:rgb(0%,0%,0%);fill-opacity:1;" d="M 24.386719 24.523438 C 23.289062 25.023438 21.992188 25.320312 20.699219 25.421875 C 20.5 25.421875 20.300781 25.421875 20.101562 25.421875 C 19.898438 25.421875 19.699219 25.421875 19.5 25.421875 C 15.117188 25.023438 11.824219 22.53125 9.832031 20.136719 C 8.238281 18.242188 7.339844 15.851562 7.339844 13.359375 L 7.339844 10.070312 C 7.339844 8.972656 8.039062 7.976562 9.035156 7.578125 C 10.230469 7.175781 11.925781 6.378906 14.019531 4.882812 C 14.316406 4.683594 14.617188 4.386719 14.914062 4.1875 C 14.914062 4.484375 14.914062 4.882812 14.914062 5.183594 C 14.914062 5.882812 15.015625 6.679688 15.015625 7.476562 C 15.015625 7.875 15.117188 8.273438 15.117188 8.671875 C 15.214844 9.171875 15.214844 9.667969 15.316406 10.269531 C 15.414062 10.867188 15.515625 11.464844 15.613281 12.160156 C 15.714844 12.660156 15.8125 13.257812 16.011719 13.757812 C 16.210938 14.355469 16.3125 15.054688 16.609375 15.652344 C 16.808594 16.148438 17.007812 16.746094 17.207031 17.246094 C 17.507812 17.84375 17.808594 18.542969 18.105469 19.140625 C 18.40625 19.636719 18.804688 20.238281 19.101562 20.734375 C 19.402344 21.132812 19.699219 21.433594 20 21.730469 C 20.300781 22.03125 20.597656 22.429688 20.996094 22.730469 C 21.695312 23.328125 22.390625 23.726562 23.191406 24.125 C 23.6875 24.222656 23.988281 24.421875 24.386719 24.523438 Z M 24.386719 24.523438 "/>
</g>
</defs>
<g id="surface1">
<path style=" stroke:none;fill-rule:nonzero;fill:rgb(37.647059%,37.647059%,37.647059%);fill-opacity:1;" d="M 5.046875 12.925781 C 7.238281 18.507812 7.238281 19.207031 6.941406 21.398438 C 6.742188 22.792969 6.042969 23.992188 5.046875 24.988281 L 15.414062 27.980469 C 16.113281 28.179688 16.910156 28.378906 17.707031 28.476562 C 18.503906 28.578125 19.203125 28.675781 20 28.675781 C 20.796875 28.675781 21.496094 28.675781 22.292969 28.476562 C 23.089844 28.378906 23.789062 28.179688 24.585938 27.980469 L 34.953125 24.988281 C 33.957031 24.089844 33.257812 22.792969 33.058594 21.398438 C 32.761719 19.207031 33.855469 16.214844 34.953125 12.925781 C 36.050781 9.636719 36.050781 6.546875 35.152344 4.253906 C 34.15625 1.960938 32.160156 0.464844 28.972656 0.464844 C 27.777344 0.464844 26.480469 0.5625 25.285156 0.761719 C 24.285156 0.964844 23.789062 1.0625 22.292969 1.363281 C 21.59375 1.5625 20.796875 1.660156 20.101562 1.660156 C 19.300781 1.660156 18.503906 1.5625 17.707031 1.363281 C 16.3125 0.964844 16.710938 1.0625 15.117188 0.761719 C 13.917969 0.464844 12.625 0.363281 11.328125 0.464844 C 8.136719 0.464844 6.144531 1.960938 5.144531 4.253906 C 3.851562 6.644531 3.949219 9.734375 5.046875 12.925781 Z M 5.046875 12.925781 "/>
<path style=" stroke:none;fill-rule:nonzero;fill:rgb(76.470588%,76.862745%,81.176471%);fill-opacity:1;" d="M 14.117188 20.800781 C 13.621094 20.902344 13.222656 21.101562 12.722656 21.199219 C 12.324219 21.398438 12.023438 21.597656 12.324219 21.796875 C 13.320312 22.195312 14.316406 22.59375 15.414062 22.792969 C 17.207031 23.195312 19.003906 23.394531 20.898438 23.195312 C 22.59375 22.996094 24.1875 22.695312 25.78125 22.195312 C 26.976562 21.796875 27.777344 21.398438 27.777344 21.199219 C 27.777344 21 26.679688 20.703125 25.183594 20.5 C 23.589844 20.203125 21.894531 20.101562 20.199219 20.101562 C 18.902344 20.101562 17.609375 20.203125 16.410156 20.300781 C 15.613281 20.402344 14.816406 20.601562 14.117188 20.800781 Z M 14.117188 20.800781 "/>
<path style=" stroke:none;fill-rule:nonzero;fill:rgb(61.960784%,61.960784%,61.960784%);fill-opacity:1;" d="M 2.453125 0.164062 C 3.652344 0.164062 4.546875 1.0625 4.546875 2.257812 L 4.546875 13.921875 C 4.546875 15.117188 3.652344 16.015625 2.453125 16.015625 C 1.257812 16.015625 0.363281 15.117188 0.363281 13.921875 L 0.363281 2.257812 C 0.363281 1.164062 1.257812 0.164062 2.453125 0.164062 Z M 2.453125 0.164062 "/>
<path style=" stroke:none;fill-rule:nonzero;fill:rgb(61.960784%,61.960784%,61.960784%);fill-opacity:1;" d="M 37.546875 0.164062 C 38.742188 0.164062 39.636719 1.0625 39.636719 2.257812 L 39.636719 13.921875 C 39.636719 15.117188 38.742188 16.015625 37.546875 16.015625 C 36.347656 16.015625 35.453125 15.117188 35.453125 13.921875 L 35.453125 2.257812 C 35.453125 1.660156 35.652344 1.164062 36.050781 0.761719 C 36.449219 0.363281 36.945312 0.164062 37.546875 0.164062 Z M 37.546875 0.164062 "/>
<path style=" stroke:none;fill-rule:nonzero;fill:rgb(61.960784%,61.960784%,61.960784%);fill-opacity:1;" d="M 4.050781 23.292969 C 9.132812 25.1875 12.125 27.679688 20 27.679688 C 27.875 27.679688 30.867188 25.1875 36.050781 23.292969 C 36.648438 23.09375 37.347656 23.09375 38.042969 23.292969 C 38.640625 23.492188 39.140625 23.890625 39.4375 24.488281 C 39.738281 25.085938 39.738281 25.785156 39.4375 26.285156 C 39.140625 26.882812 38.542969 27.378906 37.84375 27.679688 C 32.160156 29.773438 26.878906 31.867188 20.101562 31.867188 C 13.320312 31.867188 7.9375 29.773438 2.253906 27.679688 C 1.558594 27.480469 1.058594 26.980469 0.660156 26.285156 C 0.363281 25.6875 0.363281 25.085938 0.5625 24.488281 C 0.859375 23.890625 1.359375 23.492188 1.957031 23.292969 C 2.652344 23.09375 3.351562 23.09375 4.050781 23.292969 Z M 4.050781 23.292969 "/>
<path style=" stroke:none;fill-rule:nonzero;fill:rgb(31.372549%,31.372549%,31.372549%);fill-opacity:1;" d="M 39.636719 2.292969 C 39.636719 3.449219 38.703125 4.386719 37.546875 4.386719 C 36.390625 4.386719 35.453125 3.449219 35.453125 2.292969 C 35.453125 1.136719 36.390625 0.199219 37.546875 0.199219 C 38.703125 0.199219 39.636719 1.136719 39.636719 2.292969 Z M 39.636719 2.292969 "/>
<use xlink:href="#surface5"/>
<path style=" stroke:none;fill-rule:nonzero;fill:rgb(24.313725%,0%,58.039216%);fill-opacity:1;" d="M 9.929688 17.445312 C 9.332031 17.445312 8.636719 17.445312 7.738281 17.246094 C 6.144531 16.847656 3.75 15.949219 1.957031 13.457031 C 1.160156 12.261719 0.660156 11.066406 0.660156 9.871094 C 0.660156 8.871094 0.960938 7.976562 1.558594 7.375 C 2.453125 6.480469 3.851562 6.578125 5.144531 7.578125 C 5.644531 7.976562 5.945312 8.375 6.242188 8.773438 C 7.140625 9.769531 7.839844 10.667969 10.03125 10.269531 L 10.128906 10.566406 C 7.738281 10.964844 6.941406 9.96875 6.042969 8.972656 C 5.644531 8.574219 5.347656 8.175781 4.945312 7.777344 C 3.851562 6.878906 2.652344 6.777344 1.757812 7.578125 C 0.363281 8.972656 0.960938 11.464844 2.253906 13.160156 C 5.644531 17.746094 10.828125 17.046875 10.929688 17.046875 L 11.027344 17.347656 C 10.929688 17.347656 10.53125 17.445312 9.929688 17.445312 Z M 9.929688 17.445312 "/>
<path style=" stroke:none;fill-rule:nonzero;fill:rgb(24.313725%,0%,58.039216%);fill-opacity:1;" d="M 30.070312 17.445312 C 29.46875 17.445312 29.070312 17.347656 29.070312 17.347656 L 29.171875 17.046875 C 29.269531 17.046875 34.355469 17.84375 37.84375 13.160156 C 39.140625 11.464844 39.738281 8.972656 38.34375 7.578125 C 37.546875 6.777344 36.347656 6.878906 35.152344 7.777344 C 34.753906 8.074219 34.355469 8.472656 34.054688 8.871094 C 33.160156 9.871094 32.363281 10.867188 29.96875 10.46875 L 30.070312 10.167969 C 32.261719 10.566406 32.960938 9.667969 33.855469 8.671875 C 34.15625 8.273438 34.554688 7.875 34.953125 7.476562 C 36.148438 6.480469 37.644531 6.480469 38.542969 7.375 C 39.039062 7.976562 39.339844 8.871094 39.339844 9.871094 C 39.339844 10.964844 38.839844 12.160156 37.945312 13.359375 C 36.050781 15.851562 33.757812 16.847656 32.160156 17.144531 C 31.363281 17.347656 30.566406 17.445312 30.070312 17.445312 Z M 30.070312 17.445312 "/>
<path style=" stroke:none;fill-rule:nonzero;fill:rgb(100%,100%,100%);fill-opacity:1;" d="M 32.859375 10.167969 L 32.859375 13.457031 C 32.859375 15.351562 32.363281 17.144531 31.464844 18.742188 C 31.164062 19.238281 30.765625 19.738281 30.367188 20.238281 C 28.972656 21.832031 26.976562 23.527344 24.386719 24.625 C 23.289062 25.121094 21.992188 25.421875 20.699219 25.519531 C 20.5 25.519531 20.300781 25.519531 20.101562 25.519531 C 19.898438 25.519531 19.699219 25.519531 19.5 25.519531 C 15.117188 25.121094 11.824219 22.628906 9.832031 20.238281 C 9.433594 19.738281 9.132812 19.339844 8.835938 18.742188 C 7.9375 17.144531 7.4375 15.351562 7.4375 13.457031 L 7.4375 10.167969 C 7.339844 8.972656 8.039062 7.976562 9.035156 7.578125 C 10.230469 7.175781 11.925781 6.378906 14.019531 4.882812 C 14.316406 4.683594 14.617188 4.386719 14.914062 4.1875 C 17.308594 2.691406 19.203125 2.390625 20 2.492188 C 20.796875 2.492188 22.390625 2.691406 24.484375 3.886719 C 24.984375 4.1875 25.484375 4.484375 26.082031 4.882812 C 27.476562 5.882812 28.671875 6.578125 29.769531 7.078125 C 30.269531 7.277344 30.667969 7.476562 31.066406 7.578125 C 32.160156 7.976562 32.859375 8.972656 32.859375 10.167969 Z M 32.859375 10.167969 "/>
<use xlink:href="#surface8" mask="url(#mask0)"/>
<path style=" stroke:none;fill-rule:nonzero;fill:rgb(100%,100%,100%);fill-opacity:1;" d="M 20.101562 22.730469 C 20 22.730469 19.898438 22.730469 19.800781 22.730469 C 15.914062 22.332031 13.222656 19.839844 11.925781 18.441406 C 10.730469 17.046875 10.128906 15.351562 10.128906 13.457031 L 10.128906 10.765625 C 10.128906 10.46875 10.332031 10.167969 10.628906 9.96875 C 11.925781 9.46875 13.621094 8.574219 15.714844 7.078125 C 18.007812 5.382812 19.5 5.183594 20.101562 5.183594 L 20.199219 5.183594 C 20.796875 5.183594 22.292969 5.382812 24.585938 7.078125 C 26.578125 8.574219 28.273438 9.371094 29.570312 9.871094 C 29.96875 9.96875 30.167969 10.367188 30.167969 10.765625 L 30.167969 13.359375 C 30.167969 15.253906 29.570312 17.046875 28.375 18.34375 C 27.078125 19.839844 24.386719 22.332031 20.5 22.628906 C 20.300781 22.730469 20.199219 22.730469 20.101562 22.730469 Z M 20.101562 22.730469 "/>
<path style=" stroke:none;fill-rule:nonzero;fill:rgb(100%,100%,100%);fill-opacity:1;" d="M 29.070312 10.867188 L 29.070312 13.457031 C 29.070312 13.855469 29.070312 14.355469 28.972656 14.753906 C 28.871094 15.351562 28.671875 15.949219 28.375 16.449219 C 28.175781 16.945312 27.875 17.347656 27.476562 17.746094 C 27.277344 17.945312 26.976562 18.242188 26.679688 18.542969 C 26.082031 19.140625 25.183594 19.839844 24.1875 20.4375 C 23.089844 21.035156 21.792969 21.53125 20.300781 21.632812 C 20.199219 21.632812 20.101562 21.632812 20 21.632812 C 19.898438 21.632812 19.800781 21.632812 19.800781 21.632812 C 18.304688 21.53125 17.007812 21.035156 15.914062 20.4375 C 14.914062 19.839844 14.019531 19.140625 13.421875 18.542969 C 13.121094 18.242188 12.921875 17.945312 12.625 17.746094 C 12.324219 17.347656 12.023438 16.945312 11.726562 16.449219 C 11.425781 15.949219 11.226562 15.351562 11.128906 14.753906 C 11.027344 14.355469 11.027344 13.957031 11.027344 13.457031 L 11.027344 10.867188 C 11.726562 10.566406 12.324219 10.269531 13.023438 9.96875 C 13.71875 9.570312 14.417969 9.171875 15.117188 8.773438 C 15.515625 8.574219 15.8125 8.273438 16.210938 7.976562 C 18.304688 6.480469 19.601562 6.28125 20 6.28125 L 20.101562 6.28125 C 20.398438 6.28125 21.792969 6.378906 23.789062 7.976562 C 24.1875 8.273438 24.484375 8.472656 24.882812 8.773438 C 25.582031 9.269531 26.28125 9.667969 26.976562 9.96875 C 27.777344 10.269531 28.375 10.566406 29.070312 10.867188 Z M 29.070312 10.867188 "/>
<use xlink:href="#surface11" mask="url(#mask1)"/>
<use xlink:href="#surface14" mask="url(#mask2)"/>
<use xlink:href="#surface17" mask="url(#mask3)"/>
<use xlink:href="#surface20" mask="url(#mask4)"/>
<use xlink:href="#surface23" mask="url(#mask5)"/>
</g>
</svg>
