<svg id="ticket" xmlns="http://www.w3.org/2000/svg" width="23.597" height="22.938" viewBox="0 0 23.597 22.938">
  <defs>
    <style>
      .cls-1 {
        fill: #adadbe;
      }
    </style>
  </defs>
  <g id="Group_187" data-name="Group 187">
    <g id="Group_186" data-name="Group 186">
      <path id="Path_74" data-name="Path 74" class="cls-1" d="M13.7,6.66V1.85A1.879,1.879,0,0,0,11.8,0H1.9A1.879,1.879,0,0,0,0,1.85V21.089a1.879,1.879,0,0,0,1.9,1.85h9.9a1.879,1.879,0,0,0,1.9-1.85v-4.81h9.9V6.66ZM.761,1.85A1.128,1.128,0,0,1,1.9.74h9.9A1.128,1.128,0,0,1,12.94,1.85v.74H.761ZM12.94,21.089A1.128,1.128,0,0,1,11.8,22.2H1.9a1.128,1.128,0,0,1-1.142-1.11v-1.11H12.94Zm0-1.85H.761V3.33H12.94V6.66H4.567v3.7h.381a1.11,1.11,0,1,1,0,2.22H4.567v3.7H12.94Zm9.9-3.7H12.179V14.8h-.761v.74H5.328V13.282a1.84,1.84,0,0,0,0-3.625V7.4h6.09v.74h.761V7.4H22.836Z"/>
    </g>
  </g>
  <g id="Group_189" data-name="Group 189" transform="translate(11.366 9.558)">
    <g id="Group_188" data-name="Group 188" transform="translate(0 0)">
      <rect id="Rectangle_22" data-name="Rectangle 22" class="cls-1" width="0.655"/>
    </g>
  </g>
  <g id="Group_191" data-name="Group 191" transform="translate(11.366 10.178)">
    <g id="Group_190" data-name="Group 190" transform="translate(0 0)">
      <rect id="Rectangle_23" data-name="Rectangle 23" class="cls-1" width="0.655" height="1.311"/>
    </g>
  </g>
  <g id="Group_193" data-name="Group 193" transform="translate(11.366 11.45)">
    <g id="Group_192" data-name="Group 192" transform="translate(0)">
      <rect id="Rectangle_24" data-name="Rectangle 24" class="cls-1" width="0.655" height="1.311"/>
    </g>
  </g>
  <g id="Group_195" data-name="Group 195" transform="translate(11.366 13.37)">
    <g id="Group_194" data-name="Group 194" transform="translate(0 0)">
      <rect id="Rectangle_25" data-name="Rectangle 25" class="cls-1" width="0.655" height="0.655"/>
    </g>
  </g>
  <g id="Group_197" data-name="Group 197" transform="translate(6.122 7.626)">
    <g id="Group_196" data-name="Group 196" transform="translate(0 0)">
      <rect id="Rectangle_26" data-name="Rectangle 26" class="cls-1" width="0.655" height="1.966"/>
    </g>
  </g>
  <g id="Group_199" data-name="Group 199" transform="translate(8.089 7.626)">
    <g id="Group_198" data-name="Group 198" transform="translate(0 0)">
      <rect id="Rectangle_27" data-name="Rectangle 27" class="cls-1" width="0.655" height="1.966"/>
    </g>
  </g>
  <g id="Group_201" data-name="Group 201" transform="translate(9.399 7.626)">
    <g id="Group_200" data-name="Group 200" transform="translate(0 0)">
      <rect id="Rectangle_28" data-name="Rectangle 28" class="cls-1" width="1.311" height="1.966"/>
    </g>
  </g>
  <g id="Group_203" data-name="Group 203" transform="translate(17.921 13.994)">
    <g id="Group_202" data-name="Group 202" transform="translate(0 0)">
      <rect id="Rectangle_29" data-name="Rectangle 29" class="cls-1" width="1.311" height="1.311"/>
    </g>
  </g>
  <g id="Group_205" data-name="Group 205" transform="translate(17.265 13.994)">
    <g id="Group_204" data-name="Group 204" transform="translate(0 0)">
      <rect id="Rectangle_30" data-name="Rectangle 30" class="cls-1" height="1.311"/>
    </g>
  </g>
  <g id="Group_207" data-name="Group 207" transform="translate(19.232 13.994)">
    <g id="Group_206" data-name="Group 206" transform="translate(0 0)">
      <rect id="Rectangle_31" data-name="Rectangle 31" class="cls-1" width="1.311" height="1.311"/>
    </g>
  </g>
  <g id="Group_209" data-name="Group 209" transform="translate(21.198 13.994)">
    <g id="Group_208" data-name="Group 208" transform="translate(0 0)">
      <rect id="Rectangle_32" data-name="Rectangle 32" class="cls-1" width="0.655" height="1.311"/>
    </g>
  </g>
  <g id="Group_211" data-name="Group 211" transform="translate(7.433 9.55)">
    <g id="Group_210" data-name="Group 210" transform="translate(0 0)">
      <rect id="Rectangle_33" data-name="Rectangle 33" class="cls-1" width="3.277" height="0.655" transform="translate(0)"/>
    </g>
  </g>
  <g id="Group_213" data-name="Group 213" transform="translate(7.433 12.733)">
    <g id="Group_212" data-name="Group 212" transform="translate(0 0)">
      <rect id="Rectangle_34" data-name="Rectangle 34" class="cls-1" width="3.277" height="0.655" transform="translate(0)"/>
    </g>
  </g>
  <g id="Group_215" data-name="Group 215" transform="translate(7.433 11.469)">
    <g id="Group_214" data-name="Group 214" transform="translate(0 0)">
      <rect id="Rectangle_35" data-name="Rectangle 35" class="cls-1" width="3.277" transform="translate(0)"/>
    </g>
  </g>
  <g id="Group_217" data-name="Group 217" transform="translate(17.921 9.558)">
    <g id="Group_216" data-name="Group 216" transform="translate(0 0)">
      <rect id="Rectangle_36" data-name="Rectangle 36" class="cls-1" width="3.933"/>
    </g>
  </g>
  <g id="Group_219" data-name="Group 219" transform="translate(12.677 9.558)">
    <g id="Group_218" data-name="Group 218" transform="translate(0 0)">
      <rect id="Rectangle_37" data-name="Rectangle 37" class="cls-1" width="4.588"/>
    </g>
  </g>
  <g id="Group_221" data-name="Group 221" transform="translate(12.677 10.178)">
    <g id="Group_220" data-name="Group 220" transform="translate(0 0)">
      <rect id="Rectangle_38" data-name="Rectangle 38" class="cls-1" width="9.177" height="1.311"/>
    </g>
  </g>
  <g id="Group_223" data-name="Group 223" transform="translate(12.677 11.45)">
    <g id="Group_222" data-name="Group 222" transform="translate(0)">
      <rect id="Rectangle_39" data-name="Rectangle 39" class="cls-1" width="9.177" height="1.311"/>
    </g>
  </g>
  <g id="Group_225" data-name="Group 225" transform="translate(4.811 20.317)">
    <g id="Group_224" data-name="Group 224" transform="translate(0 0)">
      <rect id="Rectangle_40" data-name="Rectangle 40" class="cls-1" width="3.933" height="1.311"/>
    </g>
  </g>
  <g id="Group_227" data-name="Group 227" transform="translate(1.534 4.457)">
    <g id="Group_226" data-name="Group 226" transform="translate(0 0)">
      <rect id="Rectangle_41" data-name="Rectangle 41" class="cls-1" width="0.655" height="0.655"/>
    </g>
  </g>
  <g id="Group_229" data-name="Group 229" transform="translate(1.534 4.893)">
    <g id="Group_228" data-name="Group 228" transform="translate(0 0)">
      <rect id="Rectangle_42" data-name="Rectangle 42" class="cls-1" width="0.655" height="13.765"/>
    </g>
  </g>
  <g id="Group_231" data-name="Group 231" transform="translate(7.433 13.994)">
    <g id="Group_230" data-name="Group 230" transform="translate(0 0)">
      <rect id="Rectangle_43" data-name="Rectangle 43" class="cls-1" width="3.277" height="1.311" transform="translate(0)"/>
    </g>
  </g>
  <g id="Group_233" data-name="Group 233" transform="translate(6.122 13.994)">
    <g id="Group_232" data-name="Group 232" transform="translate(0 0)">
      <rect id="Rectangle_44" data-name="Rectangle 44" class="cls-1" width="0.655" height="1.311"/>
    </g>
  </g>
</svg>
