<svg xmlns="http://www.w3.org/2000/svg" xmlns:xlink="http://www.w3.org/1999/xlink" width="60" height="60" viewBox="0 0 60 60">
  <defs>
    <style>
      .cls-1 {
        fill: #272c38;
        stroke: #545965;
        stroke-width: 2px;
      }

      .cls-2 {
        fill: #0aa5ae;
      }

      .cls-3 {
        stroke: none;
      }

      .cls-4 {
        fill: none;
      }

      .cls-5 {
        filter: url(#Ellipse_38);
      }
    </style>
    <filter id="Ellipse_38" x="0" y="0" width="60" height="60" filterUnits="userSpaceOnUse">
      <feOffset dy="3" input="SourceAlpha"/>
      <feGaussianBlur stdDeviation="3" result="blur"/>
      <feFlood flood-color="#d4d4d4" flood-opacity="0.161"/>
      <feComposite operator="in" in2="blur"/>
      <feComposite in="SourceGraphic"/>
    </filter>
  </defs>
  <g id="user-01" transform="translate(9 6)">
    <g id="Group_508" data-name="Group 508" transform="translate(-1716 -18)">
      <g class="cls-5" transform="matrix(1, 0, 0, 1, 1707, 12)">
        <g id="Ellipse_38-2" data-name="Ellipse 38" class="cls-1" transform="translate(9 6)">
          <circle class="cls-3" cx="21" cy="21" r="21"/>
          <circle class="cls-4" cx="21" cy="21" r="20"/>
        </g>
      </g>
      <path id="Icon_awesome-user-alt" data-name="Icon awesome-user-alt" class="cls-2" d="M14.611,16.437A8.218,8.218,0,1,0,6.392,8.218,8.221,8.221,0,0,0,14.611,16.437Zm7.305,1.826H18.771a9.935,9.935,0,0,1-8.321,0H7.305A7.3,7.3,0,0,0,0,25.569v.913a2.74,2.74,0,0,0,2.739,2.739H26.482a2.74,2.74,0,0,0,2.739-2.739v-.913A7.3,7.3,0,0,0,21.916,18.263Z" transform="translate(1722.405 23.165)"/>
    </g>
  </g>
</svg>
