<svg xmlns="http://www.w3.org/2000/svg" width="40" height="40" viewBox="0 0 51.235 50">
  <defs>
    <style>
      .cls-1 {
        fill: #231f20;
      }

      .cls-2 {
        fill: #fff;
      }

      .cls-3 {
        fill: #fefefe;
      }

      .cls-4 {
        fill: #2e1b1e;
      }

      .cls-5 {
        fill: #33191c;
      }

      .cls-6 {
        fill: #232021;
      }

      .cls-7 {
        fill: #242222;
      }

      .cls-8 {
        fill: #262425;
      }

      .cls-9 {
        fill: #282627;
      }

      .cls-10 {
        fill: #2a2829;
      }

      .cls-11 {
        fill: #2b292a;
      }

      .cls-12 {
        fill: #2e2c2d;
      }

      .cls-13 {
        fill: #383738;
      }

      .cls-14 {
        fill: #636363;
      }

      .cls-15 {
        fill: #3a393a;
      }

      .cls-16 {
        fill: #919091;
      }

      .cls-17 {
        fill: #a8a8a8;
      }

      .cls-18 {
        fill: #fdfcfc;
      }
    </style>
  </defs>
  <g id="Ananda_Vikadan_Logo" data-name="Ananda Vikadan Logo" transform="translate(-13.3 -28.685)">
    <path id="Path_4" data-name="Path 4" class="cls-1" d="M64.931,78.666H51.364c-.017-.136.1-.17.169-.22a5.756,5.756,0,0,0,.508-.39c.119-.119.169-.237.017-.373a26.168,26.168,0,0,0-2.642-2.051,13.684,13.684,0,0,0-2.066-1.153.337.337,0,0,0-.356.034c-.728.576-1.491,1.085-2.236,1.644-.237.186-.22.17-.017.373.728.661,1.524,1.238,2.236,1.916.051.051.152.085.135.2H43.674a6.816,6.816,0,0,1-.965-.559.849.849,0,0,0-1.118.017,3.628,3.628,0,0,1-.881.543H37.983c-.017-.136.085-.17.169-.22.44-.271.881-.543,1.321-.78a12.061,12.061,0,0,0,2.3-1.7,1.1,1.1,0,0,0,.136-.153c.136-.186.1-.322-.119-.39a1.317,1.317,0,0,0-.576-.068,7.017,7.017,0,0,0-2.168.678c-1.084.492-2.168,1-3.269,1.492-.728.322-1.457.7-2.185,1.017a3.05,3.05,0,0,0-.356.136H30.716c0-.136.1-.153.186-.186a24.893,24.893,0,0,1,2.558-1.187c.22-.085.237-.119.051-.288q-1.7-1.6-3.354-3.255a.335.335,0,0,0-.423-.051c-1.372.543-2.761,1.1-4.133,1.628-1.88.712-3.726,1.509-5.607,2.255-.711.288-1.406.576-2.117.865a.453.453,0,0,1-.44-.017,2.437,2.437,0,0,1-1-.9.143.143,0,0,1,0-.119,1.94,1.94,0,0,1,.813-.407c.44-.136.83-.356,1.253-.509.525-.2,1.033-.458,1.575-.61a3,3,0,0,0,.525-.254c.474-.237.982-.356,1.474-.576.322-.136.61-.322.932-.458a3.923,3.923,0,0,0,1.05-.39c.627-.237,1.253-.526,1.9-.78.8-.322,1.592-.661,2.388-.983.271-.119.559-.2.83-.339.085-.034.152-.068.152-.17.034-.475.22-.932.22-1.407,0-.17.017-.356.034-.543.068-.543.2-1.085.254-1.644a.153.153,0,0,1,.017-.085,1.7,1.7,0,0,1,.237-.61c.119-.17.051-.39.034-.593-.085-.39-.1-.78-.169-1.17-.017-.119.017-.305-.2-.288h-.576a4.436,4.436,0,0,1-.474-.017,4.531,4.531,0,0,1-1.491-.407,1.67,1.67,0,0,1-.423-.22,6.38,6.38,0,0,0-.982-.61,11.091,11.091,0,0,1-1.321-1.034,4.328,4.328,0,0,1-.745-.729,2.6,2.6,0,0,0-.474-.492,10.859,10.859,0,0,1-1.423-1.746c-.186-.254-.373-.509-.542-.763A9.2,9.2,0,0,1,20.13,56.9a8.761,8.761,0,0,1-.271-.882,7.858,7.858,0,0,1-.2-1.543c.017-.22-.085-.441-.068-.661a4.676,4.676,0,0,1,1.118-3.119,2.114,2.114,0,0,1,1.033-.712.093.093,0,0,0,.085-.051,3.087,3.087,0,0,1,1.694-.39,9.22,9.22,0,0,1,1.677.17,1.326,1.326,0,0,1,.356.153,1.353,1.353,0,0,0,.61.237.223.223,0,0,0,.254-.186,12.007,12.007,0,0,0,.152-1.339,14.182,14.182,0,0,1,.288-1.475c.068-.254.119-.509.169-.746.136-.644.39-1.238.576-1.865a10.2,10.2,0,0,1,.728-1.712,4.185,4.185,0,0,0,.491-1.085.426.426,0,0,1,.1-.237,17.2,17.2,0,0,1,1.694-2.272,12.015,12.015,0,0,1,3.032-2.424,10.2,10.2,0,0,1,1.135-.576.984.984,0,0,1,.423-.153,3.417,3.417,0,0,0,.711-.2c.593-.2,1.2-.339,1.829-.492.237-.051.457-.119.694-.17a1.245,1.245,0,0,0,.83-.593A7.959,7.959,0,0,0,40,32.977c.2-.492,1.558-3.8,1.66-4.086.068-.17.593-.288.678-.136.119.2,1.558,2.848,1.914,3.662.169.373.39.712.576,1.068a4.136,4.136,0,0,0,.694.949,6.155,6.155,0,0,0,.8.7c.119.085,3.489,1.763,3.913,2.1.2.153.44.305.627.475.339.322.728.593,1.084.9a.154.154,0,0,1,.051.119c0,.153,2.456,3,2.558,3.153.119.17.169.356.288.509a6.239,6.239,0,0,1,.678,1.288c.254.593.457,1.2.711,1.814.068.186,0,.373.119.543a.088.088,0,0,1,.034.068,4.019,4.019,0,0,0,.152.61,1.127,1.127,0,0,1,.051.254.281.281,0,0,0,.085.22,1.794,1.794,0,0,1,.152.661v.187c.034.509.237.627.728.492a7.087,7.087,0,0,1,1.287-.407,2.738,2.738,0,0,1,.982.034,5.289,5.289,0,0,1,1.609.8c.068.051.44.407.474.441a2.931,2.931,0,0,1,.678,1.729,12.959,12.959,0,0,1-.1,2.56c-.017.136-.169,1.034-.254,1.288-.237.729-.356,1.492-.627,2.221-.152.407-.356.814-.508,1.221a7.219,7.219,0,0,1-.593,1.272c-.237.322-.457.678-.694,1A4.578,4.578,0,0,1,58.6,61.9c-.135.085-.237.22-.39.305-.135.068-1.236.441-1.558.526-.407.1-.542.237-.559.644a17.08,17.08,0,0,1-.322,2.933,3.391,3.391,0,0,1-.576,1.577c-.474.7-1.338,1.305-1.643,1.729-.017.119.051.186.152.237.915.475,1.812.949,2.744,1.407.745.356,1.457.78,2.2,1.153.051.034,3.3,1.7,3.54,1.831.881.458,1.745.932,2.642,1.356a5.569,5.569,0,0,0,.779.39c.119.068.237.119.356.187a.912.912,0,0,0,.22.119,2.341,2.341,0,0,0,.457.237c.135.085.288.136.423.2a.215.215,0,0,1,.017.1,1.1,1.1,0,0,1-.068.22,2.637,2.637,0,0,1-1.406,1.458A2.355,2.355,0,0,1,64.931,78.666Z" transform="translate(-2.547)"/>
    <path id="Path_5" data-name="Path 5" class="cls-2" d="M15.074,298.7a.433.433,0,0,0,.37.018c2.569-1.09,5.138-2.125,7.726-3.142,1.793-.721,3.6-1.4,5.415-2.107.092-.037.166-.055.24.037l3.992,3.881c.018.018.018.037.018.074a22.715,22.715,0,0,0-2.754,1.22,3.907,3.907,0,0,0-.61.333H13.559c-.222,0-.259-.055-.259-.259.018-.462,0-.407,0-.869.074-.092.259-.111.573-.24A7.146,7.146,0,0,0,15.074,298.7Z" transform="translate(0 -220.326)"/>
    <path id="Path_6" data-name="Path 6" class="cls-2" d="M185.07,302.754c-.924-.776-1.83-1.571-2.754-2.347-.148-.13-.2-.185,0-.333.887-.647,1.756-1.294,2.625-1.959a.279.279,0,0,1,.333-.018,17.377,17.377,0,0,1,3.29,1.959c.684.5,1.312,1.091,1.978,1.608.185.148.092.314-.037.425-.24.2-.5.37-.739.555-.037.018-.056.074-.092.092h-2.7c0-.148.111-.185.2-.24.277-.2.555-.425.832-.628.111-.092.129-.166.019-.277a8.484,8.484,0,0,0-2.4-1.885.444.444,0,0,0-.536.055,6.271,6.271,0,0,1-.554.425c-.129.092-.129.166,0,.277.7.61,1.4,1.22,2.089,1.848.129.111.3.2.3.407C186.308,302.754,185.7,302.754,185.07,302.754Z" transform="translate(-140.712 -224.087)"/>
    <path id="Path_7" data-name="Path 7" class="cls-2" d="M115.9,307.249c.758-.425,1.553-.758,2.329-1.128,1.349-.628,2.7-1.22,4.048-1.83a8.043,8.043,0,0,1,2.347-.721,1.644,1.644,0,0,1,.665.074c.314.111.37.3.148.554a7.709,7.709,0,0,1-.813.739,24.268,24.268,0,0,1-3.327,2.144c-.074.055-.2.055-.222.185C119.338,307.249,117.619,307.249,115.9,307.249Z" transform="translate(-85.534 -228.582)"/>
    <path id="Path_8" data-name="Path 8" class="cls-1" d="M196.161,309.5a13.992,13.992,0,0,0-1.22-1.127c-.425-.388-.887-.776-1.331-1.164-.129-.111-.111-.166.019-.24.24-.166.481-.351.7-.536a.389.389,0,0,1,.462-.055,8.047,8.047,0,0,1,2.292,1.7c.425.444.407.444-.055.795-.277.2-.555.425-.813.628Z" transform="translate(-149.872 -230.837)"/>
    <path id="Path_9" data-name="Path 9" class="cls-3" d="M159.9,319.36c.425-.277.85-.573,1.275-.85a.556.556,0,0,1,.536-.037,7.763,7.763,0,0,1,1.442.887Z" transform="translate(-121.884 -240.693)"/>
    <path id="Path_10" data-name="Path 10" class="cls-2" d="M61.162,81.761c-.694-.385-1.389-.769-2.083-1.171a33.523,33.523,0,0,1-4-2.593,3.547,3.547,0,0,1-1.323-2.459,33.693,33.693,0,0,1-.182-3.88c0-.184-.033-.268-.231-.3a4.357,4.357,0,0,1-.645-.117c-.231-.05-.331.05-.364.268a2.524,2.524,0,0,0-.033.351,1.27,1.27,0,0,1-1.356,1.355,3.6,3.6,0,0,1-1.852-.519,10.29,10.29,0,0,1-3.34-2.944A12.952,12.952,0,0,1,44,66.658a7.924,7.924,0,0,1-.513-3.88,2.8,2.8,0,0,1,3.538-2.291,7.505,7.505,0,0,1,2.943,1.723,17.684,17.684,0,0,1,1.968,2.057c.1.117.231.167.331.1.116-.084.033-.234-.033-.335-.529-.836-1.058-1.656-1.6-2.475a1.645,1.645,0,0,1-.281-.87,16.621,16.621,0,0,1,1.488-7.895,12.668,12.668,0,0,1,3.026-4.265,10.424,10.424,0,0,1,5.357-2.509c.413-.067.843-.117,1.273-.151a.888.888,0,0,0,.628-.318,3.625,3.625,0,0,0,.761-1.706A17.723,17.723,0,0,1,64.023,40.3c.149-.335.248-.351.463-.033a5.543,5.543,0,0,1,.529,1.037c.48,1.121.926,2.258,1.306,3.412a1.222,1.222,0,0,0,.761.8,17.06,17.06,0,0,1,3.654,1.94,14.7,14.7,0,0,1,4.2,4.215A13.389,13.389,0,0,1,77.1,58.964a4.332,4.332,0,0,1-.05.652,1.306,1.306,0,0,0,.777,1.355c.132.05.132-.05.165-.134A3.086,3.086,0,0,1,79.2,59.332a2.387,2.387,0,0,1,2.2-.184,1.956,1.956,0,0,1,1.108,1.472,6.228,6.228,0,0,1-.017,2.593,23.07,23.07,0,0,1-1.091,3.6,8.492,8.492,0,0,1-1.207,2.342,3.6,3.6,0,0,1-.661.669,1.96,1.96,0,0,1-1.207.418.164.164,0,0,1-.182-.134,4.129,4.129,0,0,1-.116-.652A1.065,1.065,0,0,0,77.2,68.5c-.314-.05-.463.067-.463.385,0,1,0,1.99-.05,2.994a8.792,8.792,0,0,1-.562,3.195,7.226,7.226,0,0,1-2.183,2.793,18.955,18.955,0,0,1-2.96,1.89.275.275,0,0,1-.413-.1c-.165-.234-.364-.251-.579-.033a.743.743,0,0,0-.182.4,4.426,4.426,0,0,1-.314,1.3,2.028,2.028,0,0,1-1.6,1.271,19.039,19.039,0,0,1-3.505.368,5.593,5.593,0,0,1-.744-.067,1.62,1.62,0,0,1-1.323-.953c-.165-.351-.38-.7-.529-1.07-.033-.1-.033-.217-.2-.2-.149.017-.281.067-.314.234C61.228,81.209,61.2,81.477,61.162,81.761Z" transform="translate(-24.556 -9.253)"/>
    <path id="Path_11" data-name="Path 11" class="cls-2" d="M111.5,275.084c-2.126.943-4.233,1.848-6.321,2.772a.2.2,0,0,1-.277-.055l-3.6-4.1a.345.345,0,0,1-.074-.351c.3-1.146.573-2.31.85-3.475.055-.24.24-.314.407-.129a17.792,17.792,0,0,0,3.456,2.4c1.682,1.017,3.456,1.885,5.212,2.754C111.239,274.955,111.35,275.01,111.5,275.084Z" transform="translate(-73.304 -200.928)"/>
    <path id="Path_12" data-name="Path 12" class="cls-4" d="M252.5,131.1a1.647,1.647,0,0,1,.166.721A1.383,1.383,0,0,1,252.5,131.1Z" transform="translate(-198.657 -85.073)"/>
    <path id="Path_13" data-name="Path 13" class="cls-5" d="M39.779,163.9c0,.074-.018.092-.055.111-.018,0-.037-.037-.037-.056,0-.037-.018-.074.037-.074A.04.04,0,0,1,39.779,163.9Z" transform="translate(-21.507 -112.273)"/>
    <path id="Path_14" data-name="Path 14" class="cls-4" d="M253.491,136.6c.074.037.056.111.056.166C253.491,136.729,253.38,136.692,253.491,136.6Z" transform="translate(-199.436 -89.624)"/>
    <path id="Path_15" data-name="Path 15" class="cls-1" d="M104.931,134.479c-.314-1.035-.665-2.07-.924-3.124a3.921,3.921,0,0,1-.111-.795,1.168,1.168,0,0,1,.407-.924c.129-.129.148-.185-.018-.3a3.247,3.247,0,0,1-1.5-2.015,2.053,2.053,0,0,0-.314-.5,8.135,8.135,0,0,1-.573-1.054c.333.37.647.721.98,1.109a4.451,4.451,0,0,1,2.865-2.126,2.576,2.576,0,0,1-.111-2.4,1.275,1.275,0,0,1,.795-.776c.3-.111.351-.074.444.222a3.856,3.856,0,0,1,.074,1.035.739.739,0,0,0,.3.628c.2.148.333.129.407-.129a2.409,2.409,0,0,0-.055-1.571c-.111-.259.019-.259.2-.259a1.631,1.631,0,0,1,1.553,1.442,2.989,2.989,0,0,1-.277,1.867,6.539,6.539,0,0,1,3.271,1.312,8.732,8.732,0,0,1,1.349,1.127,1.4,1.4,0,0,1,.2.259c.074.129.24.259.148.388-.092.092-.2-.092-.314-.148a1.5,1.5,0,0,0-2.144.518,2.513,2.513,0,0,0-.314.721.926.926,0,0,0,.185.813,4.033,4.033,0,0,0,1.774,1.312,9.709,9.709,0,0,1,2.662,1.774,4.048,4.048,0,0,0,1.626.961,1.315,1.315,0,0,0,1.608-.684,3.472,3.472,0,0,0,.37-1.534,20.157,20.157,0,0,0-2.218-10.609c-.185-.351-.314-.739-.5-1.09a1,1,0,0,1-.037-.832,23.54,23.54,0,0,1,1.423-3.364,16.12,16.12,0,0,1,2.606-3.955,5.882,5.882,0,0,1,2.31-1.663,1.791,1.791,0,0,1,2.126.591,6.283,6.283,0,0,1,1.09,2.162,32.023,32.023,0,0,1,.665,3.216,1.372,1.372,0,0,1-.444-.61,13.674,13.674,0,0,0-.887-1.811,4.345,4.345,0,0,0-.351-.462,1.15,1.15,0,0,0-1.645-.3,6.5,6.5,0,0,0-1.719,1.275,39.2,39.2,0,0,0-4.214,5.194.277.277,0,0,0,0,.333,38.135,38.135,0,0,1,1.719,3.881c.24.665.5,1.312.7,1.978.074.222.166.2.3.111a12.78,12.78,0,0,1,1.146-.813c.129-.074.019-.129-.018-.185a2.242,2.242,0,0,1-.444-2.477,1.331,1.331,0,0,1,.887-.832c.166-.055.24-.037.222.166a4.085,4.085,0,0,0,.092,1.257,1.194,1.194,0,0,0,.074.24c.055.111.092.24.24.222s.166-.129.2-.24a3.379,3.379,0,0,0,.019-1.663c-.037-.3,0-.333.277-.351a1.394,1.394,0,0,1,1.294.943,3.559,3.559,0,0,1,.074,2.015c-.018.055-.018.111-.037.185a13.417,13.417,0,0,1,1.719.111,5.041,5.041,0,0,1,1.848.591,1.7,1.7,0,0,1,.628,2.458,3.384,3.384,0,0,1-1.534,1.386,5.468,5.468,0,0,1-1.035.407.538.538,0,0,0-.407.407,13.742,13.742,0,0,0-.333,2.126,1.527,1.527,0,0,1-.314.887c-.055-.166-.074-.3-.129-.425-.018-.074-.037-.185-.129-.2a.311.311,0,0,0-.24.166c-.092.166-.185.333-.277.481-.591,1-1.331,1.867-1.922,2.865a6.078,6.078,0,0,1-4.565,2.828,15.674,15.674,0,0,1-4.362.129,7.38,7.38,0,0,1-3.234-1.294,13.43,13.43,0,0,1-2.994-2.883A5.956,5.956,0,0,0,105.892,133c-.092-.055-.185-.111-.3-.166-.166-.074-.277-.037-.333.148a6.784,6.784,0,0,0-.222,1.386C104.968,134.349,105.079,134.479,104.931,134.479Z" transform="translate(-74.847 -68.877)"/>
    <path id="Path_16" data-name="Path 16" class="cls-1" d="M101.945,116.769a4.916,4.916,0,0,1,3.7,1.682,16.338,16.338,0,0,1,3.549,6.377c.055.185-.037.3-.24.24a.707.707,0,0,1-.37-.277,23.923,23.923,0,0,0-3.4-3.438,8.31,8.31,0,0,0-2.625-1.534,3.889,3.889,0,0,0-3.7.776,6.237,6.237,0,0,0-2.107,3.327c-.055.2-.111.388-.166.591-.018.055,0,.129-.092.111a.139.139,0,0,1-.092-.129.314.314,0,0,1,.018-.129,16.7,16.7,0,0,1,1.663-4.75,6.473,6.473,0,0,1,1.922-2.2A3.032,3.032,0,0,1,101.945,116.769Z" transform="translate(-69.389 -73.387)"/>
    <path id="Path_17" data-name="Path 17" class="cls-1" d="M51,173.882a6.924,6.924,0,0,1-1.386-2.532,2.836,2.836,0,0,1-.037-1.571,1.258,1.258,0,0,1,1.793-.943,6.6,6.6,0,0,1,2.015,1.22,11.753,11.753,0,0,1,2.384,2.588.561.561,0,0,0,.554.3,1.543,1.543,0,0,1,.85.222.458.458,0,0,1,0,.776.278.278,0,0,1-.314.019,1.965,1.965,0,0,0-.739-.166.263.263,0,0,0-.333.24,1.133,1.133,0,0,0,.407,1.072c.222.2.481.37.721.573a2.429,2.429,0,0,1,.906,1.312,1.142,1.142,0,0,1-1.368,1.349,5.843,5.843,0,0,1-3.881-2.957,1.932,1.932,0,0,1,.887-2.625c.259-.129.24-.2.074-.388a10.28,10.28,0,0,0-2.44-2.292l-.018-.018c-.2-.111-.425-.314-.665-.185a.708.708,0,0,0-.277.721,7.446,7.446,0,0,0,.481,2.181c.129.351.277.721.407,1.072C51.054,173.882,51.036,173.9,51,173.882Z" transform="translate(-29.493 -116.763)"/>
    <path id="Path_18" data-name="Path 18" class="cls-1" d="M255.555,165.811a9.963,9.963,0,0,1-.185,1.645c-.018.092-.018.185-.129.185-.092-.019-.092-.129-.111-.2a5.246,5.246,0,0,1,.074-1.2,3.09,3.09,0,0,0-.037-1.164.593.593,0,0,0-.832-.462,1.744,1.744,0,0,0-.906.758,2.68,2.68,0,0,0-.481,1.127c-.019.129,0,.166.111.185a.262.262,0,0,1,.111.037,2.1,2.1,0,0,1,1.5,2.625,3.843,3.843,0,0,1-.961,1.959,1.635,1.635,0,0,1-1.2.518,1.233,1.233,0,0,1-1.054-.7.62.62,0,0,1-.037-.407.234.234,0,0,1,.425-.092c.462.5.776.481,1.238,0a2.6,2.6,0,0,0,.351-2.4.585.585,0,0,0-.573-.37.749.749,0,0,0-.2,0,.967.967,0,0,1-1.016-.462.554.554,0,0,1-.111-.573,4.948,4.948,0,0,1,1.5-2.347,3.705,3.705,0,0,1,1.275-.684.777.777,0,0,1,1.035.591c.055.24.111.5.148.739A3.727,3.727,0,0,1,255.555,165.811Z" transform="translate(-198.709 -112.508)"/>
    <path id="Path_19" data-name="Path 19" class="cls-6" d="M107.195,155.689a.527.527,0,0,1-.092-.481.459.459,0,0,0-.24-.481,1.2,1.2,0,0,1-.462-.37,2.966,2.966,0,0,0,.776.129c.129,0,.2-.018.24-.166.092-.3.351-.61.277-.85-.055-.2-.462-.333-.7-.5a.372.372,0,0,1-.166-.2c.277.092.554.2.832.3.185.055.351.111.518-.055a.385.385,0,0,0,.055-.555l-.665-.943c-.055-.074-.129-.166-.037-.24.074-.055.148.037.222.092.3.24.462.591.795.795.111.074.222.24.388.129a.46.46,0,0,0,.166-.444,4.917,4.917,0,0,0-.222-1.035c-.018-.092-.092-.24.018-.277s.185.092.222.2a6.682,6.682,0,0,0,.5,1.035c.074.111.111.24.277.222.185-.037.351-.074.425-.277a3.28,3.28,0,0,0,.166-1.275v-.24c.148.037.148.148.166.24a9.419,9.419,0,0,1,.074,1.035.581.581,0,0,0,.536.573c.3.056.425-.166.536-.37a4.518,4.518,0,0,0,.259-.85,3.5,3.5,0,0,1,.111-.388,1.712,1.712,0,0,1,.092,1.035,3.082,3.082,0,0,0-.092.573c0,.148.019.277.185.333s.333.092.462-.055c.185-.222.388-.462.591-.684.055-.055.074-.185.185-.111.092.074.019.148-.018.222-.129.3-.259.61-.388.906-.055.129-.092.259.037.351s.277.185.462.055c.24-.185.444-.425.665-.628.037-.037.074-.148.166-.111.092.055.037.148.018.222a4.247,4.247,0,0,1-.462.795.6.6,0,0,0,.222.869.278.278,0,0,0,.314-.055,4.252,4.252,0,0,0,.61-.684c.055-.074.074-.166.2-.222a1.4,1.4,0,0,1-.333.98.876.876,0,0,0-.166,1.109,2.226,2.226,0,0,1,.277.98,8.525,8.525,0,0,0-2.329-3.142,4.933,4.933,0,0,0-1.571-.832,2.4,2.4,0,0,0-2.218.444,5.445,5.445,0,0,0-1.83,2.772A.479.479,0,0,1,107.195,155.689Z" transform="translate(-77.59 -101.148)"/>
    <path id="Path_20" data-name="Path 20" class="cls-1" d="M157.843,266.206a9.658,9.658,0,0,1-2.625-.388,2.213,2.213,0,0,1-1.017-.61c-.074-.092-.2-.2-.092-.333a.3.3,0,0,1,.388-.055,8.68,8.68,0,0,0,4.233.554,8.183,8.183,0,0,0,3.031-.721,5.878,5.878,0,0,0,1.386-.832.257.257,0,0,1,.074-.056c.185-.055.351-.3.536-.074a.512.512,0,0,1-.019.758,5.718,5.718,0,0,1-2,1.109A12.313,12.313,0,0,1,157.843,266.206Z" transform="translate(-117.362 -195.268)"/>
    <path id="Path_21" data-name="Path 21" class="cls-1" d="M205.937,151.417a1.034,1.034,0,0,1-.628.351.281.281,0,0,0-.259.277.926.926,0,0,1-.166.444c-.129-.092-.074-.222-.074-.333a3.775,3.775,0,0,0-.795-2.458,1.721,1.721,0,0,0-1.553-.758,2.832,2.832,0,0,0-1.442.684,8.628,8.628,0,0,0-2.07,2.865c-.111.222-.2.444-.3.665-.018.055-.037.111-.111.111s-.092-.092-.111-.148a1.406,1.406,0,0,1,.092-.61,2.932,2.932,0,0,1,.129-.37c.166-.462.129-.554-.24-.887-.111-.092-.351-.148-.24-.314.055-.092.24.092.351.166.444.259.5.259.813-.166.351-.481.351-.61-.074-1.054-.111-.111-.259-.2-.3-.407.185.111.351.24.536.351.333.185.536.185.721,0a.655.655,0,0,0,.092-.776c-.111-.259-.333-.462-.481-.776a.718.718,0,0,1,.425.314c.111.148.222.3.351.444a.4.4,0,0,0,.739-.166,2.324,2.324,0,0,0-.037-1.127c-.019-.092-.037-.166-.055-.259.166-.018.148.111.185.185.074.222.166.444.24.647a.434.434,0,0,0,.425.333.5.5,0,0,0,.554-.333,6.414,6.414,0,0,0,.3-1.017c.037-.148.074-.277.259-.3-.037.388-.074.776-.129,1.146a.41.41,0,0,0,.277.517.486.486,0,0,0,.628-.129c.129-.185.259-.37.388-.536.055-.074.092-.259.2-.2.166.074-.018.185-.055.277-.074.2-.185.407-.259.61a.78.78,0,0,0-.055.407.269.269,0,0,0,.444.2c.2-.148.37-.314.573-.462.055-.037.111-.129.185-.055s.018.129-.018.2a3.166,3.166,0,0,1-.37.5c-.074.092-.166.2-.24.314a.253.253,0,0,0,.259.388,3,3,0,0,0,.7-.166c.055-.018.111-.055.148.018.037.056,0,.111-.037.148a2.341,2.341,0,0,1-.628.5.806.806,0,0,0-.259.24.452.452,0,0,0,.037.481c.074.148.2.092.333.092A2.874,2.874,0,0,0,205.937,151.417Z" transform="translate(-153.965 -98.491)"/>
    <path id="Path_22" data-name="Path 22" class="cls-7" d="M171.422,171.877c.018.129.018.2-.092.2s-.129-.092-.148-.166c-.111-.425-.2-.85-.333-1.275a10.33,10.33,0,0,0-1.183-2.7c-.018-.018-.018-.037-.037-.055-.055-.129-.148-.3-.019-.388.148-.092.185.111.24.222a14.014,14.014,0,0,1,1.516,3.881A1.77,1.77,0,0,0,171.422,171.877Z" transform="translate(-129.839 -115.454)"/>
    <path id="Path_23" data-name="Path 23" class="cls-8" d="M113.29,104.464c-.055.111-.055.259-.24.259a4.084,4.084,0,0,0-3.087,1.054.378.378,0,0,1,.166-.407,4.657,4.657,0,0,1,2.791-.98.758.758,0,0,1,.2.018Z" transform="translate(-80.362 -62.899)"/>
    <path id="Path_24" data-name="Path 24" class="cls-8" d="M173.455,197.222c-.351.037-.7.018-1.035.055a6.423,6.423,0,0,0-2.07.647c-.055.037-.129.129-.2,0-.037-.092-.074-.166.055-.222a5.836,5.836,0,0,1,3.105-.573C173.362,197.13,173.418,197.111,173.455,197.222Z" transform="translate(-130.378 -139.898)"/>
    <path id="Path_25" data-name="Path 25" class="cls-9" d="M200.186,100.32c-.055.074-.129.037-.2.037a2.066,2.066,0,0,0-2.181,1.553c-.019.074.018.222-.148.185-.129-.037-.111-.148-.074-.259a2.258,2.258,0,0,1,2.532-1.59C200.149,100.264,200.186,100.264,200.186,100.32Z" transform="translate(-153.154 -59.438)"/>
    <path id="Path_26" data-name="Path 26" class="cls-10" d="M115.271,93.723a3.36,3.36,0,0,1,1.959-1.09,1.777,1.777,0,0,1,.628.037c.055.019.111.037.111.111,0,.092-.074.074-.129.055a3.159,3.159,0,0,0-2.292.813c-.074.055-.129.092-.2.148C115.271,93.815,115.252,93.778,115.271,93.723Z" transform="translate(-84.756 -53.115)"/>
    <path id="Path_27" data-name="Path 27" class="cls-11" d="M195.988,92.8c0,.055-.055.074-.092.074a2.073,2.073,0,0,0-1.294.85c-.055.092-.148.277-.277.185-.111-.092.037-.24.111-.333a2.249,2.249,0,0,1,1.479-.813C195.914,92.748,195.988,92.693,195.988,92.8Z" transform="translate(-150.387 -53.214)"/>
    <path id="Path_28" data-name="Path 28" class="cls-12" d="M101.4,183.5c-.019-.314.388-.5,1.017-.444C102.081,183.223,101.73,183.316,101.4,183.5Z" transform="translate(-73.186 -128.211)"/>
    <path id="Path_29" data-name="Path 29" class="cls-13" d="M101.8,188.452a.888.888,0,0,1,.665-.425c.055-.019.129-.037.129.037a.211.211,0,0,1-.055.111A7.4,7.4,0,0,1,101.8,188.452Z" transform="translate(-73.515 -132.333)"/>
    <path id="Path_30" data-name="Path 30" class="cls-14" d="M203.092,92.672a.311.311,0,0,0-.092-.037.98.98,0,0,1,.573-.037A.522.522,0,0,1,203.092,92.672Z" transform="translate(-157.568 -53.06)"/>
    <path id="Path_31" data-name="Path 31" class="cls-15" d="M114.215,98.6l.074.074c-.111.092-.2.2-.314.3C113.938,98.766,114.085,98.692,114.215,98.6Z" transform="translate(-83.61 -58.069)"/>
    <path id="Path_32" data-name="Path 32" class="cls-16" d="M118.3,241.766c.092-.018.055-.129.092-.166,0,.055.018.129.018.185,0,.037.018.111-.037.111A.124.124,0,0,1,118.3,241.766Z" transform="translate(-87.202 -176.835)"/>
    <path id="Path_33" data-name="Path 33" class="cls-17" d="M57.7,196.437c.018-.018.037-.037.055-.037.055.037.111.111.037.148C57.737,196.566,57.7,196.492,57.7,196.437Z" transform="translate(-36.194 -139.288)"/>
    <path id="Path_34" data-name="Path 34" class="cls-2" d="M143.229,232.957c.444,1.275-.018,2.107-1.386,2.551a10.944,10.944,0,0,1-2.31.37,19.571,19.571,0,0,1-4.288-.018,7.028,7.028,0,0,1-2.865-1.2,12.941,12.941,0,0,1-2.735-2.384c-.019-.037-.055-.055-.074-.092a.205.205,0,0,1-.037-.277c.074-.092.148-.018.222.018a30.949,30.949,0,0,0,3.567.98c.61.129,1.238.166,1.848.314a17.774,17.774,0,0,0,3.124.518c.333.018.573.314.813.518a2.1,2.1,0,0,0,1.072.573,2.267,2.267,0,0,0,1.774-.425A6,6,0,0,0,143.229,232.957Z" transform="translate(-97.084 -168.982)"/>
    <path id="Path_35" data-name="Path 35" class="cls-2" d="M206.354,194.091a6.741,6.741,0,0,1-2.329-.333,1.3,1.3,0,0,1-.444-2.366,4.037,4.037,0,0,1,2-.961,9.289,9.289,0,0,1,3.641-.111,2.636,2.636,0,0,1,.5.166,1.232,1.232,0,0,1,.351,2.126,5.691,5.691,0,0,1-2.606,1.294A4.272,4.272,0,0,1,206.354,194.091Z" transform="translate(-157.981 -134.314)"/>
    <path id="Path_36" data-name="Path 36" class="cls-2" d="M116.278,193.9a5.99,5.99,0,0,1,2.421.462.945.945,0,0,1,.518,1.368,2.26,2.26,0,0,1-.61.832,3.7,3.7,0,0,1-1.275.684,6.239,6.239,0,0,1-4.14.018,2.21,2.21,0,0,1-1.035-.7.971.971,0,0,1,.018-1.386,2.954,2.954,0,0,1,1.479-.869A8.67,8.67,0,0,1,116.278,193.9Z" transform="translate(-82.094 -137.389)"/>
    <path id="Path_37" data-name="Path 37" class="cls-2" d="M130.9,219.117a16.845,16.845,0,0,1-3.2-.425,21.455,21.455,0,0,1-5.083-1.737c-.092-.037-.24-.037-.222-.185a.41.41,0,0,1,.222-.333,2.315,2.315,0,0,1,.924-.2,21.57,21.57,0,0,0,3.068-.462.179.179,0,0,1,.222.092,5.047,5.047,0,0,0,1.7,1.663,8.272,8.272,0,0,0,1.109.647A3.691,3.691,0,0,1,130.9,219.117Z" transform="translate(-90.896 -155.55)"/>
    <path id="Path_38" data-name="Path 38" class="cls-3" d="M205.89,216.457c-.185.019-.222-.018-.222-.148-.018-.536-.055-1.072-.074-1.627-.019-.333.166-.444.444-.314a6.5,6.5,0,0,0,.832.333.813.813,0,0,1,.481.721.125.125,0,0,1-.074.111,10.648,10.648,0,0,1-1.294.887A.144.144,0,0,1,205.89,216.457Z" transform="translate(-159.787 -154.275)"/>
    <path id="Path_39" data-name="Path 39" class="cls-18" d="M210.13,229.8a.382.382,0,0,1,.24-.462,1.721,1.721,0,0,0,.277-.24c.092-.074.148-.24.333-.111.148.111.277.185.2.425-.092.259-.129.554-.37.721a.58.58,0,0,1-.536.166C210.075,230.228,210.13,230.024,210.13,229.8Z" transform="translate(-163.506 -166.385)"/>
    <path id="Path_40" data-name="Path 40" class="cls-2" d="M71.011,194.6c.092.018.259.037.425.074.481.111.462.111.518.591a5.544,5.544,0,0,0,.869,2.107,2.2,2.2,0,0,1,.166.277.417.417,0,0,1,0,.481.473.473,0,0,1-.481.148,1.289,1.289,0,0,1-.351-.111,3.718,3.718,0,0,1-2.07-2.532C69.958,195.044,70.327,194.6,71.011,194.6Z" transform="translate(-47.188 -137.97)"/>
  </g>
</svg>
