<svg xmlns="http://www.w3.org/2000/svg" width="24.274" height="24" viewBox="0 0 24.274 24">
  <g id="Icon_Visibility_Filled" data-name="Icon / Visibility / Filled" transform="translate(0.137)">
    <g id="Icon_Visibility_Filled-2" data-name="Icon / Visibility / Filled">
      <path id="Path_988" data-name="Path 988" d="M24-39a11.827,11.827,0,0,0-11,7.5A11.827,11.827,0,0,0,24-24a11.827,11.827,0,0,0,11-7.5A11.827,11.827,0,0,0,24-39Zm0,12.5a5,5,0,0,1-5-5,5,5,0,0,1,5-5,5,5,0,0,1,5,5A5,5,0,0,1,24-26.5Zm0-8a3,3,0,0,0-3,3,3,3,0,0,0,3,3,3,3,0,0,0,3-3A3,3,0,0,0,24-34.5Z" transform="translate(-12 44)" fill="#0aa5ae"/>
      <rect id="Box" width="24" height="24" fill="none"/>
    </g>
    <line id="Line_238" data-name="Line 238" y1="19" x2="23" transform="translate(0.5 3.5)" fill="none" stroke="#707070" stroke-width="2"/>
  </g>
</svg>
