<svg xmlns="http://www.w3.org/2000/svg" width="43.917" height="57.33" viewBox="0 0 43.917 57.33">
  <defs>
    <style>
      .cls-1, .cls-2 {
        fill: #efd7ab;
      }

      .cls-1, .cls-3, .cls-5 {
        stroke: #231f20;
        stroke-linecap: round;
        stroke-linejoin: round;
        stroke-miterlimit: 10;
      }

      .cls-3 {
        fill: none;
      }

      .cls-4, .cls-5 {
        fill: #eac591;
      }

      .cls-6 {
        fill: #fff;
      }
    </style>
  </defs>
  <g id="Delhi" transform="translate(0.5 0.5)">
    <path id="Stroke_3" data-name="Stroke 3" class="cls-1" d="M27.041,13.412h0a6.813,6.813,0,0,0-6.926-6.69,6.809,6.809,0,0,0-6.919,6.69H0V0H40.235V13.412Z" transform="translate(1.341 19.447)"/>
    <path id="Fill_5" data-name="Fill 5" class="cls-2" d="M28.344,5.7h4.514v5.7H0V5.7H4.516V2.246c2.364-.049,6.728-.3,8.562-1.207.249-.124.476-.278.7-.42L13.8.608A5.071,5.071,0,0,1,16.432,0a5.083,5.083,0,0,1,2.627.608l.018.01c.229.143.455.3.7.42,1.832.909,6.2,1.159,8.562,1.207V5.7Z" transform="translate(5.365)"/>
    <path id="Stroke_7" data-name="Stroke 7" class="cls-3" d="M28.344,5.7h4.514v5.7H0V5.7H4.516V2.246c2.364-.049,6.728-.3,8.562-1.207.249-.124.476-.278.7-.42L13.8.608A5.071,5.071,0,0,1,16.432,0a5.083,5.083,0,0,1,2.627.608l.018.01c.229.143.455.3.7.42,1.832.909,6.2,1.159,8.562,1.207V5.7Z" transform="translate(5.365)"/>
    <path id="Fill_9" data-name="Fill 9" class="cls-4" d="M4.024,2.013A2.012,2.012,0,1,1,2.014,0,2.013,2.013,0,0,1,4.024,2.013" transform="translate(7.376 23.471)"/>
    <path id="Stroke_11" data-name="Stroke 11" class="cls-3" d="M4.024,2.013A2.012,2.012,0,1,1,2.014,0,2.013,2.013,0,0,1,4.024,2.013Z" transform="translate(7.376 23.471)"/>
    <path id="Fill_13" data-name="Fill 13" class="cls-4" d="M4.024,2.013A2.012,2.012,0,1,1,2.011,0,2.013,2.013,0,0,1,4.024,2.013" transform="translate(30.847 23.471)"/>
    <path id="Stroke_15" data-name="Stroke 15" class="cls-3" d="M4.024,2.013A2.012,2.012,0,1,1,2.011,0,2.013,2.013,0,0,1,4.024,2.013Z" transform="translate(30.847 23.471)"/>
    <path id="Fill_17" data-name="Fill 17" class="cls-4" d="M40.235,3.019a.97.97,0,0,1-.932,1H.931a.968.968,0,0,1-.931-1V1.006A.97.97,0,0,1,.931,0H39.3a.971.971,0,0,1,.932,1.006Z" transform="translate(1.341 11.399)"/>
    <path id="Stroke_19" data-name="Stroke 19" class="cls-3" d="M40.235,3.019a.97.97,0,0,1-.932,1H.931a.968.968,0,0,1-.931-1V1.006A.97.97,0,0,1,.931,0H39.3a.971.971,0,0,1,.932,1.006Z" transform="translate(1.341 11.399)"/>
    <path id="Fill_21" data-name="Fill 21" class="cls-4" d="M42.917,3.671A.975.975,0,0,1,42,4.694H.925A.977.977,0,0,1,0,3.671V1.023A.979.979,0,0,1,.925,0H42a.976.976,0,0,1,.922,1.023Z" transform="translate(0 14.753)"/>
    <path id="Stroke_23" data-name="Stroke 23" class="cls-3" d="M42.917,3.671A.975.975,0,0,1,42,4.694H.925A.977.977,0,0,1,0,3.671V1.023A.979.979,0,0,1,.925,0H42a.976.976,0,0,1,.922,1.023Z" transform="translate(0 14.753)"/>
    <path id="Fill_25" data-name="Fill 25" class="cls-4" d="M16.094,1.859a.874.874,0,0,1-.916.823H.918A.874.874,0,0,1,0,1.859V.82A.875.875,0,0,1,.918,0H15.178a.874.874,0,0,1,.916.82Z" transform="translate(0 32.858)"/>
    <path id="Stroke_27" data-name="Stroke 27" class="cls-3" d="M16.094,1.859a.874.874,0,0,1-.916.823H.918A.874.874,0,0,1,0,1.859V.82A.875.875,0,0,1,.918,0H15.178a.874.874,0,0,1,.916.82Z" transform="translate(0 32.858)"/>
    <path id="Fill_29" data-name="Fill 29" class="cls-4" d="M16.094,1.859a.871.871,0,0,1-.916.823H.913A.871.871,0,0,1,0,1.859V.82A.872.872,0,0,1,.913,0H15.178a.872.872,0,0,1,.916.82Z" transform="translate(26.823 32.858)"/>
    <path id="Stroke_31" data-name="Stroke 31" class="cls-3" d="M16.094,1.859a.871.871,0,0,1-.916.823H.913A.871.871,0,0,1,0,1.859V.82A.872.872,0,0,1,.913,0H15.178a.872.872,0,0,1,.916.82Z" transform="translate(26.823 32.858)"/>
    <path id="Fill_33" data-name="Fill 33" class="cls-2" d="M0,20.788H13.412V0H0Z" transform="translate(28.165 35.541)"/>
    <path id="Stroke_35" data-name="Stroke 35" class="cls-3" d="M0,20.788H13.412V0H0Z" transform="translate(28.165 35.541)"/>
    <path id="Fill_36" data-name="Fill 36" class="cls-2" d="M0,20.788H13.412V0H0Z" transform="translate(1.341 35.541)"/>
    <path id="Stroke_37" data-name="Stroke 37" class="cls-3" d="M0,20.788H13.412V0H0Z" transform="translate(1.341 35.541)"/>
    <path id="Stroke_39" data-name="Stroke 39" class="cls-5" d="M13.348,9.726h-.632a.9.9,0,0,1-.9-.91V7.669a1.051,1.051,0,0,1,.9-1.063h.7A6.624,6.624,0,0,0,6.687,0,6.594,6.594,0,0,0,0,6.606H.662a1.053,1.053,0,0,1,.9,1.063V8.816a.9.9,0,0,1-.9.91H0V30.176H13.348Z" transform="translate(14.753 26.153)"/>
    <path id="Fill_40" data-name="Fill 40" class="cls-6" d="M0,0H39.564" transform="translate(1.341 55.658)"/>
  </g>
</svg>
