<svg xmlns="http://www.w3.org/2000/svg" width="43.087" height="64.216" viewBox="0 0 43.087 64.216">
  <defs>
    <style>
      .cls-1, .cls-7 {
        fill: #eac591;
      }

      .cls-1, .cls-2, .cls-3, .cls-4, .cls-5, .cls-7 {
        stroke: #231f20;
        stroke-miterlimit: 10;
      }

      .cls-2, .cls-4, .cls-6 {
        fill: #efd7ab;
      }

      .cls-3, .cls-5 {
        fill: none;
      }

      .cls-3, .cls-4, .cls-7 {
        stroke-linecap: round;
        stroke-linejoin: round;
      }
    </style>
  </defs>
  <g id="Hyderabad" transform="translate(0.5 0.5)">
    <path id="Stroke_2" data-name="Stroke 2" class="cls-1" d="M0,7.865H4.292V0H0Z" transform="translate(3.148 14.922)"/>
    <path id="Stroke_4" data-name="Stroke 4" class="cls-1" d="M0,3.932H4.292V0H0Z" transform="translate(3.148 7.057)"/>
    <path id="Stroke_6" data-name="Stroke 6" class="cls-1" d="M0,8.651H7.153V0H0Z" transform="translate(1.717 25.933)"/>
    <path id="Stroke_8" data-name="Stroke 8" class="cls-1" d="M0,22.364H6.95V0H0Z" transform="translate(1.648 40.852)"/>
    <path id="Stroke_11" data-name="Stroke 11" class="cls-2" d="M2.8,0C6,1.489,5.58,3.263,5.58,3.263A1.327,1.327,0,0,1,4.447,4.719H1.15A1.327,1.327,0,0,1,.018,3.263S-.4,1.489,2.8,0Z" transform="translate(2.432 2.338)"/>
    <path id="Stroke_13" data-name="Stroke 13" class="cls-3" d="M0,1.945V0" transform="translate(5.122)"/>
    <path id="Stroke_16" data-name="Stroke 16" class="cls-4" d="M6.681,3.864a.9.9,0,0,1-.864.94H.862A.9.9,0,0,1,0,3.864V.941A.9.9,0,0,1,.862,0H5.817a.9.9,0,0,1,.864.941Z" transform="translate(1.783 10.936)"/>
    <path id="Stroke_18" data-name="Stroke 18" class="cls-2" d="M9.167,4.125a.9.9,0,0,1-.861.942H.864A.906.906,0,0,1,0,4.125V.941A.9.9,0,0,1,.864,0H8.306a.9.9,0,0,1,.861.941Z" transform="translate(0.538 21.922)"/>
    <path id="Stroke_20" data-name="Stroke 20" class="cls-4" d="M10.245,5.14a.9.9,0,0,1-.863.941H.863A.906.906,0,0,1,0,5.14V.942A.906.906,0,0,1,.863,0H9.382a.905.905,0,0,1,.863.942Z" transform="translate(0 34.77)"/>
    <path id="Stroke_25" data-name="Stroke 25" class="cls-5" d="M0,3.27H24.883V0H0Z" transform="translate(8.599 26.988)"/>
    <path id="Stroke_27" data-name="Stroke 27" class="cls-1" d="M0,3.27H4.063V0H0Z" transform="translate(8.599 26.988)"/>
    <path id="Stroke_29" data-name="Stroke 29" class="cls-1" d="M0,3.27H4.057V0H0Z" transform="translate(12.662 26.988)"/>
    <path id="Stroke_31" data-name="Stroke 31" class="cls-1" d="M0,3.27H4.311V0H0Z" transform="translate(16.719 26.988)"/>
    <path id="Stroke_33" data-name="Stroke 33" class="cls-1" d="M0,3.27H4.315V0H0Z" transform="translate(21.031 26.988)"/>
    <path id="Stroke_35" data-name="Stroke 35" class="cls-1" d="M0,3.27H4.076V0H0Z" transform="translate(25.346 26.988)"/>
    <path id="Stroke_37" data-name="Stroke 37" class="cls-1" d="M0,3.27H4.059V0H0Z" transform="translate(29.422 26.988)"/>
    <path id="Stroke_41" data-name="Stroke 41" class="cls-1" d="M4.733,6.594V3.368S4.864,1.461,2.368,0C-.128,1.461,0,3.368,0,3.368V6.594Z" transform="translate(14.324 33.508)"/>
    <path id="Stroke_41_Copy_2" data-name="Stroke 41 Copy 2" class="cls-1" d="M4.062,6.594V3.368A4.1,4.1,0,0,0,2.032,0,4.109,4.109,0,0,0,0,3.368V6.594Z" transform="translate(19.018 33.508)"/>
    <path id="Stroke_41_Copy" data-name="Stroke 41 Copy" class="cls-1" d="M4.291,6.594V3.368A4.041,4.041,0,0,0,2.147,0,4.048,4.048,0,0,0,0,3.368V6.594Z" transform="translate(10.301 33.508)"/>
    <path id="Stroke_45" data-name="Stroke 45" class="cls-1" d="M4.32,6.594V3.368A4.034,4.034,0,0,0,2.162,0,4.036,4.036,0,0,0,0,3.368V6.594Z" transform="translate(23.185 33.273)"/>
    <path id="Stroke_47" data-name="Stroke 47" class="cls-1" d="M4.321,6.594V3.368A4.034,4.034,0,0,0,2.162,0,4.034,4.034,0,0,0,0,3.368V6.594Z" transform="translate(27.498 33.273)"/>
    <path id="Stroke_49" data-name="Stroke 49" class="cls-4" d="M1.647,6.227V5.452a.905.905,0,0,0-.863-.942H0V0H24.883V4.511h-.776a.906.906,0,0,0-.863.942v.93h-.023a4.038,4.038,0,0,0-2.159-3.368A4.035,4.035,0,0,0,18.9,6.383h.006a4.036,4.036,0,0,0-2.158-3.368,4.04,4.04,0,0,0-2.161,3.368h.005a4.033,4.033,0,0,0-2.157-3.368,4.038,4.038,0,0,0-2.16,3.368h0a4.038,4.038,0,0,0-2.16-3.368A4.044,4.044,0,0,0,5.959,6.383h.006A4.031,4.031,0,0,0,3.809,3.015,4.04,4.04,0,0,0,1.648,6.383Z" transform="translate(8.598 30.259)"/>
    <path id="Stroke_51" data-name="Stroke 51" class="cls-1" d="M0,6.182H4.013V0H0Z" transform="translate(34.958 15.74)"/>
    <path id="Stroke_53" data-name="Stroke 53" class="cls-1" d="M0,4.12H4.013V0H0Z" transform="translate(34.958 6.814)"/>
    <path id="Stroke_55" data-name="Stroke 55" class="cls-1" d="M0,7.781H6.949V0H0Z" transform="translate(33.491 26.989)"/>
    <path id="Stroke_57" data-name="Stroke 57" class="cls-1" d="M0,22.364H6.949V0H0Z" transform="translate(33.491 40.852)"/>
    <path id="Stroke_59" data-name="Stroke 59" class="cls-2" d="M2.8,0C6,1.536,5.58,3.367,5.58,3.367c0,.829-.506,1.5-1.134,1.5H1.15C.527,4.87.018,4.2.018,3.367.018,3.367-.4,1.536,2.8,0Z" transform="translate(34.166 1.945)"/>
    <path id="Stroke_61" data-name="Stroke 61" class="cls-3" d="M0,1.945V0" transform="translate(36.965)"/>
    <path id="Stroke_64" data-name="Stroke 64" class="cls-4" d="M6.681,3.864a.9.9,0,0,1-.865.94H.865A.9.9,0,0,1,0,3.864V.941A.9.9,0,0,1,.865,0H5.816a.905.905,0,0,1,.865.941Z" transform="translate(33.625 10.936)"/>
    <path id="Fill_65" data-name="Fill 65" class="cls-6" d="M9.164,4.125a.9.9,0,0,1-.861.942H.862A.9.9,0,0,1,0,4.125V.941A.9.9,0,0,1,.862,0H8.3a.9.9,0,0,1,.861.941Z" transform="translate(32.384 21.922)"/>
    <path id="Stroke_66" data-name="Stroke 66" class="cls-3" d="M9.164,4.125a.9.9,0,0,1-.861.942H.862A.9.9,0,0,1,0,4.125V.941A.9.9,0,0,1,.862,0H8.3a.9.9,0,0,1,.861.941Z" transform="translate(32.384 21.922)"/>
    <path id="Fill_67" data-name="Fill 67" class="cls-6" d="M10.245,5.14a.905.905,0,0,1-.863.941H.863A.906.906,0,0,1,0,5.14V.942A.906.906,0,0,1,.863,0h8.52a.906.906,0,0,1,.863.942Z" transform="translate(31.842 34.77)"/>
    <path id="Stroke_68" data-name="Stroke 68" class="cls-3" d="M10.245,5.14a.905.905,0,0,1-.863.941H.863A.906.906,0,0,1,0,5.14V.942A.906.906,0,0,1,.863,0h8.52a.906.906,0,0,1,.863.942Z" transform="translate(31.842 34.77)"/>
    <path id="Stroke_70" data-name="Stroke 70" class="cls-2" d="M23.271.043V0H1.649V.043A.905.905,0,0,1,.785.984H0V23.348H24.883V.984h-.748A.905.905,0,0,1,23.271.043Z" transform="translate(8.57 39.867)"/>
    <path id="Stroke_72" data-name="Stroke 72" class="cls-7" d="M3.33,1.816A1.746,1.746,0,0,1,1.667,3.632,1.747,1.747,0,0,1,0,1.816,1.747,1.747,0,0,1,1.667,0,1.745,1.745,0,0,1,3.33,1.816Z" transform="translate(11.204 42.688)"/>
    <path id="Stroke_74" data-name="Stroke 74" class="cls-7" d="M3.329,1.816A1.745,1.745,0,0,1,1.665,3.632,1.746,1.746,0,0,1,0,1.816,1.746,1.746,0,0,1,1.665,0,1.745,1.745,0,0,1,3.329,1.816Z" transform="translate(27.499 42.688)"/>
    <path id="Stroke_76" data-name="Stroke 76" class="cls-1" d="M.008,19.325V9.071S-.52,3.63,7.005,0h0c7.527,3.63,7,9.071,7,9.071V19.325Z" transform="translate(14.034 43.891)"/>
  </g>
</svg>
