<svg xmlns="http://www.w3.org/2000/svg" width="72.753" height="47.321" viewBox="0 0 72.753 47.321">
  <defs>
    <style>
      .cls-1 {
        fill: #f7f6da;
      }

      .cls-1, .cls-2, .cls-3, .cls-4, .cls-5 {
        stroke: #231f20;
        stroke-miterlimit: 10;
      }

      .cls-1, .cls-2, .cls-3 {
        stroke-linecap: round;
        stroke-linejoin: round;
      }

      .cls-2, .cls-4 {
        fill: none;
      }

      .cls-3, .cls-5 {
        fill: #ededc2;
      }
    </style>
  </defs>
  <g id="Pune" transform="translate(0.5 0.5)">
    <path id="Stroke_2" data-name="Stroke 2" class="cls-1" d="M0,34.87H23.47V0H0Z" transform="translate(0 11.4)"/>
    <path id="Stroke_5" data-name="Stroke 5" class="cls-2" d="M0,7.376H23.47V0H0Z" transform="translate(0 11.4)"/>
    <path id="Stroke_8" data-name="Stroke 8" class="cls-3" d="M0,7.376H7.376V0H0Z" transform="translate(0 11.4)"/>
    <path id="Stroke_11" data-name="Stroke 11" class="cls-3" d="M0,7.376H8.047V0H0Z" transform="translate(7.376 11.4)"/>
    <path id="Stroke_13" data-name="Stroke 13" class="cls-3" d="M0,7.376H8.047V0H0Z" transform="translate(15.423 11.4)"/>
    <path id="Stroke_15" data-name="Stroke 15" class="cls-4" d="M0,3.353V0" transform="translate(4.694 22.129)"/>
    <path id="Stroke_17" data-name="Stroke 17" class="cls-4" d="M0,3.353V0" transform="translate(9.388 22.129)"/>
    <path id="Stroke_19" data-name="Stroke 19" class="cls-4" d="M0,3.353V0" transform="translate(13.412 22.129)"/>
    <path id="Stroke_21" data-name="Stroke 21" class="cls-4" d="M0,3.353V0" transform="translate(18.106 22.129)"/>
    <path id="Stroke_23" data-name="Stroke 23" class="cls-1" d="M0,34.87H23.47V0H0Z" transform="translate(48.282 11.4)"/>
    <path id="Stroke_26" data-name="Stroke 26" class="cls-2" d="M0,7.376H23.47V0H0Z" transform="translate(48.282 11.4)"/>
    <path id="Stroke_29" data-name="Stroke 29" class="cls-3" d="M0,7.376H8.047V0H0Z" transform="translate(63.706 11.4)"/>
    <path id="Stroke_32" data-name="Stroke 32" class="cls-3" d="M0,7.376H7.376V0H0Z" transform="translate(56.329 11.4)"/>
    <path id="Stroke_34" data-name="Stroke 34" class="cls-3" d="M0,7.376H8.047V0H0Z" transform="translate(48.282 11.4)"/>
    <path id="Stroke_36" data-name="Stroke 36" class="cls-4" d="M0,3.353V0" transform="translate(66.388 22.129)"/>
    <path id="Stroke_38" data-name="Stroke 38" class="cls-4" d="M0,3.353V0" transform="translate(62.364 22.129)"/>
    <path id="Stroke_40" data-name="Stroke 40" class="cls-4" d="M0,3.353V0" transform="translate(57.67 22.129)"/>
    <path id="Stroke_42" data-name="Stroke 42" class="cls-4" d="M0,3.353V0" transform="translate(53.647 22.129)"/>
    <path id="Stroke_44" data-name="Stroke 44" class="cls-1" d="M30.062,0H2.128L0,4.694H32.188Z" transform="translate(19.447)"/>
    <path id="Stroke_47" data-name="Stroke 47" class="cls-1" d="M27.494,6.694V0H0V6.694H1.308V41.576h24.83l0-27.332V6.694Z" transform="translate(22.129 4.694)"/>
    <path id="Stroke_50" data-name="Stroke 50" class="cls-3" d="M5.386,6.725H6.706V0H0V8.718H5.386Z" transform="translate(42.917 4.694)"/>
    <path id="Stroke_52" data-name="Stroke 52" class="cls-2" d="M0,5.365H24.812V0H0Z" transform="translate(23.47 13.412)"/>
    <path id="Stroke_56" data-name="Stroke 56" class="cls-5" d="M0,8.718H6.706V0H0Z" transform="translate(28.835 4.694)"/>
    <path id="Stroke_58" data-name="Stroke 58" class="cls-3" d="M0,0V6.725H1.276V8.718h5.43V0Z" transform="translate(22.129 4.694)"/>
    <path id="Stroke_60" data-name="Stroke 60" class="cls-5" d="M0,8.718H7.376V0H0Z" transform="translate(35.541 4.694)"/>
    <path id="Stroke_62" data-name="Stroke 62" class="cls-4" d="M0,4.024V0" transform="translate(28.835 22.129)"/>
    <path id="Stroke_64" data-name="Stroke 64" class="cls-4" d="M0,4.024V0" transform="translate(33.529 22.129)"/>
    <path id="Stroke_66" data-name="Stroke 66" class="cls-4" d="M0,4.024V0" transform="translate(37.553 22.129)"/>
    <path id="Stroke_68" data-name="Stroke 68" class="cls-4" d="M0,4.024V0" transform="translate(42.247 22.129)"/>
    <path id="Stroke_71" data-name="Stroke 71" class="cls-3" d="M12.779,7.807C12.941,1.294,6.39,0,6.39,0S-.16,1.294,0,7.807v9.679H12.78Z" transform="translate(29.506 28.835)"/>
  </g>
</svg>
